<mxfile host="app.diagrams.net" modified="2023-12-26T19:24:25.158Z" agent="Mozilla/5.0 (Windows NT 10.0; Win64; x64) AppleWebKit/537.36 (KHTML, like Gecko) Chrome/120.0.0.0 Safari/537.36" etag="5csJdhq9QPUrAWpwxOxv" version="22.1.11" type="device">
  <diagram id="f106602c-feb2-e66a-4537-3a34d633f6aa" name="Page-1">
    <mxGraphModel dx="2333" dy="1276" grid="1" gridSize="10" guides="1" tooltips="1" connect="1" arrows="1" fold="1" page="1" pageScale="1" pageWidth="1169" pageHeight="827" background="none" math="0" shadow="0">
      <root>
        <mxCell id="0" />
        <mxCell id="1" parent="0" />
        <mxCell id="14" value="" style="fillColor=#F6F6F6;strokeColor=none;shadow=0;gradientColor=none;fontSize=14;align=left;spacing=10;fontColor=#717171;9E9E9E;verticalAlign=top;spacingTop=-4;fontStyle=0;spacingLeft=40;html=1;container=0;" parent="1" vertex="1">
          <mxGeometry x="420" y="100" width="1040" height="710" as="geometry" />
        </mxCell>
        <mxCell id="711" value="Bronze Stage" style="rounded=1;absoluteArcSize=1;arcSize=2;html=1;strokeColor=none;gradientColor=none;shadow=0;dashed=0;strokeColor=none;fontSize=12;fontColor=#9E9E9E;align=left;verticalAlign=top;spacing=10;spacingTop=-4;fillColor=#E1F5FE;" parent="1" vertex="1">
          <mxGeometry x="440" y="240" width="160" height="370" as="geometry" />
        </mxCell>
        <mxCell id="705" value="OLTP" style="rounded=1;absoluteArcSize=1;arcSize=2;html=1;strokeColor=none;gradientColor=none;shadow=0;dashed=0;strokeColor=none;fontSize=12;fontColor=#9E9E9E;align=left;verticalAlign=top;spacing=10;spacingTop=-4;fillColor=#FFF8E1;" parent="1" vertex="1">
          <mxGeometry x="190" y="330" width="140" height="100" as="geometry" />
        </mxCell>
        <mxCell id="713" style="edgeStyle=orthogonalEdgeStyle;rounded=0;html=1;labelBackgroundColor=none;startFill=1;startSize=4;endArrow=blockThin;endFill=1;endSize=4;jettySize=auto;orthogonalLoop=1;strokeColor=#4284F3;strokeWidth=2;fontSize=12;fontColor=#000000;align=center;dashed=0;entryX=0.5;entryY=1;entryDx=0;entryDy=0;" parent="1" source="706" target="705" edge="1">
          <mxGeometry relative="1" as="geometry" />
        </mxCell>
        <mxCell id="706" value="Script (data generator)" style="rounded=1;absoluteArcSize=1;arcSize=2;html=1;strokeColor=none;gradientColor=none;shadow=0;dashed=0;strokeColor=none;fontSize=12;fontColor=#9E9E9E;align=left;verticalAlign=top;spacing=10;spacingTop=-4;fillColor=#FFF8E1;" parent="1" vertex="1">
          <mxGeometry x="190" y="560" width="140" height="100" as="geometry" />
        </mxCell>
        <mxCell id="2" value="Architecture: Subscriptions &amp;gt;&amp;nbsp; Data Warehouse" style="fillColor=#4DA1F5;strokeColor=none;shadow=1;gradientColor=none;fontSize=14;align=left;spacingLeft=50;fontColor=#ffffff;html=1;" parent="1" vertex="1">
          <mxGeometry x="190" y="40" width="1280" height="40" as="geometry" />
        </mxCell>
        <mxCell id="uRrWmLtxYyDdxlRz5IdK-720" value="" style="verticalLabelPosition=bottom;html=1;verticalAlign=top;align=center;strokeColor=none;fillColor=#00BEF2;shape=mxgraph.azure.sql_database;" vertex="1" parent="1">
          <mxGeometry x="230" y="360" width="50" height="60" as="geometry" />
        </mxCell>
        <mxCell id="uRrWmLtxYyDdxlRz5IdK-721" value="" style="verticalLabelPosition=bottom;html=1;verticalAlign=top;align=center;strokeColor=none;fillColor=#00BEF2;shape=mxgraph.azure.script_file;pointerEvents=1;" vertex="1" parent="1">
          <mxGeometry x="231.25" y="590" width="58.75" height="60" as="geometry" />
        </mxCell>
        <mxCell id="uRrWmLtxYyDdxlRz5IdK-722" value="" style="strokeColor=#dddddd;shadow=1;strokeWidth=1;rounded=1;absoluteArcSize=1;arcSize=2;" vertex="1" parent="1">
          <mxGeometry x="430" y="100" width="180" height="80" as="geometry" />
        </mxCell>
        <mxCell id="uRrWmLtxYyDdxlRz5IdK-723" value="&lt;font style=&quot;font-size: 14px;&quot; color=&quot;#000000&quot;&gt;Data Warehouse&lt;/font&gt;" style="editableCssRules=.*;html=1;fontColor=#999999;shape=image;verticalLabelPosition=middle;verticalAlign=middle;labelPosition=right;align=left;spacingLeft=20;part=1;points=[];imageAspect=0;image=data:image/svg+xml,PHN2ZyB4bWxucz0iaHR0cDovL3d3dy53My5vcmcvMjAwMC9zdmciIHhtbG5zOnY9Imh0dHBzOi8vdmVjdGEuaW8vbmFubyIgd2lkdGg9IjIwLjAwMTA0NTIyNzA1MDc4IiBoZWlnaHQ9IjIwLjAwMTA0NTIyNzA1MDc4IiBmaWxsLXJ1bGU9ImV2ZW5vZGQiIHZpZXdCb3g9IjAgMCAyMC4wMDEwNDUyMjcwNTA3OCAyMC4wMDEwNDUyMjcwNTA3OCI+JiN4YTsJPHN0eWxlIHR5cGU9InRleHQvY3NzIj4mI3hhOwkuc3Qwe2ZpbGw6I2FlY2JmYTt9JiN4YTsJLnN0MXtmaWxsOiM2NjlkZjY7fSYjeGE7CS5zdDJ7ZmlsbDojNDI4NWY0O30mI3hhOwk8L3N0eWxlPiYjeGE7CTxwYXRoIGNsYXNzPSJzdDAiIGQ9Ik00LjczIDguODN2Mi42M2E0LjkxIDQuOTEgMCAwIDAgMS43MSAxLjc0VjguODN6Ii8+JiN4YTsJPHBhdGggY2xhc3M9InN0MSIgZD0iTTcuODkgNi40MXY3LjUzQTcuNjIgNy42MiAwIDAgMCA5IDE0YTggOCAwIDAgMCAxIDBWNi40MXoiLz4mI3hhOwk8cGF0aCBjbGFzcz0ic3QwIiBkPSJNMTEuNjQgOS44NnYzLjI5YTUgNSAwIDAgMCAxLjctMS44MlY5Ljg2eiIvPiYjeGE7CTxwYXRoIGNsYXNzPSJzdDIiIGQ9Ik0xNS43NCAxNC4zMmwtMS40MiAxLjQyYS40Mi40MiAwIDAgMCAwIC42bDMuNTQgMy41NGEuNDIuNDIgMCAwIDAgLjU5IDBsMS40My0xLjQzYS40Mi40MiAwIDAgMCAwLS41OWwtMy41NC0zLjU0YS40Mi40MiAwIDAgMC0uNiAwIi8+JiN4YTsJPHBhdGggY2xhc3M9InN0MSIgZD0iTTkgMGE5IDkgMCAxIDAgMCAxOEE5IDkgMCAxIDAgOSAwbTAgMTUuNjlhNi42OCA2LjY4IDAgMCAxIC4wMDctMTMuMzYgNi42OCA2LjY4IDAgMCAxIDQuNzI3IDExLjQwM0E2LjY4IDYuNjggMCAwIDEgOSAxNS42OSIvPiYjeGE7PC9zdmc+;" vertex="1" parent="uRrWmLtxYyDdxlRz5IdK-722">
          <mxGeometry relative="1" as="geometry">
            <mxPoint x="45" y="15" as="offset" />
          </mxGeometry>
        </mxCell>
        <mxCell id="uRrWmLtxYyDdxlRz5IdK-727" value="" style="image;aspect=fixed;html=1;points=[];align=center;fontSize=12;image=img/lib/azure2/databases/Azure_Database_PostgreSQL_Server.svg;" vertex="1" parent="uRrWmLtxYyDdxlRz5IdK-722">
          <mxGeometry x="9" width="45" height="60" as="geometry" />
        </mxCell>
        <mxCell id="uRrWmLtxYyDdxlRz5IdK-731" value="" style="shape=image;verticalLabelPosition=bottom;labelBackgroundColor=default;verticalAlign=top;aspect=fixed;imageAspect=0;image=data:image/png,iVBORw0KGgoAAAANSUhEUgAAATEAAAKACAYAAAD0G08lAAAAAXNSR0IArs4c6QAAAARnQU1BAACxjwv8YQUAAAAJcEhZcwAADsMAAA7DAcdvqGQAAH+PSURBVHhe7b0LeFvHde+7wJdIUaIkinpLBijJMW3Tsho7iZ22NpHQLWQeu7rHPGlPcr8kPeQXM7eK6zhg2Nt+aRvnNrf8yC/JSeRbxiGvc9LTXCdleyznUERjpYAcO0+fWJFomZJFEbBelkWJomhSfOPOmpm9sZ8gQOLBDa6fPQL2nr1nz97A/LlmzWCWK8oAgiAIh5InXwmCIBwJiRhBEI6GRIwgCEdDIkYQhKMhESMIwtGQiBEE4WhIxAiCcDQkYgRBOBoSMYIgHA2JGEEQjoZEjCAIR0MiRhCEoyERIwjC0ZCIEQThaEjECIJwNGlZT8z1jWPyHUEQuU70yb3yXXYgS4wgCEdDIkYQhKNJe3cy+mS5fEcQRK7g+sY1+Y66kwRBEIuCRIwgCEdDIkYQhKMhESMIwtGQiBEE4WhIxAiCcDQkYgRBOBoSMYIgHA1Ndk2CE0Oz8NML0zDLn5iL70uWB7YVwJ3r82B8xgVlRXInQTiMpTTZlUQsQS6NzcF3+qbgq7+6CVNMxRb60L70oRL49B0roCgfYPuqdBvC56Fr3+9CI7RCuPdPwC33Zp9fQLPrj6EdPgPB6F9BjdybWuS9Bx6EzvD3oGHp3HxOQDP2HcjTv7gJ3z4xsSgBQzqOT8LfMSHctJIePUGkAmpJCXJ+LArvMGtssWbrlZtz3KorXNZP/j5oi0YgmgorLPI87HO5YV/XeblDYTs09OI1yArLdUjEEmR2LgorWR9wx9pi27S5bAUU5LlgbUmhZT6mVStYP5JIHYMDEJBvieUJiVgSuNeVwB9WVdimB3au40J3+6ZSy3xMWAZBEKmDRCwNzDCrbWpuTm4tgNDfgYt1kbSpOSTzbLtPjHh5jFCzvkxX8y9kjhF0vM9/bKTrk/pjWFLrqZTBz0Mnu8gXdZN5+56HCD9WIMr7JHThTtMz+DtQi+bIMrzP8q1A4+8ajlOuaTxPweIebY4Vz03kGZ+h5bOO9/kRKYdELA24XPhgFzYFgzcS7ynoDKM/R6bgZ2TuQjkMTawhtVa9Gisz3Aq+9j82CYlogH8MfZ2aY6M/AL/MFggB8DRCQvUMNeMoodxIgO4m9gxad0FYvf6r0Ol7FryKwHGkX01e06fWNwE/m7zHdv8P5Dnaa9gJziloZaLYU6ccH4Fw54NcPLVClp7Pj4gHiVgSTM3OwY2JGds0OjkLc9EoTM9EYXxq1vIYLMOeX0BPO3vx/x96Z3TNX0HbYjzggaNMbV6F3obtcgfD/SfQi40r0AIHNY021IOWzWegRXssCkbbffI9NlRleoTBaW5Vz77/B1r7WlVB0tXBkqMQME0JQSc9CulRaDxoZz0mCFqraL2hgGnuSVwDhQyg3WtlkbFnWP+q7v7cDV/lxwe6X5F/CNL0+RFxIRFLgsi1CQj0D9mmn569xsRrDt589z3LfExYRuYxipKk5qPcwmrvSUIYmAi0sobq6/xUYiOLzAKr70hujpq/xer4+6COV/YnNt3DxIgcOcyq9CB0HtAKmMJ2qK1/kL0+Cz2mizwI9bXGZ7gddlWzl8AADIodRBYgEUuC+zbnwf913wrb9Pm9RbC+2AV17nzLfExYhj1KQ2XdPFtfzgLw7YJK+VbPdqhilgT0hdUuZU0ddn3idKvkaGD1rvksKonvYahNRsGYWFRZVxYqq1BgTsGArv+bDOfhSDezqOA22GVTJ/eu2/hr34DR12V/TqxOafr8iLiQiCXB3Rvy4XN7V9imT96+AtasAPjdrQXw2T1FlsdgGfGoaRO+FkVIMu4UZl0f7i9jb9u94vpap35k4BT7115oTFR7ltAvBSS2os6o3MXvfaFk/fNbhpCIpYGJWYBxlhaKu+F7OocwiondiGNaQH8Z92FJh75pAOAo9Du5/xSv+5eCeWdZ//yWGSRiCYIjjq4ERxyLmbG1MhVzWtEqkkIScx7Hwa4B2jXayCvQzfuGdtaSGAEM8gochiOsAvbdrVRhJ5DzdwXnR/qw4nRJFUvT7P9aAMl+fsSCIBFLkEd3FsHaYhd869ikbfrem5MwMgnw6sUZ+IfjU5bHrF2Rx8oqlKUmgvRbKbh/D+p1I2IxxMiiFVaO6vmc3DGEL0pS8ykxItf439Lm87EcaJCCaxpQSLL7V3MAu8p2o5xSKJP248XD8PkRKYdELEEev2sF7FqTB988dtM2/X+nJrlP7LdDs5b5mHavzYOmPcWyVAM4/G+cVBr6b3yOVWzETo6gBVqgSdNFwYmiXhzetwG7NFrfDB7vaTzKROGrmukAOEHU6JD+BRxkx8WmDWyHhg4UAvT5GI4N/V1q/D/YfdU+B3wunhYI+FqhwzjK6vYAHyBM1NJhXeUO9FkZr8HvXa56keRoqkpCnx+RakjEkgCtsd79ZYtKWIYt2CD5yJZ0qGOSEyf185O+p060VI7z9P8fqkPeBGv8YZbXpzjq8XgmTP6gcd4WdrdiDmmR5MTXNo21xn1mscmh6rGsrgk7/G3BpXNYFxY0zwEFDOd1WS4nxLq8eN9M1D38+PlHBbnPSpnsq1zDxQSsGie/LuIH4wl+fkRqcdF6YsRSQViH+CsAWnliqUPriREEQaQIEjGCIBwNiRhBEI6GRIwgCEdDIkYsGcRMd3LqE8lBIkYQhKMhESMIwtGQiBEE4WhIxAiCcDRpn7FPEERuQzP2CYIgFkEGfjuZXZUmCCL1LKU2TpYYQRCOhkSMIAhHQyJGEISjIREjCMLR0BQLgiAWBTn2CYIgFgFNsSAIImloigVBEESKIBEjCMLRkIgRBOFoSMQIgnA0JGIEQTgaEjGCIBwNiRhBEI6GRIwgCEdDIkYQhKMhESMIwtHktohFumCfywWufV0QkbvmJdQMLnZOc0huEwSxpCFLjCAIR5OVH4C/cnEMfnvlJsyxKxcyGd2zoQQ+vKWU5718QeQp3M3yHtgm8pBzo9PQG74B0+xkrHp5SQHUecpgzYp8ecQiQUvM2w7+YBTaauQ+giB0LOsfgA+MTMF3T16Dp16+CE+EzkPzK5fge28OQ2R0igtT91vDfD+mPz96Abr6rqp5V27OwL+fG4UvsnOeZHmYvvyLd+C1y+OydIIglhsZF7H9L56FQwMjMD07x7fHp2fhh6eGofGlc3BxbJrvU0BL68WzI2pex/Eh+KufXYLRqRmYZXlz4IIwE8WGl96WZxAEsdzIuIj1D0/CtYlZuH19MXyzZjtUlRfD8OQshG9MMmETx9wh8zB9dMcqNQ8tsQvvTfNu6ON3VcB/fXAbtD+wDb5wzyZxohHFsW/jpQ81szzMVxJ58wnCcWRcxGaYAlWVr4DHdq+Fz+2t4K8oWlpWF+bDXRXFPG1dVSj36nl0Zxk/X0nJEYJmJlredj8EmUWHFh+mIHi5P4wgCOeQcRFDmpgV9fT9m/l7fMVtLceHbsKfsi4kpn/qvy73po5QsxfawQed4TbQ+u5r2sLQ6ZMbBEE4gqyIWMeJIXj4hbNqwm0teypK4LmHdvD0iaq1cq+e86xbeYp1TTGdvj4l9yZCCHrQ2PK3QINb7Inhhtp6UjGCcBJZEbGTVyd42r22SH2vZXR6Fk4MTfB0aWwG8ljXD0A/EyQQHoVnmfgpKWEiA9DHXnxVlWLbgHtXtXxHEIQTyIqIbSgpgFr3au64/71tpVBWpK8GipoyzeLHkRuwrbQQCvJc7LxC1Uf2r2euw9d+cwW+dWwI/vl0El3OwX4IsJfqXSYzjCAIB5Idn9iemE/s41XrYF/lGv7eiprtq+Fv798CG1cWwuN71sPf3ifOU9jCBO6gd5vcSpy+gYR/iEQQxBIm4yKG1tdju9fAViY+yPs3rITPVK+HL31oM1SU5EP9revU6RWY/uzuCthTUQwrWE03FBfAQ7cIC05JX/nwFrhfzvZPiMoqQK9XoH9QbBuIDGBnkyAIp5DbcSdxnpinEQL+IETV3xBFoGufBxoDOL1CPzoppl7gyCXQz44IIg4UdzKruKGho5NZY+3g1a1ugeLmhT4fjU4ShJNYhiLGcDdAbzQI/kAjeNQZ+x7ob4lCbwuNThKEk8jt7iRBEGmBupMEQRApgkSMIAhHQyJGEISjIREjCMLRkIgRBOFoSMQIgnA0JGIEQTgaEjGCIBwNiRhBEI6GRIwgCEdDIkYQhKMhESMIwtGQiBEE4WhIxAiCcDQkYgRBOBoSsSQINePiic0QkttLA1yRFuu1D7rSGPtE3LsLmpfWzRMEiRhBEM4mKyLWPzwJ/xYZhd7wDXjp7VE4NRwLnosxJ3G/kt68NilzBFcnZuEIOwfPD7D8Vy6OwfjMnMxdjrihoTcK0WivRUTzZMFAKczisjC3atrwGksweAoGg2F13pdOM5RY0mRFxL5zYggePXQWHn7hLNT3hOG7J4dlDkAHy8P9mOoODfJtLa+/Ow4fOxyBR9j5j7w4CJ/9yTkeJZxIATI6uqOQwZCJ5UvGRWz/jwbh0MAIzMiV/cen5+CHp4eh8cg5uDg2LXZK8C//oTMjal7H8SH4y1cvwXtTszAzF4VZliKj09Dw0tvyDIIglhsZF7HDgzdg8MYU7FhVCJ/bWwHbSgvh7MgUHD0/ygRNKJt7dRHPw+QuK1TzTl6bgF9fHodpJl6P7FwDB1j+p+9Yx4Pr2iO7SNqkdpfsu0/x87AXs09fpi78mxbF8T7PsaFm/TEsxbpIsgx5nuJkF3VTyjcMOOi6WeZnoL8tWQbG6MTNdq88LjZYIK5pN3hgcY82x4rnJvJMz9DmWVsj78mLUUIBAo0eWQ57DvLebcuTz1r3bHTPMpbidVMT/w4Q6STjIoYCtL64AGrdIpI3vm4oKZC5gso1RfDU+zfy5N2xWu7V07RnvS4SuCX8y+qFvs4wt+pECoJfZi+MPmhlX3RPf4u+TB7+zUpIPNBYHdQcG4ZOXVQ42XBYY8SAvepx4U6wCh43yBqObLeJ0d3EnkErVIVjZYc7fUyntA1U+tXYNXnUTQw2zI9NwM+m3CN0QlipO0tBfwAaPfYi0N3kgiboUI+PBtmnguKZsJDVQJtyHsOnfsZtUOOuhXq8kfYe/echCfXw8MjQor25vlZ+Hxi2T1snLo4WdUJRZ5oPnepzZZ8rewqm7wCRdrLiE2vaUwFP37+Zv8dX3NZyfOgm/OlL53j6/qnrcm/yWH5Z8cu/KO90AAIoSroyWJlcANqhVdNoI0e62dE+6DygPZYJRlsD+1cQ6WqCxgA7hjUGXZHuBmgzKUg3tDZWQ1BpZAncR4CZVp1hvRi5G3qZyKD1cnCRDY5ZMWi9+ZiA9cbuCcGBAHGNJguLTDzDXm2latr48XbCkxxuqBUqBj2mwkIgvhZ1+ujv7EFVG6O+szqh4EN7q+4e0ALDPyT+oPa5xoIya78DRPrJiohh9/Dvf30Zngid56+4rWU7605+6vZ1PH1wU4ncq+fd8RnuD8P0NkuZwyhKEvnXP9B9JIkuRQgONjKV8bckNrLIGxqzNORmQtiUXVPHFcOikSdBqIeVgJfQC5iCuEYAuo+Yn4i/znwXlVUoPH0wkAINcDe0cIu73XiDSp2N12dCbP2x1rNPXHsPETjSzT4zq+MX9B0gFktWROzlC2PwPLOwzlyf4q+4raUozwWbVhbwVFaUD6yzxfbqY/z+7NIY/I8z12UakXv1KA3V60rlJM1q2GUpOG7Yhf2/QD8Mih1qA7DtVsnRQF9VpdieFz9YtP242JZdWcXqxiRjEYohLF0f2FZfXiPQrzwRhTjnsOdlOnxB1ID4+PWWHa+zlQBV77IUYnDv4t169R4iRwA1zPp483eASD9ZETHk3k0r4fD+nfzVyGuXx9VpFt8+cRXymagZeZbt//zRCzw9efS83GuAdQcUPw/6gLjzNXVqNj+sS9grfXCq41nr/JXTA6qtVdGMrwoSlbvMYSfqDCkA2cJsbYqupK++1lqwkkEd/NCnpPyVRErIuk/s41XrwOcp4++teHBbKfzNhzZz5//jd1XAl+/fInMEW0oL4ZmP2Dj2ES4k6EOSDn388mV0FEk6oNHxy80Ss/N3MdZQ9onT/cv2vLOaOn2XknclfVBfu2gJY0axdrDGmJLs8hOLIuMihtMm/vNt61QL7Pe2lsKnbi+HT7K0ZkUePLh9tTq9AtOn7yyHj96yGkoL8+CO9cXw2O41unwcpfyjnWt4WfERYsKdx4FusHDT6LFtgHaNVjqMba0lMQLIHcWKdWDb3UoddmWLQYckrEALhA8rTvdPWppW/q/MUAMHuGMeu5QR6GplH5Cd/7FvwPoPm/Shqd1yxbq0O57IOBkXMZwO8QCzrhQ8ZUXwJ7ethS9JawtFSjt1AsVtQ0k+FLAuJXYq72RCps3/a3betlWForAEEA1PwdpvgiiN3Iy1o1p1GNs4uRXc3GkiYVZiC7++fvQrpViO9tk4p5Ps/qnO81Zry1YZHU6rhsk/BHYIvyT7o9ElfFm2gmrzh808wi2/M4n8ISQyAzN/Uw58/XU1ZY9wtNPnjwblliAYZd+/KE7IUgn6ccTAep9hP7Pi1P2+zrDcy7AqgxH0+6Law0Sd2HG+TvZOQdYJDMeGO6N+dYfVeQoyDwz3ys5njVvWV5unHG+sG2JTFkPcu8U5yr0b6qY8K8MjYdXy2VxbyTOfEx/5/CyfDaLcEybzfcWePyZ9vezuIXaO+T7wnOTq70yWRhsXZM2xn35wpEiMTMYcr3Liq3YyEDr/2TdP56htrYKw7aRYPwRZXrU6Q5wlbztrQ4ZyGcxI4COT6nHKxFfdnCqlmytGMdVjcSblIrp6CrxeQdA8B1aHAN6D1URW7PLifSvPLYHlffD54bPivj7lGi7w9onJrwlMZVskco6een3jZFNlzhjDODdMC/q4wvXQrfkMvO0W8/c4Np8ZngPBpfcj+RzHhUom36cM1zeOyXfsz9WTe+U7IqPgTHoxpVw/qXQZgpNTxaOwEu4QNLM/bu0oYqQ+CbOU2ngOW2IEgSj+v3pIxaAksfQgESOWIFY/KDemBH+jKCenzjfgQjgXEjFiCSJ/kB6NlxKZi8XEsEn8ttPqJ0VEbkAiRuQg6OdCa02urmH4cTqRW5BjnyCIpCHHPkEQRIogESMIwtGQiBEE4WhIxAiCcDQkYgRBOBoSMYIgHA2JGEEQjoZEjCAIR0MiRhCEoyERIwjC0ZCILXVkSP544fRjyN8MUjh9YhlBIkYQhKPJiogN3ZyBM9cnefDcAfZ6dWJW5gBc4XlTasJtLePTc3B2BPPw/Eke/Xt6LuW/Yc84uPpoQstBEwShIysi1vnGNfijFwdh3wtnoL4nDM+9cVXmAHQcH+L7MT18aIAHz9VybOgmfOxwGB5l5z/C0md/cg4ujemFzokM9lvHViIIIj4ZF7EvvHwBuk9fh1PDwhI7eW0CfsC2v/LLd7jVpbXE3mLHdL8Vy/uXMyPQ9tq70MeE7NTwBJxm+b98Zxy+9LNLsnSCIJYbGRexg8eG4NiVm1BenA/7PGWwpigfXrs8Dt978xqMTM7xYzD+JOZhwq6iknf0/Ci8MDACk7NReP/GlfCH7tXwwc0rTV1OFa1TPNQslzWWqVlZ3Ni8FLKaZcJq2WTrLqC2eyjea87RXkDWS4S/10TPsaqEvJ9YWfMt0azU1+64JAcCdIMMysKDhudlqqPh+cj7tRuoCDVbnDNfmRxZH16ZWN2sj9cea8Q+T9RNkyzPJzJNxkVsionSbDTKI4Af3r9TjQSuRcnD1HRXhdyr5+n7N6vHYIpHAMOr9dTFljZWQrQ1N7MvrAe668NqnsiyaCS8IcmVQpVy+PFCeOwaZXeTC5qgQz0+dm3ZAHjIMxmZHESIMH6cMfJOdxO4PP3QopTDQ8phaLV4QqaEK5MRx40kGPDXzCATRy8/VwcKlIywpNxvuFOErVPbe00dD4UX6D5iIZwyiro2SnciZWrpa2WfUw/UyWOj0TB0+vAzshK+RBF/DLztGOpOKZc9f/wcaSQ4+7APJOXEC6yJ+5p+ci7663fG+Da+4vbu596Isu5j9HPBc9Ft3+mLfvrHb/P0oedP6/KUcg8PjvDz46IGkDUGTdUEVDVHd+Xn6ILjzhOglQkQK0sfSFUJBGsqnyGO19fJqgyO7T0wZODa2CUs6qmcn2A94qI8Gx+7N5vnZr6OfNaaOtneq/F+kihTvfc4zzD2mcpjLZ6JVV7C9V1GKO0QU7bJimP/yvg0/PzSOHyLdS3xFbe1lBTkgaesiKfyFflyr57hiVl4Z2waLo/P8BQXU9DUWEBVU1h7Gco/0D8otpF5LJYaEdceui3i2luFza+swmv3wUAyf8KtAr/KEP598QpyN0ALVq+9x2CxKVZPnICyNgQC1RA0WIqRI93sCTBL0hSRQz5rTdh/u+cVEhUC5ZElU6aKVWg2q880YSysQwVpVbZbmrlEpsiKiKGD/i9euQjfPPYuf8VtLVtLC+ATt63j6d5NJeBi/xl54+oEvHJxjKdXWYqHr6pSvjPiA3NWJQiNGVC7CaJxWR0rkWJibiRxzmHNM5k2ZX8P8zdOIRqGLiUXZiuBSACT8MnYjkwqrIKWu3dxCYndb80B1sVje3RdSiEWvs4Dsuwky1So3mXfNdZ8pgkj/4BZP3/zd4XIPFkRMQTFqXf/bv5q5LXLN9VpFjjFIo9rGFruMZ7tG4KnXr4Inz96AZ5kKf1YNyaO/Eu/ZLGwGLgwLzCgrL2goo/O4PzGJEYtNFhYUlJU600VSrTM9ML9qqZ6eKCRZsZknayI2GO718AX7tkIu9cWwWO3roMPby2VOYLxmTl1moV79Qp4fM8GWFecz499XDr6h27OwrnRKbjJjv04s9jST5zuX2SA5S5lakAYY0qXUlo99bX2VsuC0Dq+zUnbA3XX1jPJUrqUEehqtRPVxMtMJz7NwIIpUUi4rJJxEcNpE5+8oxwe3bmGb//BLavhj9+3Dh7cvhpWFrrgjvJidXoFpv/0vrUsfy2sKSqAB7aVwn+5s1yXj+U8vmc9LytdCB9WnO7fYD/LxV5WhlrUAqg50MlEQ3QpI12t7J0fWkxOnoXiBt67S8bP564FYYyxLqVllO4FlJkKjH+QbF0FxFIh4yKG0yEUAUOqylfAE3sroLN2B2wtLYSmPRW6qRPN92zgPrICVlPsVeK8MG1+10M7oLKsSBSWJtwNLaI71mo9nG50SC8EIZRpRIpGe0+X8DUtwKEfj3iDG9bEupQHD6ID3/z8ki8zUYyWaQwxmKBBPjerY4mlQdZ8Ys6iBtqC7FsfaASPYV4QToBE94w/mEhYfXsUR3XqG6yCFI32Ru7HSbnVWNPG57qh78g0Zw7nellM6lK6lO3tNqK6gDITRRns8GrLYGV6TE4uNzR0CCvWPCcP548tZv4ZkQpIxBKFT0oNgh+FTOPc9faJya+L9s2w8sOdrEkrDuRFNFA7hGggi7Ma7ahpi/LJvCYnuBdMUzI4yvQPhp2oJl1mouDniQqJE1aVMlur2GeJk4gNsHr28kmzxkEGnCjdYZ56QWQUVxQ9kylmKYU4JzTgrw7k7PdeannEIlhKbZwssWWEMnnUPI2BIJwLidiyQU4etZp5jv4lXTfJnOx+G0oQ2YZEbJkQ6WqCxoDNDH3u79PMe7JI1P0kliokYjmOsnyMcIX1khOayDlIxHIcPrrHrSkSMCI3IREjCMLRkIgRBOFoSMQIgnA0JGIEQTgaEjGCIBwNiRhBEI6GRIwgCEdDIkYQhKMhESMIwtGQiBEE4WhIxAiCcDS5LWK4CCAuJbPoUPMhaOZL0hiXJ84cka597Pq0FDJBGCFLjCAIR5OV5ak7+67Bi2evw8wcwMrCPPgPlWXw6TvKeV7H8SGWd4O/Rx7dWcYjICm8/u5N+L9fexduTs+yC7lge2kB/PV9m2FLaaE8IjdBS2zRy+ng4ofedvAHMxevkchNlvXy1P9w/Co8f2oYesOjLN2AnsEb8H22/b03r8H1yVk4eW2C71fS86evq3kvXxiDrjeu8nN6I6NweHAEDjHB6zhxVZZOxCMysLRD/BLEQsi4iD318gUInR+FojwXjwCOFXiJCdJXfvkOj+qNrCzI43mYTl6dUPO63xqGZ347BOPMCttUUgA71xRBaaELvt9/jZ9HEMTyI+MiNsn6kHPggns3lUDv/t381YiSh0nbldTy9P2b1WMwWaI49m3CnwlnuVj5NP5a8tKxbxgg0DrbTWUtOOQaxjLUlMNS3PXtrdbHNw5kyOegxFRs99ocpw5gxFIaIscRRErJuIihA+4/7iqDL9yzkVta+PrY7lhEcOTi2Az8E+tiYnrt8rjcq2frqkLVWsOUHEIohI9Js5a8Et8wydHM7iYXNEGHrhwezzBZBeBi44FGELEsRXlhqO/2WAR1Rdh9tPbp70GJjam9Bx43McrjWiLoE+PH9jaA6l7j1/ZCuz8YK4vdBwoeBQkhljIZFzFkw8pCKGTdSfR54Stua7nJrLXwjSmerk2KLqaRsek57ifDNDI1J/cmRqiZCQUGzTA6yZWAqkwEmhJuuAEIVAf1gTRYOVhMcqHvmSA1NbLS/BDUigtGoO61COjKwTyjo78GDqBYsXs4mPDFmQXGFD3gY+Kp9fjL+wg0Hsza1BKCmI+siBiOQD78wlk14baWPRUl8NxDO3j6xG3r5F4959+bhlPDkzydZilxQtDTzl6sQpchNXVcMALdRxK2xqyiV1dWodXTBwOJFhI5AhhRzdd5wBzOn+3hUfcTxL2rWr5LkFAPiEeiFU+BEu6/h1SMWKJkRcSQezethMP7d/JXI9iFVATu2yeGIN+F1dTPBHn2xFX4/NELPD159LzcmwCywfqqKsW2iUrg+hPoh0GxYx58YFsUs6v6EysEYLCfHQ1QvctKWRVRtEeJasSTF++QSWiCChriqm5zH5VVLCfxsggi02RFxB7YVgoNd5bDPk8Z1FWWwZ3ri2WO4MrNGXWKxSzTrkd2lsHqonx23ir2XvjP3rw2AT+/NManZLhXJ+sTsxcL7KIla8ikAjH9IZ4gWhFzxHv7NH403pdNlgA0ejRCqCTsZsojCGIpknERQyd8Q/V6ddRx/641PHnKVkBhPsCGkgKdw/5hJnR/dncFlBfnw2O3roWn3i8GBJR0z8YSPtk1WewtiwhkbzpVEpYbI9TsZVYl+vYMTvoFIctRhNCQKHgusVTJuIjhdIhHpTWFVK0rhif2boDOh3bA1tJCLm7aqRNfvHcjbFtVCAVoFbDjP6CZfoGp66FboLIsidn6snsUsFWLQehH08NfZ+GbSh+KH8tOXAd5pbRIsfXVQ+0i9UV0VZMTUIJYKmTFElu7gplckuICF2xcWcC7hHyk0mCJbWJ5uJ9pGKe0MDYRFpOnrAhW5CdxG+4GaOG+6lbrH1MrTm4LZ31aiTegEOmCVuHmSgCcdmF9sJ3D311bz4W9nbz3hAPJik8s29S04ZQF9AEZVoWQvy0EfzALvy2sgTY5vcOjm18mpj+Az+jYd0NtPdtnmA4ipo/IDSPSCjWJFRP2DpyWYTW3DeePJTlvjiAyybIUMS4Y0SgE/QZntldOHM3Wr6Nxnlq4E3woJkqdXK1QxerUUS+P0eBu6OUTWPkEXXm8F4L2jn2c9Ip5SvkaccKyzNdmydMN9R2L9bcRRPpwRdFrm2KWzC/c0YoQ0/LJMU0QKWRZr2KRDeynUxAE4XRyWsQiR7ohAMnOvUo15h90m1P2VowlCKeTwyIWgoPo4bb7eVHGwN83mudd6VNbRqdzEEQukWMiprV6vNDXGc6ek54giIyQYyKmt3rImU8Quc+ycOwTBJG7kIgRBOFoSMQIgnA0JGIEQTgaEjGCIBwNiRhBEI6GRIwgCEdDIkYQhKMhESMIwtGQiBEE4WhyW8R4VGtX8pG4iWWFCHdHK4k4FbLECIJwNFkRsRcGRuCply/AE6Hz8MVXLsKPzt6QOQD/cmaE78f050cv8G0tGPH7L169JAPnXoS/f+1dGLo5I3OzBK7Nzyw+MvjSiVyhZImu9x/p2se+A4aYDURGyLiI/TgyCv+9fxgOHhuCb7H0zG+H2PY1ePnCGIzPzMHR86N8v5L+8c1hNe/k1Qn4VyZqeM63jl3h6dvHr8KLGhHMBiLwLZFeZCi9JYo5pB6RKTIuYvt/NAiHmCU2PSeW9h+fnoMfnr4ODS9F4OJ7eosKl9M5NBDL6zgxBH/56kV4b2qWRwafZfnhG5Ms/215BkEQy42Mi9gUE69Zlu7dtBIO79/JX40oeZiUSOFGnr5/s3oMpuSwXjLatjsou4umY+XAgUfGSGv3yvwkujxap7LoksSuYVuOMmChSwbH9HyDGvKe9vH+TwialWONZWvqIOoaS+JcK8zP1+pY7b3HK1vkYbRzBoa0k8ck332X96lJ8cow1gmT6T7kc8RIfxiAWI2eZSzY9JlR1zNVZFzEUMB+f1spNNxZDvs8Zfz1AbatBYXu8vgMT6PM6rIChQ7PV1JShA5CY3VQXTwRE4Y+QxEyfvf4F1kJ5aYcr4REwxBo8lzEH5T5vcmGOOuDVtboPf0tsWtEg+DnDdY8ahY62AjVyrV4CkOnrx282mPdtYBhKaG9x3Q+EurBVueHFu3CkRiurQmgQykXQ7hhHfY1QzOrHw8HJ/OUUHFmEUCh8EAjdEJYUw5r3TaCKu69p04eqylbEYyaNtyPsUIZvli5SS3ay8WGCaFf+7kHgT00KUAGmOi09mnuARP73LX14mCYPZYnvhK+2PdEWzm8toy6pZQlHslChJgwwR5oyoGvv64mI7jvSz+7FH1reFJNuL37uTf4+88Fz0XL/+F4tKb7DE+3fvdNXZ5SLuuSRm9Oz6rJknBnlLXjKKrL/ASj7HsYZY0kyr64ErlvnvNZo8O+cTShyxhgX35+ruU1ZP19rGXMS9DPy9Eea18v433JbfBFjZdS66d7LojVswlHmf6w4/0sV4+oi758pWzz/clyrD4LUz0SIc65ynfEos5m7O9P3Iv5+anlmz4Eq3t0Dko7xJRtsjI62XF8CPa9cEZNuK1lT0UJPPfQDp4+fttauVfPudEpOHWdpeFJOM1eF08lVKHlkhXYX/ADFmaFtKYC3Ufm757K6N5a3A0t3HoxRfwO9fCumb/OcE1fPdQaTMiaOiwBs2oN1qV8Xn0DsbpFjkA361n7Og+YAp+4a+tZ/QLQfcR4Jz6oN16UXWlXNXsJ9MOg2LE4lPttsbCQFYs1IWS9kkCJuGX+fJUI7t1geiREUmRFxK7cnIGi/Dx4Yu9G/orbWgZHpuBrv3mXp9C59yDP5WJ78Y92jB+cHoav/uoyfPXXl+HvfvWO3JskOj+FDP+vazg1wNswj4pt7taljmqwDo0ZvzHrfGisuyKqrz1Sqb++S8m7kqxbZmpX1bvMjVxijt1prptosDZxPt272F0a64fY3TvSBwMpaOBi9NgudN98whTS+dFE1zPRekXgCKq6zT26xQME0yMhkiIrInbH+mJ4bPda+NzeCvjojtWwY3WRzBFEmJX1LTnF4szIJHxgUymUFOTB7eXFcM/GEn7MTy+MwQ+ZkP3PszfgwnvTfF+iqI2fNfyYbwn9SvIADeiPQR8NUwLwyi9ydv0YMae5p7EaWCdF1B/9V/IILcKSaoeYMRYCrmEmyyp1qAMcuiQd81lATH+IJ5YWqIM5MmqWfM7C95Usse+OLlk644hkyYqINd1VwUcXkY/ftg587tX8vRU121fD39y3GTaUFMDj7Lwv379F5gi2rCqEZ7zb5VYCMOuricejFA7eRJzD7oZe8SWW32BspFajbZkg0tXELUY/F98E4lXW1Om7lLxrZdWFSx2ibjYpayH0krHqmPWFAiMHERYfNcsf+2NjkSiq4OLIuIjhdIhHd8VGE6vKV8ATv7MBuh5yw9ZVBVzgtFMnmu/ZAFtLC4AZYqxbCfDBzaW6/K7aHbBz7QpZWgIM9vMuj8kflAh8JEqMkiXkp0oYuwYmrCbwVYHSExJWhR8Sr34NHEBLkncpmRXXygpMU0Bh0T1CN1l2BN6OSu68s+u2RcA0VzkywD6RVFirSlc1Nd1iwpqMixhOh3Bruo9rV+RDNete4jSLlUypsKupnTpx94YSKC3Mk34xYBZZvi7/we2rYDXLXzQ47QL1YV7MAwBK4104Vg5vRjyHtAGcdmFXfeFUZ13KLuF4X5CAJ4K0+lIr8AoLH3gR96+xRrUk/LkzcNqFTQ9QCKUZ0Z23+XyJlJCV7mRWUbpXXo2jHh38Vv4J3G+aOCa+9DphkSODlo0kQUzzj9Ang3Vi3V5td0PxcXk19UIfX1z3ihyBa29EoUvGikuWGmjDLjefW2acqIsO8sUMjigDCQsYzXM3QAe3Rr36Z8w/9z7wGfVHGRVubNJMSGX1l4MnVihOepNYMetdPBLD54vgZ0wTxRbN8hMxbGi8S6hxtnq6oT5s4djHETU+Mql1xoqJrzo/Bk56xW+qcmzSP1JGn0kY6rs9muu0gw8dykaHCXZptddiydNdD2Ebx75ADucj/rr5/WiLQelya2bWi+QFCCbgw4tDTRt+RrFZ8cm0f+7XZM8NxUStk6cfWqK90GIypDGSvP5aov5xHPvsvpVJuvx4TeX4ZF3jtTHxR5LWT2NZ4IqiZzHFuL5xTL4DiD65V74jrMBfBHjbUcQW18DnA601MWm8Ny3+MGJ5sZTa+DK0xJYjcr6SxWRWgnA6JGJpwurHw/qUwR8Ay5n0iQwQOAr0aVk+W00in1POQyKWJsSPluOlTHXrItDV1AgBqxn6Tkf+AN/6+cpEPqech0QsZ1F+LiNXlEh6ZQ2CcAbk2CcIImnIsU8QBJEiSMQIgnA0JGIEQTgaEjGCIBwNiRhBEI6GRIwgCEdDIkYQhKMhESMIwtGQiBEE4WhIxAiCcDQkYo5D/iYy6YUX4yNW3UhnWDqCSA8kYgRBOJqsiNgrF8fgmd+KuJIY/ftnl8ZkDsDLF8bUmJOYcFvLudFpePbEVX7+wWNX4PunhmFkclbmEtlExPPM4DppBMHIuIgNjEzBd09eg6devghPhM5D8yuX4HtvDvOAudNzUeh+a5jvx/TnRy9AV99VNQ8jhf/7uVH4IjvnSZaH6cu/eAdeuzwuSyeyiQgnRxCZJeMitv/Fs3BoYASmZ+f49vj0LPyQWVONL52Di2P6SN64StCLZ0fUPLTa/upnl2B0agZmWd4cuCDMRLHhpbflGQRBLDcyLmL9w5NwbWIWbl9fDN+s2Q5V5cUwzLqD4RuTTNjEMRh7EvMwfXTHKjUPLbEL700DM8p4NPD/+uA2aH9gG3zhnk3iRFtiof9jSe/EtlpO2jLKt1wSmeeZlke2d4yby7fodpnKS0fXTFksMZbireCc0HORIf9F2DhNhCBjwRm5P2K5kXERm2EKhFG/H9u9Fj63t4K/omhpWV2YD3dVFPO0dVWh3Kvn0Z1l/Hwl2cIbmFzdVFmymCVd6C3WuFr79PlKiC1LIUO6m8DVBNChnqOEgTMImWy4IqJRrPxwpyFOGNZThCPSHANcEFK2TDx/Fl5o9wfVa2C9WaWt41Ym+lx4mDblmfp4SDt+rHZp6EzcH7E8YV+mlANff11NRnDfN1+/IrcEuL37uTeibw1PRj8XPBct+dZvo57/9yRP5f9wQpenlHt4cESeHY9glLWrKPiZfCRNONrpY+eCn5WiIdwZ9WGZxv1I0I+r5EZjl5Nl+DrZuzgoZZrqaXW+vKf5yjQR57x492TC5rkwmIix/b4oEzE9Sd0f4QSUdogp22RldLLjxBA8/MJZNeG2lj0VJfDcQzt4+kTVWrlXz3nWrTzFuqaYTl+fknv1RLpamW3ELIMFRciQEaftsApCKyOB9w1IK8UqWrgFkSPdrBNmVU8Z9HYhUa+NhHrYs7Cpi4x4nRjzPBcLMnJ/xLIlKyJ28uoET7vXFqnvtYxOz8KJoQmeLo3NQB7rjnFDQUMgPArPMvFTkhVitKwadiUcISOk8xeJLlYfKJqkxVdVKd+ZCfQP8tfIQB/71wdxDmXImJA29VTC48siF0z8uswnTIk/FzOZuT9i+ZIVEdtQUgC17tXccf9720qhrEhfDRQ1ZZrFjyM3YFtpIRTkudh5haqP7F/PXIev/eYKn0v2z6ev8316IiDabRXE1RBEOqbRX9Sn8dno/GYLIDkRRX9aTCjUZOmsSp7kBZ2R0ueS3vsjli9ZEbGmPRXw9P2b+fuPV62DfZVr+Hsraravhr+9fwtsXFkIj+9ZD397nzhPYQsTuIPebXLLgkA/xP8jz6wMbEg+4cDuTXkwyEQtFr3j35hSEz4x0bogqX4umbg/YjmScRFD6+ux3WtgKxMf5P0bVsJnqtfDlz60GSpK8qH+1nXq9ApMf3Z3BeypKIYVrKYbigvgoVuEBaekr3x4C9y/pZSXpUfpIs3TcCMD7AjWVutrzb6iRVJZhY6m+bpKCdZzkcSvi7RataTsuWTm/ojlS8ZFDKdD3L2hRG4BbC4tgI/sWAWfvL0c1q7IhwdY91I7deIPWLcT9+ez7iTrfYCnrEiX/8nb1zHxK5Cl6ak50Ak+1nAbDy5gDB+nFyyyp+NuaGH2B+tItcb/sXZNHR4VgO40erfdtfXsWbC69Fg8CzkAkRBxnosQSjOZuD9i+ZKV7mTGcDdARydrWO1e08TLULOczyVH5gKNTZqJl6wr5WlkzW6x1EAbOpACjeAxrDoR6WqOXa+mjfuZLOeloV8qFROpNM9Cdw2cx+btA59RfxbwXBQnvUmsMnF/xLIlt0WM4W7ohWiYWWQoZBqHsrdPcfi7oaE3DJ0+zUxzlxcguHjHPodPBA2CH4VMc32c96l1ste0RdWJpMoxPGFVUuQw4s/CeA1PP7REe6GFd/m0LOC5sHsNM6FUy9eIUybuj1ieuKLoVU0xSynEOUEQqWcptfGct8QIgshtSMScjvxtpq6LZkzkcyJyGBIxp+NugF7DnCtTIp8TkcOQiBEE4WhIxAiCcDQkYgRBOBoSMYIgHA2JGEEQjoZEjCAIR0MiRhCEoyERIwjC0ZCIEQThaEjECIJwNCRiBEE4GhIxgiAcDYkYQRCOhkSMIAhHkxUR6x+ehH+LjEJv+Aa89PYonBqOBc/FmJO4X0lvXpuUOYKrE7NwhJ2D5wdY/isXx2B8Zk7m5gIR6NrnApdhTX6CIKzJioh958QQPHroLDz8wlmo7wnDd08OyxyADpaH+zHVHRrk21pef3ccPnY4Ao+w8x95cRA++5NzPEp47jAIPM4tQRAJkXER2/+jQTg0MAIzcmX/8ek5+OHpYWg8cg4ujk2LnRJc0O/QmRE1r+P4EPzlq5fgvalZmJmLwixLkdFpaHjpbXkGQRDLjYyL2OHBGzB4Ywp2rCrkcSO3lRbC2ZEpOHp+lAmaUDb36lhsSXdZoZp38toE/PryOEwz8Xpk5xo4wPI/fcc6Hlw3PrKLplu2WYZs06KG7dcky6WdQ9CcRF6oGcsS1xPvY0kbwkzkeYGHddRER1KKinTtY9v7RAg1ta77YB+/N4v74cj6sO4pQeQiGRcxFKD1xQVQ6xaRvPF1gyH4beWaInjq/Rt58u5YLffqadqzXhcJ3Bbe2D3QCCIcv7JkszHsGBcQbzv4g5plndVQb3YCkQx90MrEpqcuVr4S3kwRMh7WDMO74YYvVl/T6tKDGCtSiWBbDfUYIJJJn1VcXAj1cFH0tzSIbYLIMbLiE2vaUwFP37+Zv8dX3NZyfOgm/OlL53j6/qnrcu9CYFYINnZ/EKK9Dbpw/DVtbaBoA1o44jCDYOD69ShkTAa8iw62EQCoD+vKdzd0AMazDXQfScqJ393aCNWq2LZBQ5zo3qEeLmFQR8vsEzlKVkQMu4d//+vL8EToPH/FbS3bWXfyU7ev4+mDm0rkXj3vjs9wfximt1myItLVyuTHB50H4rXgCBzpZgLDLB/Lw2QkbKYQi7TGfFBfq5VRxA0iaHY/DIodCRCAQHXQJLYtaL6Z6hgCoWF1qmATRK6RFRF7+cIYPM8srDPXp/grbmspynPBppUFPJUV5QPr6LG9+hi/P7s0Bv/jzHWZRuRePYN8mK9aF2nbROQIoIZB9S6dpRZDCg3rDg4sas5DvHokV7bfwqyqqeMqpu9S8q7kfCJOEM4mKyKG3LtpJRzev5O/Gnnt8rg6zeLbJ65CPhM1I8+y/Z8/eoGnJ4+el3u1RGCgj734qqBS7IiLr8r+qMoqNMWWCj6wrGpNHfelabuUvCvpqweTAUgQOUTWfWIfr1oHPk8Zf2/Fg9tK4W8+tJk7/x+/qwK+fP8WmSPYUloIz3wkjmM/wa5aoN/+KGHRLXVqQBhjSpdSdCV99bU2FiZB5AYZFzGcNvGfb1unWmC/t7UUPnV7OXySpTUr8uDB7avV6RWYPn1nOXz0ltVQWpgHd6wvhsd2r9Hl4yjlH+1cw8vSk2A30L2LdfQYfQM2znXFokvQookMsCtmh5oDYhACjTHhD/RDSwNJGJHjRNMAfP11NWWVcGeUdQSjOOwYj3CnDx1uUcvDZBm+zrDcIQj60UnnjxpPUcrSXtPuWETk+aKx4sPRTh/b5+tk7/SIsrXHGpHn+jvla/z7JoiFsmTaOCNrPrGM4G6ADpzDgHO9DFMkQs2xuV/KVId2b2xiKSfSBfs8jRDwdUKHwaJRHOm6qRehZvA0LrbrqYxYdsORpAcS3FCLQ6ntjYDVsBoAIIhcI7dFjOFu6NVMWsWZ7SJ5+7QOfzc09IrJpyhk6nFMwPh8LMMcM05NG6AZxQVSOb61CsLKZNVFUNMWZqIagEaPKDeZKWpuOWeMSRjNDSOWBS40x+T7lOH6xjH5jvWrntwr3xEZQVqP0BmGXvKHEWliKbXxnLfElhuRI90QsJxYSxC5CYlYTiF/feBvATLCiOUCiVgOEelqgsYAzdAnlhckYjmAsryPcIX1khVGLCtIxHIAsYQPJhIwYvlBIkYQhKMhESMIwtGQiBEE4WhIxAiCcDQkYgRBOBoSMYIgHA2JGEEQjoZEjCAIR0MiRhCEoyERIwjC0ZCIEQThaEjECIJwNFkRsaGbM3Dm+iQPnjvAXq9OzMocgCs8b0pNuK1lfHoOzo5gHp4/yaN/T8+lfHFagiAcQlZErPONa/BHLw7CvhfOQH1PGJ5746rMAeg4PsT3Y3r40AAPnqvl2NBN+NjhMDzKzn+Epc/+5BxcGtMLHUEQy4eMi9gXXr4A3aevw6lhYYmdvDYBP2DbX/nlO9zq0lpib7Fjut+K5f3LmRFoe+1d6GNCdmp4Ak6z/F++Mw5f+tklWTpBEMuNjIvYwWNDcOzKTSgvzod9njJYU5QPr10eh++9eQ1GJuf4MRjtG/MwYVdRyTt6fhReGBiBydkovH/jSvhD92r44OaVpi6njlBzLBqRkvZ12QTKRULQbDgeow2JhQdjYd60RLr26Y6PXz5BEKkk4yI2xURpNhrlEcAP79+pRgLXouRharqrQu7V8/T9m9VjMFkTga7WPugMK4sGYgqCP9AIHiuh4YLnhXZ/UHc8eF3gbZfHGEBxEyuqKseHoRNY+TaCRxBEasmKT6xpTwUXIQRfcVvLcdZd/NOXzvH0T6eG5d6FgPEkjaud1sABjJTLhOygTmWYBYZK5euEcJt2jfoaaMO4lXJLC1pgeIo/qL0Gu2YHHt8OrV1kjxFEusmKiF0Zn4afXxqHb7GuJb7itpaSgjzwlBXxVL4iX+7VMzwxC++MTcPl8RmeksHNQ2wbCPUw2cFAQRaBct21gIG19cjIQkz0THE55PGB7iPUrSSINJMVEUMH/V+8chG+eexd/orbWraWFsAnblvH072bSsDF/jPyxtUJeOXiGE+vsjQfSjANnmTfsG8gJjGRgT72rw+qYmHBNbjBpHuRI4AaBtW7zKKnHB/oh0GxgyCINJEVEUNQnHr37+avRl67fFOdZoFTLPK4hunngj3bNwRPvXwRPn/0AjzJkjUxJ723j3UTFT9X0C/zYwz2c0WCXckG2mj3xsRRk+x8aARBpJasiNhju9fAF+7ZCLvXFsFjt66DD28tlTmC8Zk5dZqFe/UKeHzPBlhXnM+PfVw6+oduzsK50Sm4yY79OLPYrAg1e1kX0Sec7r0W3UQTfaAxzhJDNwhgTG1AESAJIr1kXMRw2sQn7yiHR3eu4dt/cMtq+OP3rYMHt6+GlYUuuKO8WJ1egek/vW8ty18La4oK4IFtpfBf7izX5WM5j+9Zz8vSEwHRQ6yHRCL6V1ah0ysA/Zb9P1mWFvcuZrcx+gbI70UQ2YRZDCkHvv66mrJHONrpY31QXyd7p0XuZ7fuYyaaSrgzymQsyiwruUND0M+PZ2ZXVJvLeqVsny+qLYYglgNLo40LsuYTSz9uqOVDhI3QpJnqEGr2QCO6v4y4G6ADp160e2GfdmpEpAv2efvAh4aagZq2IPiZ9dbo2QfG2RQ4kICTZAmCSC85LGKoS70QZsIUaPTEHO4QtHTsI3g85mmPd3n6oSXaCy0WszL4HDL2RynoRyGLOfWV6+immxEEkRZcaI7J9ynD9Y1j8h3rgz25V75zNmhZedv9ECRnPUEsqTae05ZY6pCOfX8dCRhBLDFIxBIhdJD70fx1JGEEsdQgEVPBibFmBz3rR4oZ/n7ycRHEUoRETKUG6iwc9C6vXAWDFIwgliQkYhpq2owz7jEZV8EgCGIpQSJGEISjIREjCMLRkIgRBOFoSMQIgnA0JGIEQTgaEjGCIBwNiRhBEI6GRIwgCEdDIkYQhKMhESMIwtGQiBEE4WhIxJYEEeja5wLXvi4KOkIQSUIiRhCEo8mKiHX2XYNHXzwLD79wFup7wvDdk9dkDkDH8SG+X0m4reX1d2/Cxw5H4JFDZ+GRFwfhsz85B5fGpmUuQRDLjYyL2D8cvwrPnxqG3vAoSzegZ/AGfJ9tf+/Na3B9chZOXpvg+5X0/Onrat7LF8ag642r/JzeyCgcHhyBQ2dvQMeJq7J0giCWGxkXsadevgCh86NQlOfiEcCxAi8xQfrKL9/hUb2RlQV5PA/TyasTal73W8PwzG+HYHx6FjaVFMDONUVQWuiC7/fHLDmCIJYXGRexyZk5mAMX3LupBHr37+avRpQ8TE17KuRePU/fv1k9BlNcMHakdrVWvgx1fGc6RjfSrfBqEUQy0rVPlqW8j388x7IuMs+GZOvCl9TmxzaLTILIYTIuYhgf7j/uKoMv3LORW1r4+tjuNSJTcnFsBv6JdTExvXZ5XO7Vs3VVoWqtYbKDN25PI0BnOLZaa7geuj02QXTlSKEIz6as7hoEf7vXVvC6m1zQBB2x8jGuJR5vEJtM1AUGMdhvu9wgiNwn4yKGbFhZCIWsO4k+L3zFbS03mbUWvjHF07VJ0cU0MjY9x/1kmEam5uReA8zqaeJhioLQq11j2t0AvTYBdEWEcB/TGW18yRpow+MDjXDQZAQFIFBtKL+mDXjx7T2gHp6RujBBbW2E6qAieG1yL0HkLlkRsflGIPdUlMBzD+3g6RO3rZN79Zx/bxpODU/ydJolKyJHupnEMBE4YBHko6YOzNIRgh40Yvwt5nX15fHtPWblsArlVlnlY//2wYA0lzJTFyGoFNOEWE5kRcSQezethMP7d/JXI9iFVATu2yeGIN+F1dQHKn/2xFX4/NELPD159Lzcq2ewH/to1bDLKAKcSuA6oyXUA6gbvqpKsa1DHt83YOjG+cDycE4A+gfFu8zUxVpQCSKXyYqIPbCtFBruLId9njKoqyyDO9cXyxzBlZsz6hSLWaZdj+wsg9VF+ey8Vey98J+9eW0Cfn5pjE/JcK+28onJqN2+KtbkkyPQ6JGOcW2y81slQqbqEk9QCSI3ybiIoRO+oXq9Ouq4f9canjxlK6AwH2BDSYHOYf8wE7o/u7sCyovz4bFb18JT7xcDAkq6Z2MJ/PV9m3lZlgT6QRpDCePTOt6NqbcBLI2pRFhKdSGIHCHjIobTIR6V1hRSta4Ynti7ATof2gFbSwu5uGmnTnzx3o2wbVUhFKAFwo7/gGb6Baauh26ByjL9wIDADbuq8TXml9IzCLyHp6WyitkyqDXJSs18LKW6EERukRVLbO0KZnJJigtcsHFlAe8S8pFKgyW2ieXhfqZhnNLC2ERYTJ6yIliRb30bNXXo/g5A9xGzckS6WrnPSYe7FupRObSjiiliKdWFIHKJrPjEMoac6oB+Jd2UrVAz4HQtH4qEDjc0dHQyC6gdvK5mg3jgnK35J6baspTqQhA5RG6LGKOmLQrhTiYFXo1jvLUKwtEOqJfH6MB5W9EwdPpQPDTnuDzQXd9hnu6QBEupLgSRK7ii6CFOMa5vHJPvAKJP7pXvlhpozXigETohTA5ygkiKpdTGc94Ss0c40331tSRgBOFglq2ICWe6D+prScIIwsnktojxFSOMTnHcvQ88jQHwdZJfiSCcTm6LGJ+mYHSKu5iAVfNVIXQ/xCYIwpHkeHfSDQ29FjPdo9pVIQiCcDLL2LFPEEQuQCJGEISjIREjCMLRkIgRBOFoSMQIgnA0JGIEQTgaEjGCIBwNiRhBEI6GRIwgCEdDIkYQhKNZxiImomvbRtJOIaFm8ZtNQ0BwgiBSAFliBEE4mqys7PrCwAi8fOE9mJmLQnFBHvz+VownWcbz/uXMCBw9P8rfo/WCsSYf2x2LjoQRv587eQ0mZ+bYlgs2lRZA453lUFFSIA5IGFrZlSAWyrJe2fXHkVH47/3DcPDYEHyLpWd+O8S2rzFRG4NxJkwoYLhfSf/45rCad/LqBPwrEzk851vHrvD07eNX4cWzN2TpBEEsNzIuYvt/NAiHmCU2zawwZHx6Dn54+jo0vBSBi+/N8H0KaCQeGojldZwYgr989SK8NzXLI4PPsvzwjUmW/7Y8gyCI5UbGRWyKidcsS/duWgmH9+/kr0aUPExKpHAjT9+/WT0GU1z4Cq/ahRHnD3emOOPVpPPKy0EBi1VjOcr15DmiLPtrmq5ldewC7oEglgMZFzEUsN/fVgoNd5bDPk8Zf32AbWtBobs8PsPTKLO6rEChw/OVZAcuRe3CwI6d4diiiOF66PZ4oNEYdZsjBMrb7uerv4pzguBv92pGMt1QKyLbQo+FikWOdEMAfNB5YJ6lF6Uw6a+FYd14uPAYoWbTPYQ7ARo9NOJJEFkZnXxw+2qovaUMzlyf4q+4reX86BT8tzeHefrV5Ztyrx7WC4WJmTk1WcJEogmVyh/UL0WN8Rwxkq0FoWYUNyZAYe3qrzXQJiLfwkEpGu7aeiZTGKDbqCIRONLNwyhB/BgkTCybGiHg64SwYaVZd0NbbO1/FDpvu+ke3A0d0Mkq0N6a/ikiBLGUyYqIdRwfgn0vnFETbmvZU1ECzz20g6dPVK2Te/WcY0J3iokgjlaeZq9WxLWIaurALGMh6GF6Af4WcwARebwqWnz9fr5D36WMHAGhYfOEggsd5JagvyX+yKj9PUhrMNANR0jFiGVMVkTsys0ZKMrPgyf2buSvuK1lcGQKvvabd3kKvj0KeazLBaCfCfKD08Pw1V9dhq/++jL83a/ekXv1DGJgSaiGXZYqUQlVKEJaQj2sg8gEqKpSbOuQx/cNqF3KhhYua7oupRAdP7TME4QkMtDH/vWB5aVUpFVncw/uXdjtDED/oNgmiOVIVkTsjvXF8NjutfC5vRXw0R2rYcfqIpkjiDArC6dXYDozMgkf2FQKJQV5cHt5MdyzsYQf89MLY/BDJmT/8+wNuPDeNN+nJwJCJ6qY/CRHoNGjcaArycKHZrTOFNHx180biCS+wBoxR2ziCbuZBLHMyYqINd1VwUcXkY/ftg58br1PTEvN9tXwN/dthg0lBfA4O+/L92+ROYItqwrhGe92uWVBoB+SNVR82kEAY9JNjK2BOqFiokupdBHr5pMwhT4YSKgrqHf8G1NbopcjiBwk4yKG0yEe3RUbTawqXwFP/M4G6HrIDVtXFXCB006daL5nA2wtLQBmiLFuJcAHN5fq8rtqd8DOtStkaVrcwHtbtkIxCNwY0lJZxZ31gST6ZzVCxXiXMoQONV8nzDcoiVTyvul8XcH57oEgiIyLGE6HcGu6j2tX5EM1617iNIuVTKmwq6mdOnH3hhIoLcyTfjFgFlm+Lv/B7atgNcu3QghMALotPN+Rrlbu/9Jh56yPh9qlbOaDAvM69CXuhhZx3jyji/HugSCILHUnM0ZNG4iZER79fKpQM+C0K5/RsY/O+o5OZo2hD8o4kRXnj1lNMFW6lO3sLB/Ux59XoSE2bcNjWEkj0tUcu47mHvYZL47zx2iiGLHMyW0RY9S04cRQJktejUO8tQrC0Q6ol8fowDlk0TB0+ozOdA9013eYp14wag6g8DHmnRtmgAkUn0iLQqa5Fgqs1uGP9xBlSmYacPACBMkhRixzsrKKBUEQzmZZr2JBEASRSkjECIJwNCRiBEE4GhIxgiAcDYkYQRCOhkSMIAhHQyJGEISjIREjCMLRkIgRBOFoSMQIgnA0JGIEQTgaEjGCIBwNiRhBEI6GRIwgCEdDIkYQhKMhETMQasYFB61WcF2KiGjlscjkSxQZ6XzJ15NwJCRiBEE4mqyI2CsXx+CZ34q4khj9+2eXxmQOwMsXxtSYk5hwW8u50Wl49sRVfv7BY1fg+6eGYWRyVuYS2STStc/aiuVLfkcN4e4IIjVkXMQGRqbguyevwVMvX4QnQueh+ZVL8L03h3nA3Om5KHS/Ncz3Y/rzoxegq++qmoeRwv/93Ch8kZ3zJMvD9OVfvAOvXR6XpRPZRAQEJojMknER2//iWTg0MALTs3N8e3x6Fn7IrKnGl87BxTF9JG9c/v/FsyNqHlptf/WzSzA6NQOzLG8OXBBmotjA8gmCWJ5kXMT6hyfh2sQs3L6+GL5Zsx2qyothmHUHwzcmmbCJYzD2JOZh+uiOVWoeWmIX3psGZpTxaOD/9cFt0P7ANvjCPRvFiUakQ1mEOgtBszZSEEtJRTtTnNO6ZAzrhmid7fK95pwFR1gzXd9u8CGes9+cp+sCYgg4XnbsvsRAhz5Zho5j+708kGcAGj3yWOVmlbrb3LyoQ6x8TKZrcORnyMsxfp5OGYwhUk3GRWyGKRBG/X5s91r43N4K/oqipWV1YT7cVVHM09ZVhXKvnkd3lvHzlRSX7ib2JW+FqnAs9L8Sxs26sZgJHWyE6mDs/Kga1s1KyJBuaHI1AXTEzsH4kXjNZIWMN3KM49YZjl0/XA/dHg80pqoHN8iERqhQDCY+rX2dEFauiUmGjtM9Nx56TtwfgI9VUx47bzg5Iari1szXsB3N7GtlotgDdcrx/LNA8SQhW45kxbHfxKyop+/fzN/jK25rOT50E/6UdREx/VP/dbl34QRYQ+8M9+piRrobemVQ2oM2IqQHYz/q26QbGlqw1bZDq1XLYRetDuqvWdMWlNHCk1AxJiRNqFT+IPTqbwB6hWqkhO5WrUi3Ab9VvIbRGV9zgAlG4s8tHqFmFGEUPf1z4qIoPhxosny2APVhWUeOEvSYIqUvR7IiYh0nhuDhF86qCbe17Kkogece2sHTJ6rWyr16zrNu5SnWNcV0+vqU3GuDv8U66K0I3Q3JaIqOyioRNNcSP9SZDJFKqMIT+gasLQwLIke6WdNkDf2AhVVTU8dFcfEEIFAdNIi0HW7YVS3fLooQ9KDhZ/PZKPcW6D5iflZWQYrduwCrFegfFNvEsiErInby6gRPu9cWqe+1jE7PwomhCZ4ujc1AnsvF9upj/AbCo/AsEz8lxcNXVSnfGZAi1DeQ+F9vnf+G9YOwN2fZcHxVTLJsCPRDok1NjPhV6yKCx5CimAL8ZsXVoPc/iV5nHyTx2MyEetifjzifjXJvVs+qepf9VI0k/kAQuUFWRGxDSQH7S7qaO+5/b1splBXpq4Gipkyz+HHkBmwrLYSCPBc7r1D1kf3rmevwtd9c4XPJ/vn04ruc8Yk56D2N1RBUfDFh7MKkkwgM9LGXeIKYEnxgqSWqo98LfRp/XAp7sUyP7OQoVRYfketkxye2J+YT+3jVOthXuYa/t6Jm+2r42/u3wMaVhfD4nvXwt/eJ8xS2MIF75iPb5VZ6iHQ1cQe6n/uMtL6YDJGE5ZY6mPWFJpdPOPZ1/rgUYm8FSwEniHnIuIih9fXY7jWwlYkP8v4NK+Ez1evhSx/aDBUl+VB/6zp1egWmP7u7AvZUFMMKVtMNxQXw0C3CglPSVz68Be7bvJKXZYedn0T4m+JZAwLRpbPycaUbxRqx67oNQnLzS5M4PjLArso0rL7Wvuu2GGRX3t6HJevqr8v8Hw3CUWRcxHA6xN0bSuQWwObSAvjIjlXwydvLYe2KfHiAdS+1Uyf+gHU7cX8+606yng14yop0+Z+8fR0TvwJZmg3tPRYjaRE40s1aCbM0rHzmiYDTLpLSkAUgBh+sR90iXa3cr6THDbX1TB4C3WA6RfqhFgVOu7AppDIZB527AcTgbqv1tAhZ1/i+OoLIUncy8xjnc6GPSw7vd8z/ez5lFNOrmeCFDn7jtKq0UNMmp4J49PPLQs18fpXPQjfctfXMyglAY5NmnhVOOE2mwu5a4FrY2KQRGdbFlIMZVri52Zj4NAcx5cRifhf64rCu/kRHTInlzLIQMR86pYPAhEwZYUMB80MwapifZIcyb6ndK893gae7HsJpd+wLcI6aMjlXub6rtQrC0Q6ol8fowPldWLdAI3iU4z390MInhcpj5sUNDb3KJFLlul5gD83esc+eE9aTT1TF4+ed1VsDbXygQHsNlrx9YvIrKRiRAK4oDjelGNc3jsl3ANEn98p3WQCtDznTPV2OaYJYjiyZNs5YJt1JgiByFRKxbKHOwbJPif6ukyCWMyRi2UL+aDpeoi4wQcwPiRhBEI4mt0VMLotMFg1B5C5kiREE4WhIxAiCcDQkYgRBOBoSMYIgHA2JGEEQjoZEjCAIR0MiRhCEoyERIwjC0ZCIEQThaEjECIJwNCRiqQTXL8MVKOwiVy9LYpGiXC5lBVclBJw+eroSDi/ZCOnE8oZEjEgjchlwEBGToomupEsQSZAVEesfnoR/i4xCb/gGvPT2KJwajgXPxZiTuF9Jb16blDmCqxOzcISdg+cHWP4rF8dgfGZO5mYGYTEY1oVH5A/Oo8bQ/8uV0EER6q7F+DzEstRZCX9H5BxZEbHvnBiCRw+dhYdfOAv1PWH47slhmQPQwfJwP6a6Q4N8W8vr747Dxw5H4BF2/iMvDsJnf3KORwnPJCKEG0EQS4GMi9j+Hw3CoYERmJEr+49Pz8EPTw9D45FzcHFsWuyU4MKAh86MqHkdx4fgL1+9BO9NzcLMXBRmWYqMTkPDS2/LMwiCWG5kXMQOD96AwRtTsGNVIY8bua20EM6OTMHR86NM0ISyuVfHYku6ywrVvJPXJuDXl8dhmonXIzvXwAGW/+k71vHgurZYLQM9j+M91Gw4Xuk6yrJE5DNNhB7FE6049lXPtHRg211PlqdfhlrrCBdpQctUy7qIcxVHeixZOc/FfQtnu+JkN9Zd3a9Jpvopz0GGiFOjNKllzfNcLEn8uZjraNH1J3KGjIsYCtD64gKodYtI3vi6wRD8tnJNETz1/o08eXeslnv1NO1Zr4sEbg374rfK8F/cB4MpCH4MZWbVgGTj87ZjOLfYOeFOHoZbXVJahCzzxcq1DS1WAyL2rUUgW0aoBxu5H1pUbzc2bq0jnKVwJzC1TCD8mQ3dTawRt0KV5hko4d9sxZGJqwedWTqEiIjgUbGyMJQdD9GmfZ6Kb1DGdvMH5bEL9hUm+lyUOlZbf35ETpIVn1jTngp4+v7N/D2+4raW40M34U9fOsfT909dl3sXAsZONI6I1cABDL7IhOygThdYA2hqhIAPG4re4exuaFvwqJp9BO8QCA1TwvRjA/RCOxO1oLaxM0HowPraRcqehwDTos6w/hm4G3plQN6D3OrS0wetWuGXdQk1y2DDhrLUmJzseTalxdxJ4rlEjoAI6n4gZZ8fsfTJiohh9/Dvf30Zngid56+4rWU7605+6vZ1PH1wU4ncq+fd8RnuD8P0NkvJICJVG7AdSVskNXWs+bE23n0kZqkgxjD9Ng0QUSJ6JxpZW4e/xbIBK1HNe0wqxipR32E4RxFc67Js7zEVpOu5EDlDVkTs5Qtj8DyzsM5cn+KvuK2lKM8Fm1YW8FRWlA8u9h+APsbvzy6Nwf84c12mEbnXHp2fS/pq+gZiX/7IQB/71wdVlWI7dSiWn75LybuSzOo7oGpYN8oHVO+yUAn3LkDZDfQPiu0k8NndUGUVj16ufQYCH9TXGuogBde2LKiEKiws0A/J1zA+ST0Xdy3U46M2dm+JnCYrIobcu2klHN6/k78aee3yuDrN4tsnrkI+EzUjz7L9nz96gacnj56Xe43EHNrePo0/RfpqtIhpE9Vg1VYWi9liEJaNr77WZPWpTnBdwu5UprB/BpZCwnGDlXGbShJ7Lug+kD5L9HvyY8ipn+tk3Sf28ap14POU8fdWPLitFP7mQ5u58//xuyrgy/dvkTmCLaWF8MxHrB37oWb8kksHfEJO5T4wGSapQLEQZHcr0tXK62WyeBiqE9wq2Q4gZAaz1aYQAW7IppFknktNm9iPAxjsqfNR5IWOixBLn4yLGE6b+M+3rVMtsN/bWgqfur0cPsnSmhV58OD21er0CkyfvrMcPnrLaigtzIM71hfDY7vX6PJxlPKPdq7hZemRDctXDxZaYaJS9IdgAT22BHBDrVAx1qWMwBF08hj8S4qfzl4oFoZdFzRuN82I7Hrad2cHgRuy6iBF6ljMc8EBDBzFxLq3m51/RI6QcRHD6RAPMOtKwVNWBH9y21r4krS2UKS0UydQ3DaU5EMB61Jip/JOJmTa/L9m521bVSgKS4gIdLWaO2fuhhbunG5vnd+XIgQvOdQu5cGD3FGtOvQV0uUcb++xGIGUQqrxycXF3QAt4uFYd82MgxSpZLHPRfrNiNwlaz6x9KNYP/qhfzFVQG7oqIE2OVXAOIcs0tWsa7zCOkhyVEzpUra3szP9YG7v9tcXvj39ig+J0w5e3bk4ZUFOl+hIfCS2pi3Iao1dM4OPCSfs4kCJPwjp6e0m8VxYXYxz35Sue2dCak04kRwWMTQgerlfhI9WSWewF4KWjn0On8wqJ8OqzmMxwVPX62LH6cpNyOHihgZuzjDsul0210cHNgQX9mNpX2eY3S8wIVPKQgHDybzJrighfrQd9Gt+qYDJK+eUpdNfl+hzYd1ePgFWc4yY+EqrZ+Qyrih6QFOM6xvH5DuA6JN75Tsio+CvD8T0euilFkykmKXUxnPaEiMIIvchEXMa8kfj8ZLtbyIJIgchEXMa3D+kmSNlkaj7SCwnSMQIgnA0JGK5ilwOh6wyItchESMIwtGQiBEE4WhIxAiCcDQkYgRBOBoSMYIgHA2JGEEQjoZEjCAIR0MiRhCEoyERIwjC0ZCIEQThaHJbxHSh/HMLEYJuoau9zgeu/pps+fIcx4ZKU+4Zk7J6rRItS/8cIl37+HFpDT4iv7tpe5451DbIEiMILmAeaAQlrB+tBOsksiJiQzdn4Mz1SR48d4C9Xp2YlTkAV3jelJpwW8v49BycHcE8PH+SR/+enkv54rTEcsI2+rtYkjsaXdjS4ItC/oA/sVCDy5usiFjnG9fgj14chH0vnIH6njA898ZVmQPQcXyI78f08KEBHjxXy7Ghm/Cxw2F4lJ3/CEuf/ck5uDSmFzqCIJYPGRexL7x8AbpPX4dTw8ISO3ltAn7Atr/yy3e41aW1xN5ix3S/Fcv7lzMj0Pbau9DHhOzU8AScZvm/fGccvvSzS7J0giCWGxkXsYPHhuDYlZtQXpwP+zxlsKYoH167PA7fe/MajEzO8WMw/iTmYcKuopJ39PwovDAwApOzUXj/xpXwh+7V8MHNK01dTksUR6ma7JzWWgevkqxD4cdzrlvnKY5iTTJ5h83Xn8/5Kq6VwPFWS1svxDttepbWzychdA5m8/Oxqp722SpOdqMDXN2vSabnotwHhpxjtHvlsWpZsj5JOdeT//wsUepmeADae0/0czc9C8cOvliTcRGbYqI0y/r6GAH88P6daiRwLUoepqa7KuRePU/fv1k9BlNcupvA5emHFu7fwIQxFI3xGBn8i6N18IqkhClb0JdRgQuIF/owhJquHlqw0RiuH+4UYcgsxaYPWlmDaa2KlamEkjPWlX/hWWP1B5Vri7J97V5WL2shtoI3CBlFKVZOPXR7MBScPGgh4GfkaoUqDP8my8V7QWGxfe7smXpMFxUiIqoYKwvD9PEQe9oGrPidZAg/9dks2A+V7Oe3UMTn3lMnr8GS9edu/SzC9d3gYTsX83EtKdhNpRz4+utqMoL7mn5yLvrrd8b4Nr7i9u7n3oiy7mP0c8Fz0W3f6Yt++sdv8/Sh50/r8pRyDw+O8PPjEu6M+tgtsq9nNCh3qQT9OBoQZV9cSTDKvspR8HVG2RfQBPues+N9UfZlUBH7LMpmGPPiHSsIR9n30PIY9gW1uTZEfdqdHFmO5j7E+dp71aA8I12mTV0sj5XI52n3/GxRPyP9/SlYPTexzxf1+cznKHlWZSl1ND0z03dBwfo7Yf08k/v85sXmWafqc7cvJzGUdogp22TFsX9lfBp+fmkcvsW6lviK21pKCvLAU1bEU/mKfLlXz/DELLwzNg2Xx2d4iotVsNrKKmBfEugbkH+5lFD8phEqQU0d/rVOMup3MkSOQDf70+jrPGCqq7u2ntXV6to+qK811tYNIkB5Pwzy7QgcEQWDZRBsGZkc2nvmtcYiR7pZLWyiadfUGazKJPG3WE5rEM+9HXpMlWP3VN9hOCcEPeJDtJ4iIesY6D6S+u7Ugj6/hbL4z10819wgKyKGDvq/eOUifPPYu/wVt7VsLS2AT9y2jqd7N5UA6wjJnBhvXJ2AVy6O8fQqS/HwVVXKd2YC/eIjD/Fvvw9sD5WipxyfLEpjxEjcVj0LIRAA1bpQ4xL3LhDfT+O1q/WRyXX0Addn2bhYwTZdJPnlV46Pw2A/L8jmmpVQhQ9ogdh+RsY/NioWDVn+IbL/vGUd1YaeOhb2+S2UBD53dofi47L53OVzzQWyImIIilPv/t381chrl2+q0yxwikUe1zC0fmM82zcET718ET5/9AI8yVJqiPPlkF/EBYOh1tAHxd6qDmQLNVPzdMnLG+diiCfklQmpTwQG+tiLr4pJwVLA/rOyFBKOItjpI12fX9JEBpicxf/cc4WsiNhju9fAF+7ZCLvXFsFjt66DD28tlTmC8Zk5dZqFe/UKeHzPBlhXnM+PfVw6+oduzsK50Sm4yY79OLPYUkMca0R+KRaF4khWHProVDeMFPm1jndjarPqDyZGPCtAWFgJkgYrJtWYrTYFKcRpJF2f30JJnfW3dMm4iOG0iU/eUQ6P7lzDt//gltXwx+9bBw9uXw0rC11wR3mxOr0C039631qWvxbWFBXAA9tK4b/cWa7Lx3Ie37Oel7UYhDUSANvPfLCfdxf8dYl8EedrLGImeFA4aABdJW5pItg3wAWiWJB9AzqxjKFYWPVgcrPomK/bKbsvC8SuscXtphmZt8sv62jlI10kafv8Fsp8n7v8PucCGRcxnA6hCBhSVb4CnthbAZ21O2BraSE07anQTZ1ovmcD95EVsJpirxLnhWnzux7aAZVlRaKwReBuaOHWUXur9Rwa4TPzg1bDbJ3Oih9qHnTduLQ5nWvgQCe7TqARDlp57hWHdH2tjc8sRrzBjUhX6+K6TJYDC/MMShhhlm6L+BCt560pgzcJ/SFKknQOGiyIGhAfl/gjqScCXa0Z7+Cmjaz5xJYezDpC04g1do+hi4dzrHA+pD9o+A2d/OK2e7XzrELQbJqDg/N1jHOxQnBQ/GBPjqTZX5+XmcRcLiPuhg5AHUN/jc4Nh/PisK5MJDoS+cVzTRu3HnE+kq4cPl+LaY1Gk5PHOG8PnxnOPfNBZ0fi87Zq2rCrjvP6DBNwcZ6e+BAhPb269H1+CyX2LPTXDjXjXDYfOfZzEnS+o78Kv4gax6y3T0xeNH/5sVuIXxQx6iiOFxM2eVdRBbti2mMwyYmv2kJtro/HglFAk8INDb2xyaNquUx5qtGHk8Tkzpo2i3Jaq9jz6YB6ecxC8OGzCILmGaGA+SGY9IoSSlddTFBW6+jtExM+0+mXStvnt1DwWYTZHzD9d49Pju5YzKe1tHBF0eOYYlzfOCbfAUSf3CvfEYQF0hrEXwD0JqdWRBZZSm2cLDGCIBwNiRiRHqx+bG5Ii/otqlOh55JySMSI9MD9Q5o5UhZpWXYf6bmkHBIxgiAcDYkYkV3krxjI+iAWCokYQRCOhkSMIAhHQyJGEISjIREjCMLRkIgRBOFoSMQIgnA0JGIEQTgaEjGCIBwNiRhBEI6GRIwgCEdDIkYQhKMhEcsyuPQ1Lr+S0ij3OY54Zple7hmXy2bXNS09TWQbEjGCIBxNVkSss+8aPPriWXj4hbNQ3xOG7568JnMAOo4P8f1Kwm0tr797Ez52OAKPHDoLj7w4CJ/9yTm4NDYtc50HrlmPa0hlISRhliCLhkgtGRexfzh+FZ4/NQy94VGWbkDP4A34Ptv+3pvX4PrkLJy8NsH3K+n509fVvJcvjEHXG1f5Ob2RUTg8OAKHzt6AjhNXZenE0mdx8SkJwkjGReyply9A6PwoFOW5eARwrMBLTJC+8st3eFRvZGVBHs/DdPLqhJrX/dYwPPPbIRifnoVNJQWwc00RlBa64Pv9MUuOIIjlRcZFbHJmDubABfduKoHe/bv5qxElDxMG07Xi6fs3q8dgsgQj6ShrlhvXNlc96bJ7o8mzd7Kbj3W5DPEN1WNsHM+yTsr1hZPaWIYCxitUriOSXd2UAYJYStDxLZ+LeV13+/uIdO1j+7V1tnou5rqKOnpFkF1NWDPTPSnPSJtsbtx433br04s6a46N1501Xd/u8yGWAhkXMYwP9x93lcEX7tnILS18fWx3LCI4cnFsBv6JdTExvXZ5XO7Vs3VVoWqtYYoHBnt19dTF1jHHoJDtXtYwmplIeKC7PqzmiSyLLy3/YmPQURGDMna8iG8YazxuqK3HsKQWkcEZIiy/DzrnC2nNr8cavD+oXgvrjfEe9Q1VCJ1XxsaM1Utmz4cSudoY+l+NYm68DyUqdz3UKouxhg5CY7WmniwpsSm12iP8fxink+GL1VfrD+SiJEO4xcqT5+jog1YmnDyGojwOr4mftVHIsExRpFJemH2KKKI2Am28frgeuj0YB1MeRCwt2IeUcuDrr6vJCO5r+sm56OHBETXh9u7n3oi+NTwZ/VzwXHTbd/qin/7x2zx96PnTujyl3H8+PRwdnpjh6frkrCzdQLgzyuSE6aY/GpS7BOEo+76jnkbBr89RzvGxb3yMYJQ1oihreOxMM0wwWFm+qHqKcl1j2cp1NeWYzuXYX08cr7mfoJ/fh+lSSWAqE+Hl+qI+Vl+rZ6HfZ4XdPcR5lgnei6ivVR3Mz5cJm3WZVp+z7efGkHWzrPcyRGmHmLJNxi0xZL4RyD0VJfDcQzt4+sRt6+RePeffm4ZTw5M8nWYpLv46Q/RlxVrCLINF5N4F1exFZ5mEengXyN9iHSm7po41S2ZfdR+RFoC7FoQx1qP/Sy+tG199bfyI23GuJ65lbeUtFKsyQz0Y8r8FWtjDCHQfiXW9ZN2qd823Jn4lVIlHnCCsS9rKSmYW2nxGqsAH9aopqICR1tlLoB/Ep6dYjRZlys9Ie29xrWRpsRJLj6yIGHLvppVweP9O/moEu5CKwH37xBDku7Ca+IcwxrMnrsLnj17g6cmj5+Vea3xVlfKdER+Ys2Tj6xtQv9y8QVseK6msYrla4XNDQ4tZGEQj8UPLPEEx4l5PXqtvQNZONi7sutn5jebFWCaTXq5hTOC5wKmiwO5hoI/96wej9nN0viTZ/dKcGx85alm9K77Aq1SDvY72Ab8VpUtsWaZR8FgNRAVsyk1WlIlMkRURe2BbKTTcWQ77PGVQV1kGd64vljmCKzdn1CkWs0y7HtlZBquL8tl5q9h74T9789oE/PzSGJ+S4V4d3yeWGuI0Gmm96VDERVUxaRWYrEI7hK8t5lyWydPIcrTUQBv6eLCBoZ+PH5fkbHajVcKtLSlUXOAUMba+B9VpzupWHdT4nZJp9JEBJj3x/uAsAvW56JMX/1aoRIDrs6+KyRXhJDIuYuiEb6her4467t+1hidP2QoozAfYUFKgc9g/zITuz+6ugPLifHjs1rXw1PvFgICS7tlYAn9932ZeVnqRf92tkA1QTw2IXprsUqLzm7f/xCQMLbFO1RFtTvoQZ8zy6xX7g3hNJjrepEbUZPdaWiXc2lIasxQ4IcbCWtLdA7O+mviNCcf+YiftmgYYUoF2cMSU2vR/VBK2HImlQsZFDKdDPCqtKaRqXTE8sXcDdD60A7aWFnJx006d+OK9G2HbqkIowL+e7PgPaKZfYOp66BaoLCsUhaWJSt6PCIBt+xrs59aRUaC0vibeRUzQ3zPv9eLARwC5kml8dAng5n0rrKuwtmJ+O9ntwu41t9AM3Vybe08axZrVdOMXTVJlyvu0/WNFk3SXKlmxxNauYCaXpLjABRtXFvAuYWGey2SJbWJ5uJ9pGKe0MDYRFpOnrAhW5Kf3NtwNLaJr2Go9t0j4sCz8RGqXspn7mOZ16EvctfXcRxXriiaJ9HElhaxrX89B6A7onebCL9YNB3vQQquPTa2Ih7Q8zdj5lmrgAPY/A41wcIG3bUZaw6zuiei5+KNjLf6RrlYm4MRSJCs+MedRA21o3eAETcMkSZyDhL4Vf9DQLeEoXcp2bsGYR9NscDdABzZoPpfN0KLRea6pA/qjjIeEDqLfbP4BBD2irgFW14BRqLjABdhtaC00iSLUXo0fDuuodzhpUBzqZmFxN3RwP5pxfhm7I2he4KBFTRvOMUP/orl7jZ+drtiaNt4dx7lmuv2hZj7PzJf0XwYiE5CIJQr7gkdx0qVmpjl3DstJpna+oJoDncIqStSCkbgbeiEaZucandKebqjviE29wG4gH5nUHCPqZCWq8RGWCMM0mheznsxTK3BgAYUC/XCaOobtHfs1bZgXG7iICYbw7SkTZWP35IW+BTv8sX6xScmxMtlzgqDpc8PuuOn6rVXseXZAvTyGWFq4oujdTDGubxyT7wCiT+6V7wiCyBWWUhsnS4wgCEdDIpbL6Caf2qQF+poIYqlAIpbLuBugV50PZZMWO7GLILIMiRhBEI6GRIwgCEdDIkYQhKMhESMIwtGQiBEE4WhIxAiCcDQkYgRBOBoSMYIgHA2JGEEQjoZEjCAIR0MiRhCEoyERIwjC0ZCIpQglnD4tCpE44pklGZlp0USgax+7rmGFXsK5kIgRBOFosiJiLwyMwFMvX4AnQufhi69chB+dvSFzAP7lzAjfj+nPj17g21ow4vdfvHpJBs69CH//2rswdHNG5mYPHmUouviQZc6BLBpiaZBxEftxZBT+e/8wHDw2BN9i6ZnfDrHta/DyhTEYn5mDo+dH+X4l/eObw2reyasT8K9M1PCcbx27wtO3j1+FFzUiSGQKCmFGLA0yLmL7fzQIh5glNj0nlvYfn56DH56+Dg0vReDie3qLCi2bQwOxvI4TQ/CXr16E96ZmeWTwWZYfvjHJ8t+WZxAEsdzIuIhNMfGaZeneTSvh8P6d/NWIkodJiRRu5On7N6vHYLInBM3zLsksu0aaY/YZ43sxtI5oNXS/7E6JPLuo2+Y62A0AKAMEsZSg4zvUzI8311u5N3M54h60dTY/B0zGuoo6ekUcRk30J/NjtVge2+bGjfdt9fwR9bkrKV531nT9ZKKiE04h4yKGAvb720qh4c5y2Ocp468PsG0tKHSXx2d4GmVWlxUodHi+kizhDdsLfZ1hzZLMGF5MCwqMBxpBhF7jx4Q7ARo99uvP8ziECfaleENiDV4bSj/o5yHB9A1VCJ0SAk45lgfzTgQZ/zFgDBseOQLdvKoiEnkMEelbF0oOA95W60P+K+HLtI9C+P/kc/TF6qv1B3JRwmCNcZ890getTDhbq2LH4TUx9qNRyLBMUaRSXph9aiiiNgJtvH64Hro97LOmbnBuwT7clANff11NRnDfl352KfrW8KSacHv3c2/w958LnouW/8PxaE33GZ5u/e6bujylXNYljd6cnlWTFUwAWKfTHw3KbTPhKGsvlsewhsT2+6KswaiI8nxRn0+/H1Hy9PuDUdZoo6yhsyvpMdUt6GfbEPXbV3ZeLO+Xl4t1hqhPVzlRN/0+K+zuwf7eEr0XUV+rOsjPRVO2+Dwsygx3Rn3GMuQ+sKqArJtlvYmEUdohpmyTldHJjuNDsO+FM2rCbS17KkrguYd28PSJqnVyr55zo1Nw6jpLw5Nwmr0uCGml+DoPmALNumvrgdkDFiHt2Qn1HZBQcO1QD+9y+VtiwW4VRKBao3W0OKzKDPVgePIWaKnGoNtHYl0vWTdzMFwjscC5icG6pK2sZGahHUhopNYqMroSJbwfhF2pWI0WZbproZ7VT3tvkSPd7FPyQadVBaTFSuQOWRGxKzdnoCg/D57Yu5G/4raWwZEp+Npv3uUp+PYo5LFuFv7x1PKD08Pw1V9dhq/++jL83a/ekXv1KI0aI1Nb9QzFl92mIbt3gWhHhu6ZZaOzhgsIO94yeHVlFcthnakB2fRk4+KRp+26sfNhLJN1sriG1dWIZ6GKArv3gT72rx9YlhmdL0l2vzTnxkeOWpqiiNtRDfY62gf8VpQusWWZRsFjNRAVsCk3WVEmljpZEbE71hfDY7vXwuf2VsBHd6yGHauLZI4gwqysb8kpFmdGJuEDm0qhpCAPbi8vhns2lvBjfnphDH7IhOx/nr0BF96b5vtM1LRx/xZ+Z9Ww9BYCoQtZrybpuDYRr9FZYQ6fz5OnkQtoDAy3L0P/t3vlcUnOZjdaJdzakkLFBU6x0qRl46/TWaCq05zVrTqo8Tsl0+gjA0x6mHRbKvciUZ+LPnl1H1QEuD77qphcEcuBrIhY010VfHQR+fht68DnXs3fW1GzfTX8zX2bYUNJATzOzvvy/VtkjmDLqkJ4xrtdblmgxl6UTmVsCIYRLb/aYC3Somevsm6N6og2p15dv9QNDb1if1BUllmRyYyouaGWq5iwSri1pTRmKXDtXMWEtYQWmgqzvprQ5JIDEIu9bbMFmwK0gyOm1KZ3CSRsORJOJ+MihtMhHt0VG02sKl8BT/zOBuh6yA1bVxVwgdNOnWi+ZwNsLS0AZoixbiXABzeX6vK7anfAzrUrZGnxQEtHikOgG9DV5eb9EG33K7VU8n5LABbSnvkIoKishV/OHnFPaHEJa8tXXyu7YLLb1TcAEW6hGbq5g/3cMtQJ20KQ3XB+Hb4jBSRVprxPpStqgibp5hoZFzGcDuHWdB/XrsiHata9xGkWK5lSYVdTO3Xi7g0lUFqYJ/1iwCyyfF3+g9tXwWqWnyhCWCTSD6VzeKcQMTigWD8LQPq4kkLeU1/PQegO6P13wi/WDQd70EKrj02tiAdOu7Bs9Ha+pRo4gP3PQCMcXOBtm6kB7t6Uf3zmQ/hCrcU/0tXKBJzIKZgpnnKWxvArDtMbp07IaQHaoXfbIXc8Vn++5RQGicgzT71QpgaYhvtxGoBhCoHxkHjXi4c4jyXLexJ55mkNSp7mespUBeN+id09i2cvztPfE7uGZkdyz1Opn/X0FutnZ9ivmW5ifjZEMiyNNi7Iik8sM2C3QoxMxpzAcuKr1uGDzn/0l2lmnivHQtDgZ1kA7oZeMbhgdEp7uqG+Izb1AruBxgEGMfE1+ToIS4RhGs2LWU/mEVnsbqPfUPPMsI5he8d+TRvmxQYuYmMmwreHk1b198Se/4Id/oo7wDxQ4oWgyYeH3XHT9Vur2PPsgHp5DJEbuFDJ5PuU4frGMfmO/Sl8cq98RxBErrCU2ngOW2IEQSwHSMScgNUPqY1poRNkCcLhkIg5AXWuW5y06PlsBOFMSMQIgnA0JGIEQTgaEjGCIBwNiRhBEI6GRIwgCEdDIkYQhKMhESMIwtGQiBEE4WhIxAiCcDQkYgRBOJolsYoFBgMfm5qF01duwvnrkzA0Pg3vTYrgISsK8mBNcQFsKSuCXetL+GsBLvFKEETWWEqrWGRdxMan5+Dy6BQMXJ2AX799A84M3YRLbPvGhAiaW1yYB+UlBeBZVwx7t62C6i2l4F63AkqL8knMCCJL0FI8Gi4wy+vwm1fha6Fz8ELfEPz24nvwLhOxielZnq4zq+zs1Zvw72eGoeuXl+C5X70DbzGLDS23eVFWf4gX6n65waOiW4ewWzDpKJMgEiRrIoYWGIrR88fehZdOD8PIxAzMYb+SgRbWWtaFRAsM19dXQOF6450xOPjqRfh5+AZcsQvVRhDEsiErIoZahV3IH5++Bv/r/Cj3g03OzPFF0ZX8m7MuuN+zBu5mXUiFGZZxjVlmKGQvnx2Bk5fH+D7bDrGyhE2vOQL3kkRajvsSj9GWOyzneycWRVZEDC0q9IH1nLxmaU1NzQFcmQD46G3r4Xcr18i9MdCN98u3bzABfA+uT8wy0bNTMYchw6YtS5bzvROLIisihqOQ6MS/yqyqKWaBLYRRJl6nrozzbiV2TQmCWJ5kRcSw+4ijkLPYFZT7kgWtL+ySnnznPd4VtURx7Bs8zqFmXNK5GXCveB9Llt0Z6bjWJrMTOwTN8x4Tga59LE8ONKjXbm4W58p4/IFGjyxD1DGGPF+Wjyle98t4b6lYwjqpMi2X1Tbek3xuKb53YvmQFRG7MjYFF29Myq2FM3JzBs4xQZyeXYgU9kEraxQ9dXJ5Z5YwxBc2Im3j4I3W2wed4dhxGNRQB2+sXmjXhtlnx2C4MLuGNti1D2S7ZdTxcGRKuT4MK8fL0YZrw8bugUbAMG7yGuFOAGz0JiERwuBt90NQOZalIHhVsUie5MsMHWyE6mDs2GgUQ7xhSDitQIlQbKm7d2K5kTWf2Ojk4ruAN1k38hoTMrTokicAUB/WxSt0N3TwGIuxiOAh6MH26W+BBu3IQE2b5jzWwDyNEPCxBmaIZ4ntMtB4UNNgFbqhtbE6Jgbzro+PVggTSWACoh2kcDdAB1a4vRW0WhlqxmN9THj1MStFnEi5kSQLKRNjP+pvzQ0NLShW7dCasBWV3L0Ty4+siJgVOG21MM8Fs5APuzesgmf+yA13bCoRmWlBH+JfgAF32UugHwbFjvkJ9bAGhjpnHgEVQWzboceoYoEAs1CSCIobOQLdTHN9nQdM57hr69mdaEP22wgvxw219QtRsRSWWVnF6psESd07sRzJiojhT4lwJj6Ck+6jTMJWFBXCvtvXw5/s3QAfcq+Gt69PQejMdThxaYwfZ0URK2clK2dhE/erwRQEW6UPBni7qAGhQxi92+ijEYR46/aBZWBr2WD7RGEa/FCXsIJhO+7mI3fmqN0M9y52J6i7UnYjA6z2rEY2kbYx0njSLLLMCOs6q74stFrZPrW+85DUvRPLkqyIGP4WsmJlARQzEdq0qgi2rS0GT0UpPFpdAf/7+ytg57oiaDt6Eb750wvw04Hr8iwzKGAb2fkF+en7+ZESDh8tKiW8v9kNYw6tr22wJnxVsJBg/rqQ/GrCrpYGOVXBstEvlAWVGXPEe7Rd53BncpaYJKF7J5YlWREx/BH3nZtL4baNJfCZ+7dAW10l+H9/M/zr8XfhL3rOwnd+fgFW5oufHd2MMwVjfWkhvG/DSijKT+9tuBt6RQOUzmezwx59RbKRWqRecx9sQfh1TnJDMvjVzNbf4kmmzEhXEzQy5RN1TqLrbEMy904sL7IiYrgaxV1bVrFuoAvevHwT/u3UNTjUdwVev/AeDAzdhKGxaVaxKJ9GYeezxx+A765YCR/YsRpKND9NSis1bazRBFlnkNle0vlfWYV2RQDS2aNRumsJiYjswtp1sSID2DFMkgWUOdiPtlty3WYrkrp3YlmSNUvstg0lsG3NCjh+6T0mYEPwozeuwqUbUzCV4HQJT3kxE8KVcCsrB31jmaMSuG5JhHOZWWcm7/0CsHN619TphDMu7lrgfvb2HgsfXggOonmULCksE6ddWB6dinsnliVZETH8gffWNUXwH+5YDwWsK3hjMoEVKTSgP+Qju9fCB5kVVpTv4iObaQHnfxkdYKGDopukjEaqQ/1e85wlPD+ZFTQUR7WpwdZAm5ivAR5TeTiHSjvo4IaGDvQ7tYNXd6yYqtDns5SKeUi+TGVk1qt5Jujgt52mlpJ7J5YjWRExBLuDaEXhaORD71sHa0oKePcyHngO+tIO/O5WuN9TBhtWFcmcNIENi49MapzJcuKr1g3DfWbosDYe6+mG+o5kfnzOGiyWgw2Wl6FpoEpXVs1TkhfAOF2D//DdeKwH+lui0NsiumdJk2yZWF8UH80z8XTXQ9jWsZ+ieyeWHa4oekZTTDILpuEPwHE1CvwxN/4W8vLoNJ+Jf3NaWGfKNAp04qMPDLuQaIGhgGXMF0YQhA5a2dUALqeDq1Hgj7lPvjMGbw9PwPCEWJ5amUaBo5DoxOc+sDROqSAIYn5IxAxgDXAkElejwB9z428hlZ8S5ee5WGIWGfsHLS+0zEjCUgf+NjT+zylx+kivxUx9YjlDIkYQhKNZSm2cnEoEQTgaEjGCIBwNiRhBEI6GRIwgCEdDIkYQhKMhESMIwtGQiBEE4WhIxAiCcDQkYgRBOBoSMYIgHM2S+e0krlpxfmQKrowpq1iIZakL88USPLiKxbayFVC+soD/npIgiOxBv53UMDU7B6OTs3CBCdirgyPwxuVxvorFtfFpnr9qRQFswLX0K0rgQ+4yuHPzSqgoLeLiNt/6YwRBpAf67aQGXJI60D8MXzt6Hl7oG4LjF9+Dd0enYGomytMwE7OBoXH49zPD0PXLS/Dcr96B01fGYGxq8cF3s4YM768PNqJEB9pnEwxWROAWiwHKBQNlOa5kVo9NBst6LpJ0lEksa7ImYthdRIsL19b/t/5rXKiGx2dgfEoshlhamAerivJ4QF1cdx+ttfMjk/Drc6Pwj//rXfgtEzsUuOUBCpgX2v1B1vXGCD+0milBKGRFxHCpsGtMsH4WvgEvnx3hK7uiqOGaYgj+G3XlQfWWUthdUcz3IbjW2AUmZMEz1+Gn7LyBqxO8rDT0iLOAGxp6UaDMa3dFulqhHdf1OmCQLr5kNDtHG95/WSCtUnMAUGIZkhURm2UNL8KssH/6zbtclIxg3JCL4wD1ezfzqOBGULRQyH759ij3qWEEcWIZISOSEwSSFRE79e447xai8x6Xpl4Io5MzvBxc0lpZj58giOVHVkTs7eFJ6L88zruHyjLUyYJLWF+8MQXHL42xcmzK0DqRQ83SKS6T2hWJhdtXkn0vxXysvSNegGHKdMfbOuGVsjVRfmSdPTyuYwAaPbIMpYKKY9+mwrj0tO7acbpfidczcZIrUztwoSTjs5XPyCNjV6qRlMyfQTL3TjibrIjY5dEpOHd9Qm4tnOHxKTh79SbvUsYj0OgBV0+ddIqzpIQSa25mDccD3fVhNU9kWQgTFwwPNEInhJVy+PFCXMyjbaLBsfbGQ7wpx4fru8GjNML54KHK2DkY15KvdS/LmTdsv7i2t90PQXldHvIM79kkJCmop4nky0S/X19n7HPAJJ6t9rOQfkMl7Js60KH1IyZz70QukBURe29qNumAuVbgYAAOEMxvzbEvtLbh1xwArgvt7XzEr1fjSa85gA0kAN1HtF93ZiVg4/MxATM40WvahPAFGpt0whfpahJBdoN6Rz3GqMTj00momYltAEVPO4oZC0J7UGOUpKOeCykT87SfA6J8Fo3aCs9DMvdO5AZZETEchTTqDrrmMTL4LKvS9nUl0PLgFthZvkJk2oBl4CAB+z8+/jrDlAQ31PK4/JhlsGqUSNT9g2IbCfUABgRSo34bENGutcIXgSPdrBUz0TMOKCLi+HQRgh5RWdMoJ7swk3Om3T1KS05HPVNYpvwsEieZeydyhayIWGFeHhTK2JEu9oKji4UFBfD+7avhw5418DvbVsMta4t4lxP9Z3YU5OfBioI8yJvnZ0i+qkr5zogPzFmVUIX61jegdj1CvGVYHSuprOLdm5jwDUI/a8dQvct66oM8Pi1IwbW+Z+O9paOeiyxT57v08nvRfhZxSereiVwhKyK2akU+rGEJKWBf1iirRunKYmj5yC3wzP+2Ex66dQ382aEI/J89YTh88io/zgqMQ1leUgCZ+SllNeyybJUMo8UgpwDYi2f64X5AVQyUhF0teQCSjnousEzVEe/t0/jRgtx6SpaE7p3IGbIiYlvKVsCdm0vhtg0l8Jn7tkDbf/CA//c3wb8cvwJ/0XMWnv35BViZhz8CZ2nG3mmPAnZrRaYigvfBgN2fcJt5S7ouaYbxGZzkumTw66WjnkmVyawvDOAr6mye7Jssydw74XyyImKV5cV8Nj7+uHtyNsrni7197Sb8PDwCr5wdgf7LY8xCE1HA7eaRYTfSw8rBLmgJ/ho8jVTyfkgAbNvlYD8fcVP9a4plZtd1kcenBVPXNg7pqOcCyowMcNsN6msXKS/J3DuRM2RFxNzlK+COTaVcfF4ZHIHv/OIifPvnF2Hw2gRMxLG8tGxeXQS3b1oJe7aWMkFLryXmbmgRTuFW6yF64TPzQ2yMoAaEr78bdIOcnAh0tXJPT3pw1wIfs2jvic03syUd9UxdmeLnVhbYOfyTunciV8iKiOEo5LY1RfDIneV8bbCRieSmW6CPw7t7LdznLuNdyfQvyRMbovcY5hqhLwe7Qv6g/kfZNW3oz8F5TprJqww+BYDZC9jW0oMbGjpwakI7eLUTZzk4h0o/By4d9Uy2THdtPdvHjm/SPFvWxRSTfK2QTnqTWCV370RukBURQ8kpK86Hu7asgj+8rRw+cEsZd/bPt9hhMetC7q5YCR+7ewP8buUaJoQrMremGJ94yhonCpnqLGYC1icmv5rnnzLhi4ah04cNKnZ8a1UYoh318pg0wX8Ybr42Ore76zsMPqd01DPJMrG+OIFV+2y9AEFbxz5OesU8pXyNOCV170Qu4IqitzPFJLNgGv4A/Dfn3+PdyvDwBF+OByexTs4I66xQTqNYzURu+9oVXPg+yqywbez9ysKsaDBBLHtoUUQNaE35qsrh8w9uh/3VG+Duratgw6pCKC7M52lNcQHsXF/Muo/roOGDW+BPP7gZbt1QQgJGEAQn65YYgjP40Z8/NDYNNyaEJYYLISI4e0KxxMpXFrJuZx4tS50l8Afd9n4qgT9o1bUmco2lZIktCREjCMJZUHeSIAgiRZCIEQThaEjECIJwNCRiBEE4GhIxgiAcDYkYQRCOhkSMIAhHk/Z5YgRB5DY0T4wgCGIRpMUSIwiCyBRkiREE4WhIxAiCcDQkYgRBOBoSMYIgHA2JGEEQjoZEjCAIR0MiRhCEoyERIwjC0ZCIEQThaEjECIJwNCRiBEE4GhIxgiAcDYkYQRCOhkSMIAhHQyJGEISjIREjCMLRkIgRBOFoSMQIgnA0JGIEQTgaEjGCIBwMwP8PVfNnR8HlkuMAAAAASUVORK5CYII=;" vertex="1" parent="1">
          <mxGeometry x="446.13" y="280" width="147.74" height="310" as="geometry" />
        </mxCell>
        <mxCell id="uRrWmLtxYyDdxlRz5IdK-732" value="Silver Stage" style="rounded=1;absoluteArcSize=1;arcSize=2;html=1;strokeColor=none;gradientColor=none;shadow=0;dashed=0;strokeColor=none;fontSize=12;fontColor=#9E9E9E;align=left;verticalAlign=top;spacing=10;spacingTop=-4;fillColor=#E1F5FE;" vertex="1" parent="1">
          <mxGeometry x="660" y="240" width="160" height="370" as="geometry" />
        </mxCell>
        <mxCell id="uRrWmLtxYyDdxlRz5IdK-733" value="" style="shape=image;verticalLabelPosition=bottom;labelBackgroundColor=default;verticalAlign=top;aspect=fixed;imageAspect=0;image=data:image/png,iVBORw0KGgoAAAANSUhEUgAAAR4AAAKQCAYAAABJmxXjAAAAAXNSR0IArs4c6QAAAARnQU1BAACxjwv8YQUAAAAJcEhZcwAADsMAAA7DAcdvqGQAAIY+SURBVHhe7b0HfBzXdfb9gOggQYAgCVJsuyBICZKhZhXLagYkSlqKtmxFkJU4xY6BL2H8Mq6A8dr+HMc1xge4JKYT2AGd14ry2rIhW8UUVhJlQL3YahRkgQXELnsB0Xvb7547d3ZnZmcXizZo56/fFXdnZu+U3Xlwz7l37hMXEIBhGMZBlqh/GYZhHIOFh2EYx2HhYRjGcVh4GIZxHBYehmEch4WHYRjHYeFhGMZxWHgYhnEcFh6GYRyHhYdhGMdh4WEYxnFYeBiGcRwWHoZhHIeFh2EYx2HhYRjGcVh4GIZxHBYehmEcZ1pnIIz74ZvqFcMwc5XAZ69Qr2YPbvEwDOM4LDwMwzjOjIVagc9mqVcMw8w2cT9sU6841GIYZpHCwsMwjOOw8DAM4zgsPAzDOA4LD8MwjsPCwzCM47DwMAzjODyOx4ZjPWN46eQIxujSxMWppbHz/rUJWLdsCYbGAliaMPHPM8x0M9fG8bDwWOgYDOCXB4bw2Wf6MDQawGQuzu7CpbgrN1G+3igEiGFmGx5AOMf5tzcG8I1X+ictOsTXXurDT/YP4oK0mWztvIyyOBe27zmu3s8mx7Fnuwtx238Jv1oynfj3/I1oeP4N9sxE5cyswMJj4bxo8ZzpG5u06BDnBwLoHBpDwhIOsyZEw7eFwHwbDeots3Bh4bFAeZ305ARcsnZZxLJ6WRKWJsXbrqOSkZKgalssbEBxnR+Buj+HSy2ZDP7mA+qVGVfx/QgE7kfxVCpn5hQsPDasWpqE692ZEcvGzBRkpCbgOleG7Xr6PMMwkWHhmSRjIhYbGB3Ter4miv+X2B7nEmGFXkL5Cy2fYRNuqM/Y5nSs9UXKtchQxrCdzX60/UfYRn6ejlXldGh92ctihXovX4doKBPL5LEYtpfFmq/R8lXukmfE65+iUG2nn2vEayIIP177XFDoWLR9Bbe3u1ZRvh9memDhmSSUvkmOXyJ+lBPM49DN6y5Hfr0ITQJa8dVcpFZOgtovI24nUK3qCgQeRKm3HG7LjSpv0MIDqPGF9ltfqlZKNHFwl1yE+mBddGy5an2I2p03oKlcbVN5nVoaicexM+7L4gBDddaXPoMStwtlwQO8DpVyXx8Qr/8uuP+64g3aalsiHS8sdRuhY3kaO4Lbq2tlFJ/p/n4YW1h4bGjrH8brx7sillNdg+geHMVbJ7rxhs16+nwkGvb+FPBUYFeBWiBwFX9l0vkLr1fceKbciriJfRXwiJZDRbB1dBz7akVrovRTpv0UVH4F+mH493wZJd4PCGEKLSNcxX9ueg88A2/+g6g0L4yM9xlxE5vzMwWVL6DGA1RVRGiZxUDk471fCmpVoU0LSR6LcfvrsIvEzvs49qkDme7vh7GHhceG5LhRrIzvj1hS44aRiMjb0OcjkZNn/qFPmdJbLcIgcN2IInFje5t04dmA3HzxT9XTtuFKJGGKROmO8Vo5Rv4OO8IOcAO2FdF1aEaLWjIx1PF67sQ2m+Mt2PF34v8/xd6wkw0/FlcutWaeQZM6kGn/fhhbWHhsKFifgCfvTo9Y/vriZLw3Ox5PfMR+PX0+Eq7iT6FU/NApHJiO3IEnL0o40ugLtigKdmmtIC1/YmkN+J9HrXecuoJ8AHk56mUseHIRefMDaJ7U+R9Hkzhe5Lvte9FycsW52mB3LJZtp/v7Yexh4ZkkI2OQY3VGJ5xc1vIZARkO6T9w+8TptOL6c9TRfuu11oAUoEhJ6EXNLH0/iwwWHitCR2JJGFNyOSVhCSY9RNAiBKF8zMQIhVNGorQICr6iEqYUUpRjN91RLjcoErOva4pECKdamqgH6yLkTip3sgF51EwxtOhMtDTDO9GWmZVp+n4Ye1h4LFy9NhHrl8XhlweHIpbG1hGc6wcebh7Crw4Nh62nz1+VHeMgwoJbRdM+dNNrOQeb/IS8mWywy9s0PI0q8U+0XIxr250yxGhspv1ehx10EBFzQFPBLtfyMvbKA7TJT8UUfuk5IvtcjJYgts//TBjL98NMDyw8Fj5+cRJuWp+ALz7XF7G8emYUHYNjtuuo3LwhEZ+4JFnVaKahzJI3sIpEwcfDe3xoXEmhuJlsEWGTMWTSty019jxR17Ole33f47JVULRNy+sUVD4objAKwczbNZRNPcyoKjSeMx3LfeKc/w71lq54TQxDid5ouIq/I64ThUKW89rzNyis+gBqqic3inrc74eZFlh4bNi2KREvfHT5pAt9PjJ63kAVNbYmJBL0+IE+Fkdt425Gucw5hOOpeQG+oscN25YDYln4+JrQwDwq2vgXYzc35Taom9u8XWFjtORwDHgq4PPdidrgOd+AEohlAXM3uESEN9UiBKwq1LaN/gCs9phGfel45zVRxvt+mOmAp8VgZgwaLVzYKERmis9wMVOHp8VgGGbRw8LDMIzjsPAwDOM4LDzMjFFQ6Z/yHD3MwoSFh2EYx2HhYRjGcVh4GIZxHBYehmEcZ8YGEDIMMzfhAYQMwyxKZvCRidlXVYZhNObavcktHoZhHIeFh2EYx2HhYRjGcVh4GIZxHBYehmEch4WHYRjHYeFhGMZxWHgYhnEcFh6GYRyHhYdhGMdx7JGJprYB/Hh/q3x979YVuHn9UoyKPZ/tG8ZvD3fi3fYBuY6478IVuGxVCk72DAc/Eyf+I5WMF/8bHgP+rWC9XD4xGlAWVyh9koBS1AcqbQzlGGbhsSgfmfjlwQ7UCnH53ZEu/HT/eewnG05B7/CoFJ03xfszvSOyHG4fxGNHOrG/dUAITACtfSNa6Sf3zhEc6RzEnkZNjBiGmZ84IjxfePYEfnOoAx/anIHMlHi1FOgRTZf7323DrZvScb/HhZ/fsQlVN6/Hcyd6se9oNy5dlYpf3OmW5QGxfvctG/CZK7KRl5WiamAYZj7iiPD8WgjHf92+CV+8ajXWpoVcNteI17/5UA4+mLMcyfFxSFwSh7VLE5AkXlsJiP/qj3XjC8+dwE9u3aiWMgwzH3FEeC5fnYqLRCslKzUBRk2h1+uWJmJp4hLQ4mM9w/jH+uNYJba7RLVqhkS49aUXTuKTTx7F71q6cPP6ZchZniTXhUM5nDjEmcp2sxe2Df492ye0PcMwU8MR4SFhSbFpxeiMjAFvnOvH/X9qw8GOIZl4vjI7VVsZADKT46UYpcYvQfvgKF453aetM+Lfg+3BxPEEEJ/bWeJVb4DS+rop+G4zDBMLjghPJKg7bWA0gKb2fjzc3InfHO4ULZ1kuNKTZP6HxOidtgHc7lqOv7o4CxvF8l8f7MBPG89rFRho2F0CXT5K60VgFtCKryZfLbXH+DlPjY/N+RnGAWZVeEZEGNXSOYivvHAKr5/pw9++Jwt/EK2Zv33qGG588FBY+dpLp9Anmkd7RcgVjaq9DeoV4CqujNyCaShDod5E8tSgmps6DOMIsyo8bQOj+JIQHeql+vSVq3H5qlSc6RtB5+CIFJg80fp5+K4cWW5zpct8D0GCZaVgR6l6JagqjCFfU4XCkOqgprqYHS8ZxiEcER6vvxsPihDpO6+ewWkhLHX+LjzwbhuOdw/hj6Kl8/rZfnh9tE27DLFIVwo2LMNdmzPw4sleWa5cnYp7tmaqGm0oqETAVyMkxIgXJe44lIUaQAY88AQ39qJ2H2eUGcYpHBGels4hOXL5VSEy+atS5MDAP7UNYkysu2HdUtEyAd4+3y8HEtIygoTnerHun18+LcvK1AQUbclQayPgKkadyu3UGxtAhtArRD7Kq0NC5S3Zyb1ZDOMQjgjPP1y2El+7bi2evDs3WL5zwwW4Zk0aHrzTHVz2H7duRPISrfeLxIlCqrSEJbKQmAzSMxYRaCgzh1Wm0CsSQqiqa4LSg5Kde8DawzAzz6zmeKLxs3fa8D9N7Xj+o1tl8XcPy5ZPZLSwKjgex5i/2RW5q8pVXI2Q9pRgJzd7GGbGmbPCc6p3GM+e6MEDTW1YnZaAwZEx+LqG1NpYoQdBxxuX40Jxeah15C1xYzuLD8PMKHNWeIhhEVqdHxi17cWyUlAZGrsTKtanzwtQabeOEtOGz9VxtzrDzChzSngou0MDnPUxzltXJOOb718rl3XTXBiKKIOgGYaZB8wp4UkQgrJ2aSKSE7TDosGEN/zqsCwPHeqQy0h0sg0PmjIMM/9g73SGWQSwdzrDMIseFh6GYRyHhYdhGMdh4WEYxnFYeBiGcRwWHoZhHGfGutMZhpmbzIXudB7HwzCLAB7HwzDMooeFh2EYx2HhYRjGcVh4GIZxHBYehmEch4WHYRjHYeFhGMZxWHgYhnEcFh6GYRyHhYdhGMdx7JEJ8kl/7UyffE1e6RvTE0E77hsew8GOQbT2jch1xMUrU5CdloCeobHgZ8htlOZ4p3/JdGLbpnS5nGGY8VmUj0z0jYzhpVO9uPORI7jj4WY80twpl5Nb6IH2AXz1xVP48GNHZLnr0SNy/VkhRGRp/JHHWrTyaAvu+Z0P94pyx2+b5efN+LFnexzitsfqBtqAMqFi7KHFMM7jiPDc+OAhfPvVM7jdlY7lSfFqKXC+fwSlz51C4cZlePqeLbL8/A4XHm/pwsOHO0AWx8/ft1WWZ+7dgif/LBc1t23C6lR2mWCY+YwjwvORLZm478JMfOqyVUI0EtRSIF2I0McvXoHtruVSZK7KTsP165ZKD61WEZqlJy3BlatTZblClDERFT59rBvlV2erGoy4UFwXQKCuWLxiGGYu44jw/MNlK/GJ92TJlk16YmiXy8Trj1+ShUtWpiBhSZwQnFE8fbRbbpOtBGo0ADzh78ZDhzvlv0c6h/AXF2XKdQzDzE8cER5q5WQYQiwrlGSmVs5rZ/pR9txJ5GQk4crsVLluaHQM//rGOfzTS6fw6uk+3CLEa9g2Ha5yPGUN6r0RLZ8TFyzbwakdhpk9HBGe8RgYCeB/3m3D5589gR2bM2Qr6L0i7CJSEpbgZ7dtxL57tuDuLRn4tzfPSSGKGf8ebI8rRFVpfcgf3VeEWrdYpjZhGMZZZlV4RsYCON4zjO+/fhaviNbMX1y0Ap8SYRl1tycrg3T6P9kab1iWiNs2peMr167Fs8d75LrxEa2gnSXwemrgqyxQywSuYtTVl6o3DMM4zawKT48Irx4QLZ2WriG8Z2UKPnphJq4SIRbleCi3Q/mc6v2tONevjfEhAbrugjSc7B2W78fFvw+1XsBTtC084VywAyw9DDM7OCI81KohcXnrXD/6haLQ+2YhKmf7hvHjt1qRlhCHS1elSiF6q3UAb4jtjncPyTE+33z1DBpEC4eWUauIynohQDHR0gShO8jP5X4uhplLOCI8lJf58guncOtDh3FQiMkP3jiLLzx7Ar6uYYwEAqJVcx53P9Yix/vo5YGmdmxMT8LN65fhs8+ckMs8v23Gt185g6+8b42qmWGY+Ygjj0xQy4USyDQaWWdVWgI2CWF553w/BsU6K7mZychOi0dL57AUq6b2QSQImXz/BUtFWJaKlSnWXjLq1XKjJL8eAT2fQ4lldwny6wMwpngkah1qfKgr5hYRs7BZlI9MXLQiBZevTsVtrvRgoUGBJB7UojEu18vmjCQsS4xH/soUOeKZ8j/3bl0htw8XnQi4cpEv/qnaG97F7t9XK8MwhmGcZ1aTy7FAD4XSCOetogVEYjQxClBJvVdVheZnshrK4K4FPOotwzDOMueFZ8oUVCIgxMdb4g4NIKzIg6+uXLaGGIZxHnYSZZhFwKLM8TAMwxhh4WEYxnFYeBiGcRwWHoZhHIeFh2EYx2HhYRjGcVh4GIZxHBYehmEch4WHYRjHYeFhGMZxWHgYhnEcFh6GYRyHhYdhGMdh4WEYxnFYeGxoKItD3PY9mAuef/4922fOgFB6jsWZJ0ljGAdwTHgGRsaku8Sx7mH5b9tAaP7l8wOjcrleaFsdmiyI5mo+1j0k153qHZbWN8xE0JxUbU1W5xINZUJky8TRMgsdx4TntbP9uKX2MG769SFse+gwKv54Vq0BvvbSKdzwq4O4Uayj8kexrc6gUJldDSdwy0PNuFms+/PH/dIWZ7HgKq5DIFCHKc1H729Go3ppgowNA4E5M9m9v9n2KJkFiCPC8/EnjuIbr5yRBn1HRauFPLUeOtyJXfXHZWvnfD+1aIZxtEusF+WfXjot17/d2o+/8frxzPEe8dlB+MU68tfa+fQxVTPDMPMRR4TnFwfa8ftj3XLi9o9uzcAlWSlo7hjEo0c60TeshVWXrUrFrstXyXK4Y0CKzuneEfz6UIds4dy4bin+l1j38YtXSFsce8jiRs2rrEowf6HyGeHhhvqMbU7HWl+kXEuU/eqo/Ru3CR2LFgrRZ7ScDq3XQg7tvSX8kCGJdiyh7bVi3a/MV7lLpKNGVaHaTj/XiNeE0I7JWHec3YaGOqzHYl+vHdq+3CXyKFGoPk/nIo8/QvhlWjeBaxLCeo4zlEtjwnBEeIbHAkhNiMM1a9Lwz9etxcfyMuFebhaP/FUp2HnZKlk2LAsXFrK2+VHhhmAJh35EyldLhA+y+GqmMKF7LXbG7QSqVV2i1Jd6UeK23lDj71feCMrfy7hNnlofpHYn3E3laptKWK3ArNTujMNOVIfq1Ce1NxxgQaW2L3LUKNX3X1ccbulsRN7EhWis8YXqDtSjtKowYtK9sWK76Vh8NR4pdLGJTwEq1WfEUaJe1UEhYMEOMpquQrhDUQP2VgGeml2m6xTLNZFIwSxEVWnoexOXyeb7ZWYCx3I8JDpP37MFF65IweeuzJYCZKTO14V7H/fLsl+0diZMw17x8/SgZpfhZ+gqRuVk8xderxAKc26loNIHujeqKgw333j7FT/wneIvuUfcxCZTQbFNsUVZvN581Ic5D0bCC68QO1N+pqBSu3mrKqbwl1sIaaG4o8UNac79CHEgAfOWYKdN5V4Uodqwvau4XHrT23maTQjlcR9Wj7ruRduMxxjrNREt1J2iFeipgc9wvV3F1eHfLzMjOCY8b57rx4cfOwLPw8344KNH8L3Xz6k1GoUbluGnt26Q5eKsZLU0xJn+EekmSuWAKGHk5ImfoRe1+6brJ1OKHWEa4MK2IvHL9DahRS0Zb7+acWApyk03cQRKd4zbyjFSGn6AcG0rksfTFDzACSJvaPu6ReWQp1+7L+zG9BRts7SicpAntkVj8xRv4gLskmqwV0hiiAbZ3CmCSXcEMV0T/z7UiqiutNza8rP5fpkZwTHhaRsYRcOxHmwWIVbn4KjM4RihLvZ9R7tl6RgcQ5xarkM5ou+9dlYrFtGSiBZEufjTqPtnRY7rY8STJ26dSDSiWa8+6n792Ee/8Kh1hfDkxbKVjgfRNm8MHuDE0HqWItXtQm6E2DU/1yqskbedKJpwGMMtLcwKF44Yr0lLk5AhoWV6zstQtDwTM9M4JjxZKfG4w5WO0quycXduBlyWHM+rp/vw9ZdPy5KSsAQb0xOxMjUBhRuXIT1pCV482YuaxvN4oKld+q3bIfMZAS0c0oXAiXh9tva7aFAtrWC4JVtldi3SiRHMeYWV8fNrzNRwRHjShJBcf8FSPPbhzdiSmYwPbc7Exy5agVSxXNyjSBb/0jZ6+cJ7s8U2GbgyOxWP3rUZ78lKCa7buCwR/3X7JlWzHS4U19GPp17LDUw2Xo/Q3G5por+I+Qj7A2+7X/VXf0aa7hHCKfXXPLwFEhsu7YAjhGp+yAZRfq6lpTHTqBBIhVsyzLINS2O8JjI8nnyrkJk6jgjP8/dtxQ8+sF69AzZnJMqu8d98MAfZolVDiWbaRi8f2rwcK5LjZbhFYkNCo6/7zQfd2CTEZ3wKIDtE9JvelSt7msKTnS2QWhJG5J6U6LkY834j98pMHbvErbwpI7QGYrrRIiVzCT03MtWmRlQMYayBULilwqwIxxDTNYmSq2IcQjQtpw384I1gcZz60oCnxqfeEPUBcQMFqD2t46vxBABPILSZLyDCI3oAIwBPjXinUV+qltluWypqNhDDfvX6DIvk50Lvtc+Y69HQjjl8n9rxmT+jbWvZj0Qdu3WFryYg7r/w7VX9452XJFIdAnnehus6LlHqIqg+j0eco12dE70m+vaWFbR9pP3PZ2b13rTBsRyPE+j5Fa2ocSim7tK64FgcbRs3msq13EwY1NXqK0KtYdsSiGU28f94+6UckPhBm5OZhY1RE6Hj40GNz4ei2tC+3SUQywLmbnuJCAOra+ChcTi07XgPwBZUyrE/4kKFjtfmvKYdVzGqDdfJ2kFArUev12vTg6YzgWuizjF4TfTta4tgHBnBzAxxpD7q9ZSZa8bwCxYa4CeEq8Y3xWe45hvRznuxXpMYmWv35oJq8TALGT/2VFByp5yFZQHAwsPMPPIRjFA4Yy2xjLny79mJEq9lhDgzb2HhYWYeyqcEx8iEl2jTcugPfGq5Gg6jFgqc42GYRQDneBiGWfSw8DAM4zgsPAzDOA4LD8MwjsPCwzCM47DwMAzjOCw8DMM4DgsPwzCOw8LDMIzjsPAwDOM4LDwMwziOY89qkUXxI82d8vXNG5ZK59AxseeOwVE8f6JHWhvrFGxchs0ZSTjfPxr8TFycUEnxvyXi3xHxQZo6dUEQ8zwy5FaqjANncjIuZkGyKJ/VIr/zJ/xd+NrLp/G5Z0/g2eO9cvnA6BieP9mDXxzskA4SVH781jlpbXykcwgne4fxs3fOq9KGn4n1P9nfis8/c0J+fl4hnSvZIpdhCEeE58YHD+Hbr57B7a50LE+KV0s1r60vCCEiM7+ni3Jl+fkdLjze0oWHD3fg6uzU4CTvz9y7BU/+WS5qbtuE1WkJqoZ5hHI6YBjGIeH5ybaN+OEH1ktPrTUG0ViVEo+fCSHZkUOuEglSlDalJyJehFQjIgyLF3GVbmtD3ut/PNuHb7xyGv9qcKxgGGb+4YjwfFAIy62b0qU1cUp8yCOUjPtuWr8M65clytzNuf4R/Pv+81ghBMmtDP+GxwL4ydvn8d0/nEWdr1uK082ihRQO5UDiNHN+GdbYzHBnmQkv8sx3DSgzbCeLnUOf2o+2S23CKr2ENlfHRX7kos0TnGjepr6GstDnzXXYoeq1nbg92jorhusWvD7mkNB6XObrpq6V7cFq60zbW76buLgy6ZVlQh6HdgzmfVtCVcP1NxPp/K3fK4e+s4UjwpOZHI9liZF3NRoIwN89jDoRYv3iQDsuX5WKK1enynWUgH5TtHReOd2HM73DWCtaTP6uIbnOFnIN2AlUq9ntyN2BXCC2bxfCUJEHn2V52I9W/uiVo4LaNkAmfVRvhBu5sWI7dqI6uL3uKKHVrYz+6smtilwQVJ2WBHHtzjhU5IX2SZtXFUa7MXSf71qE2bZH9AaPQmMFtgevj57o1m7gwqpS1KvjCrpPBC+c8hGzeJtLpOOnB0W6wTldW20qQcN5VqEwggDQNdm7Q+1XbkvCPUmxkCJViKrS+mB92qmMJ/DMjCC+gGljPO+e3uHRwJUPNAV+9MY5tSQQGB0bC7QNjAT+5dXTgQ3/2Rj4bMPxwMH2AbXWzK8OtgdWV78d+MSTR9USIxF8r3Q/KJNHFmHnExXBO4pQnk8mrym1LNznyaYe6eNkPQZBBH+n8P3ZeGPZHZOAvKHCr0Mk9OsWfmxaPTEsV+dgPgVVb/DaRLq2ka6VzbbW81Xvw6oM27f1vU6k5QuP8e5Np3GkxRMJyuP4uobxlRdOyZ6vb1x/AT575WpsSjf7qutsE+HaAx4X/nBa6xWzxZMHs11VDvLErxOeIuh/eDXUciPyL7S4Ze1cKqO4T4b7PKm6G5ttW0h2hO1TOZ967b2ENVzFKBd3rfmY/Nin2X1GcTu1Iez66PWEuzporp4Gu2A791Frq0u1fsIna1ctJptrNalrYkfEFqDeapwJi2kmGrMqPJ2Do/j+62dBaR/KA90uhGXT8iQkiwWU29nfOoAvPHsSx3u0MT7JS+Jk2NY+MCrf2xLJ1zsGv2+/NAb3RDDaUz7oNoT7lEfe1h67fdoIow3SItkYbsmbbBJuDGHXR1k7WwzvZBHhEq0KUYBdoulgDLf8+2rFNiHbYO3aGs0UQ0Wmv8KY/DUJQ/UomgwVVXGXmM+EcQZHhOf1s/14/mQvfn2wA+1CbF4724dnTvTiVO8wHm7uRGv/CLqHx/Cc2OZBsc0vRWk8PyCTzb9r6cSv1LJfHGxHna8L16xNUzUzWmvDi1qlPPKGD2u9TAFDTsRajGmqkLc5vYvU6jLkuKylbgL5qEkiQjL7fdu4wzIziyPC81hLF+7/Uxu++tIpmUh++lg39jSel4JD3esvnOrFd/9wBl987kSwNBzrwcZlifC4l8sBhJ+uP44vPX9KDi6kcGwmcMlmiiGEMOGH/KMdQ8vJWbRQRQu3tBs+ssXvRJhguKhCURlu6aGNIVSKfm1nmJw8IXl0KjGdCeMAjgjPpy9fie/ccAFe+OiFwfK9m9fhuguW4tG7NpuW6+WT78lCTkYSvnrtGtx/hwuVN63DDwvWy+3pczOCXa5Cx+Zmmjgzc+MFw60GLcwK9iJNiSi9Zrao7UW4tUe2umrMHuTRru1kUTmf8DpVmKgTJT/HzA6OCM+KlASsSk3AxvTEYFkt3tOYHhrDY1yul4zkeCQuiZOfo/E/t21Kxy0btDE/xrFA00sBKrV+7PCxKpTXEGHHpB+TUjfejPzVLdiFGo8ItyrEDT+NFr+u4nIZxpW4LWNtqGvapg9aC7caUWvb6tLzQNZrS73skx1Po9dZYfg8DQEolJ0EIVwolln4Ergtx03jr7g73XlmNbkcK6kJS7BOCM7apYlqyQxCrpf6WJVgElKN65nSw5maqNHYIVnntP7atdaG1+udYovMijjmgE+IGo21CSVk49y1KLJLXsuWhVcch32ry1VcJ8czBa+BKoWYvFhSndr4Hr0+N5rK6ZjVBjrqe/VYkuXu2iJzy4xxhLgAZdemCXYSnT3oL7e7JB/1nChlbGAnUWYGaMDuEhHe1Oxi0WHmBSw8C4CGMspplKLcGq+EPRdlKZzcYGYJFp55jP4ApfYslU2I5SpGnWm8iqXwhGLMLMHCM48pqNRFhPM6zPyChYdhGMdh4WEYxnFYeBiGcRwWHoZhHIeFh2EYx2HhYRjGcVh4GIZxHBYehmEcZ9aEh55MJSvitr4RHO8YxJHz/Th4Tiv0+lTXEDoHRhCYtkdYGYaZK8za0+mjYq/t/SN46kA73jjRjZa2fnSI98TqZUnYujIV17qW45YtmdJ/K26mpuBhmEXAXHs6fVaE52zPkBCbXjx9qF22bkhw+ofHMExqJEiKj0Na0hKsWpqELatScefFWcjLTkNm6jy0LmaYOcCinhaDZOWcEJ1nmzvxSOM5vOLvwtH2QSk8YyLsSk1cgqWikMMEhWDNQpRe8HWhdn8r/nCsG+19mtuEPRNxz4zEdNQxGdR++WlxZpHgmPCQ6AyPjMmWzpMH2/Hq0W70Do1iTG9wiVgqPSUBN5CPumrZjAoB6uwfxjPNHaJ11IGms/3SWZQJRz6pzsLFzBMcEx4Ska6hMTz6znkcONunloboHQESEpPx/97uRu5Kzb5Yh6LBV492oV4IUJ8IyezFR1kFT8kmZTrqmA2UAwbDzBMcE57zvcN46kAbjnYMYEC0fCZKz+AIDpIflxCfyXyeYZi5g2PC0zkwij+I8Kqrf0S2fiYKfeScEK83T/RgyFZ4ouVJ1Dp95j0qtnkc+zpkGCO3b0DZuHWMR/ixRI6QLPujYt24oUwsd0MaYgYnMre4NoTNRGhxjWAYh3FMeKjX6kjbAIZUz9Vk6B4Yga99QI7/iRl504kbM9/oiOlDDUrgntANWIudcXuxI1hHPUrJLmVC4kNCIo5F7N1nqAeFSjgs0JSmMLpfKpcEkz0MuSdIJwjxOuj6WRdybSBhcpcA5JKh6qkvJdeIyVrKMMzUcUx4hsfG0NY3LETD3Fqh4TkkI6mJ8Vi5NEG+j8SgEK32vpFQQnpcROtiZ4k0l/OZpvmkXI4QDogbMNaErNeL/HrjTH/K0ylmwztNSGhu5HpTDqkAlSQo6p0RmmHQfNjFkPZQMRvTCaEjY3IhSHWG+ZgLKuncvSjZze0eZnZwTHjsIJFJjF+C4UACbs7NxDduW48k8X7aUO6f9pa+mvUvOV/GdvuVwmpZNTFb3gbsJZe5MD9xgXK6jIUc8hX2NiG2Xe4VQudBTZhxlDr3WO2JGWaacUx4yBU0Ky0BCUuWQBqBxi1BcnIyPveBDajY4cLmrBR8/7lTqPj9UfhESGZHsvjgClHHkrgYhzG3NAlZILtz+z4qeRPHiicPOeplEOXJHRP+ZlDHkycvrJZxMOd53HYxWQT8sqvLaHYXKtQQYpjZwjHhoVCKRiGvy0jCtZuW4+78VfjgJVlITliCgaERHGntxdMH28Uf8za0RhgoSON83CtShHjFKDzzGj0JrVxMVX7GF2aROR6ixeNTOSJrmXfDBpiFgmPCk5ESj2s2Lpctm/cJ4blLiE5hzjI89NZZfP+ZY6g/1IYEjKJnaNS214u0ZvXSRFyxfhmShFjFhGqRRPIrbyFnf7uWzEzgygUFZva0gA7FRMNulHg10TDmZybCxEJBhnEOx4RnpRCNW7dmihZOPJ461I6vPdmCzz/ajHfP9sker/FYlpyAC7PT8IFc7aHRmFC5E/tkrJZzsc//zAQ5kOkZu2ORuRgzWpiUD3OU6Mc+SlpFwpqzKdgBLY3FSWRmbuGY8MSLJsty0eop3JIpWj8JON09jMGRSKOQzVBOgsKzQiE6aYlLZOsnNlworq6Bh7q9Tb1XFMYUospTg+pJtiYmToRjoe7+wkZ4LBGU1lqpQoWhz7uhzL7bnereJhXWmnRWPW/WLnhBQxl3pzOzh2PCQ1pBPViXXpCGmzdn4Ip1S7E0KT5qopjEKiM1UbZyqLWUl506AdFRSDfNepQGB9dRUeN6nM5x0LGosTjBY3E3oTxQjSK1SZCCSpnP8Za4g9tW5Pki5nhcxdWo8dD4HNo2JCqu4joE6ktN9VApRHlorA/DOMwCmhaDWjFKUNial2FMLOppMXSylyVh24Ur8MVbNuGey7Jx5fp0rMtIFq2beFk2ZaXg/a4M/OVVa/ClWzfJZPT4c/FoCdqJd1czDOM0s9LiIWin8on1gVH0DY1iaHQM+iNYlDum7ndq9SxPThChgbY8Gv492+EuyUf9rPiIq9ZWxLxv6SwdF8NozLUWz6wJz7RAiVl3iRwkyDc3w0SGQ63pRCaO9QFxLDoMM1+Y38LDMMy8hIWHYRjHYeFhGMZxWHgYhnEcFh6GYRyHhYdhGMdh4WEYxnFYeBiGcZxZEx4aLk0PhZ7qGsLBc/3StuaPx7tl2X+qF4db+6WdDU2bMX1jqxmGmQvMyiMTtEPyxmrtG8GTB9rwxvEeaVtDT6kTq5Ym4sLVabhmYzpuvXAFliYtkdOdTnRGDIZhNPiRCcEZ0cp54kA7vvWkHw/tP4e3TvbgXM8QBoZHZTndNSgti//n9TP4xpM+vOTrQnuEeZgZhpl/OCo81NI5LUTnqYPtePjtVrxzphdnu4fROzQq19PEYOmiUHjVNTCCE52DsjX04Jtn8aIQn1YRekVGTY4eq08Ws7BQbqn89c8PHBMePbx69Vg36g93YP+pHjkdhm7OFxCB1LLkRNx+0QoZahE0bUb34Iho/Wifeed0n1w2jdHhhJBWxvzLnhZoGpPJWUDPEFK4eDpYp3BMeEZGAzKnU/duGw6f71dLQ4hViE9Mwmc+sBGuFSlqqQYJzeui5fNMcwc6B0elSDmPH3L+dWZakA4fcwnlwcY4g2PCQ2ESJZKPdQ5gIAZXCSu9QyM41NqPZw53TurzDMPMHRwTHsrZvC7CrO6BUHg1ESjv09o7JEO0wdGJCI9ujGcokZr4Kk8Q2lY1vRvKxGs1w2BwovYYm+XG3IOsx1B/hLBNhiHG7az7UnVanSMkpnWGvJfl3IKftRyTbZ2E9dhtrqEMReVys/upaVt1HNLJlBw31DYTimAt5xIXVxbZhtp63KKY96WukXZAIddVywHJczPUEfE6MTHhmPDQZO6+9kE5xelk6RFh1tH2ARm2xYp/z07UFoWcOAPkOBFmdyOgH6i7BPn1+nbk2qks+AoqxXsfpMFDab1aXzchl4bGCiEme3cE6w7obhPWG1jcVDtri+DTtxOlvpRuCMPNFcUvzL+vVtw+pSg3HhztZydQrerT3Su2bxfHVJEX3Je+3HpppBCKG7M0eG3EtQCJht0NX4udcXuxQ9UZvN76earJ2+rJ8MtTE9x3zPPzq+8JBndVsQsUBmeiNCIEsBCo17cThc6xqtAo5C4U11Ed8oBCrqvBA9KEqbCKZrhU68R3J74QzvdNAedyPOIL6xStHqtLqPjjIXM2mWRPnJUsXkXO3wwJwekULSbx1asl40P2LmYnTt1raq/ppmmQ7n412GW4AVzFldNmAeOFEBPj3UU3IP3YxU2523ggtNxiu1OwS4gUqhDy5dN9tGqxz6xamuFf6Q7LbIzipjHU6Soul0Z/XrFpTXX4cpMBIAmhaOp5xI0eOnzlEWbx/ZKISvPrjbNBqusddqyTgYREfE9C/E3fqbICCqcAlZaZKbVz9KI2xoOhP1yao6uhHvEdVcvfUAUnoyeJY8JjB0lM0pIlGA7E46bcTHzjtnVISpj5xLFmltcIo7NxjmbzOQ03hz22jqXK6TOSxXIQZX9s3M72BvLvg6Y7ZtkJt2nWXE3FQWGb6aDUcgO2LShCb3WF+SOXwrr7abNSVo6rYecncG0rknbV46McXWM6GF3Iwz3ItP2xPfRkcUx4kuLJJytRjkCOJ22JW4LklBT80x1u/OSezXCtSMbnHzuKr+w9Ih+XsIOsi1emJUQ1AbTHkueR8bwZ/UbWYvzp71bNN3sRm7C7Ccx5nsIwi2P6a76DGkyGcEuKhKXVJsnPDRc9ItJyA1rvk24UaCwRXDXsvOiVh/1U0WydPZiwg5EpzxPNDcSK8rQ3mUGqYhvaMbHimPCQ9fBFq9OwaUUKCkTr5uNXr8HHrlglRyQfONuL/Se68cdjXXi+pSv46ISV9OR4bF6ZIh1JY0VLCiqjPz1Gl/G8FWqWa/E7/SXTBChK0nKmUDeJZtWjjpfyJGq1kQJNeVQrTfvrPDNe8Ib8hrXMZfNEPQld2BjK3ei5uokQzOuFl7l8+nMZx4QnIzUB125Kx6bMZFyYnYar1i/F1pVJeOydVtS8cgov+zqQgFH0DY9iVHyhVqiltHZ5Et67Pl06jcaE+OFVyJSA+JHE+gvRnSukONnkMCaJbTjlbxYBHzUS9D/homWmHbD4UcfgmiFDNRVuyTDLgyJz7DRlZAhqCUtnCy1ki4DNOJyG3aJVIhPYE+sICKFCz8bmYKuSmR4cE56VaYko3JqJpckJchTyt58+ii+JsOrAuf6YxuVQa4daTDflZiBFtJ5iQv4Yw5vmMpE8Hir/EhYGTfJHGLkHyigWEdxQVW4jnFC41SDDLGvOZurouYxYk7ETwtskzngCyJDN/ljCv1O/NuDTGk6qPJg91pxNpCQ+M1UcEx5qo9CzWNuE+FCupz1COGUHhR7vd2fgFvHZZBFmxZzhUT/UEkO3EeVObFI8IsKx5HXCEpn6j3CCN4uOtQtfhFRu2VtUbfhrrBKfJbtDIR6FC3YHrJA9XuLGqBB3U2m5uTdsWhAtwHISt7BudsqbTT4UlWHiRFtSqjfJeizyO230iO/aiAuygWTqeWpAWaTcTIREfyj3ZzlX+l64O33SOCc8Qi0oXLp4TZr0TX+/a7loxVCiWG1gA22/QoRo2/OypGBtXZUm64kZCpsoZDIkB91N5RFyPHpeRxWVFzD3gFejxqMnWieWgKZwrx6GJKUaF2Pu6qcxJZTPMSRz3U0oj5DjkcjeJS+83vDepOmioFIf/6KOSRY3aot2jR8ORqKgUo1P0uqL9R6m4RHWY5HfaXWR2iJEQSXlc4zfawXyfJFyPAWoFL8LEjW5bfCAKPdHn7Ek2N21KArL4jOxEhegDNk0EeucH/T4BD3wSc9e0WMQ9L5ncESO0yGo94pCK8rpUHhFLR0SneUp8XL9vIL+MqqBiTOTiKSWh0qec6aTiQDPxyOgUOvGnOXYddN6/Nmlq/G+Tely4q+NmSmy5GWn4abNGbjv8mz8o9iGEsrzUnScoGG3NsCN//oy84hZER6CQiwarXzHRSvwmZs34Ls7NuPf79kiy7fvzMHO69fjRiE+yaL1I1q2cxPT+JDwMvPP8+gjecMHuM079K7vSIXzKQuKWRMe+jGR+KQlLZF5nNXLEpG9LEkWahFliBZOauIEEsmzgXyGyzyuw1jM+ZvpRH8IsxBV1PW+EEIsfRhDpMJh5IJiVnI8DMM4C+d4GIZZ9LDwMAzjOCw8DMM4DgsPwzCOw8LDMIzjsPAwDOM4LDwMwzgOCw/DMI4za8JDFjeDIwH42gbwxokePHekE08f6pDl+ZZO7D/VKy2M6bnRaRvhyDDMnGBWRi6Tww35pZ/sGkT9YRKZbhxrH5QuoQTNq7x5Zap8OLRgSyayxHt6Yj3aFBoMw0SGRy4LTncP4okDbfj2vqOofess9p/sxbneYQwIMaJyqmsIr/q78MBrp/H1J3x4UbSA2vqG1acZhpnvOCo8FF4dF+HT4++24bdvt+LI+X7pMDo4MiadJ5YnxyMzJV4e1IBY1tY3goPn+vDA62fQ0NyBsz2LQHzkE+/T53IRcvdkmLmDY8JD8ZxozOBFX5fM55CgkODocd5oIA5pKUm4+9LVyE5PkstIqCgkazzVi2eaO/HGiW6MjNHTynI14wBSuHhKCmaacUx4BofHcFK0dvYdbEdL24BaGqJfiFJ8QiI+ed0F2JCRrJaG2H+yBy+0dKG1d2RS3uvMZFATpjPMNOOY8JzvG8aTB9pwrGNAhlEThWxvDp3rlyHXwAgLD8PMZxwTnu7BUbwlQqbeIRFeTaLFQh9p6x8WYVePCNmiCZfFNTRs9jqb9XY5EEOuRTMF1Euk/Mt4+xWEzbI3vYaB5uOMNgNiDNdAnr9y3QxOlm859xk+H2bh4pjw9ItQ62j7AIbVhO6ToVeI14nOIZnnsUXeCBbXUHIIyFPrBWTCX1vkM6yvR6nVesZA7c447N2hbxtQzgh2N2D0/cob2V0C1IT2XV9KzgXTkUjWhKSwyuj46UNRrdvWyiemayBnV1SODEEnTYMx3oyeD7PQcUx4yB2UWj2jY+bWCo3NGUOcnPL00rWp4n3kwTrDQnCoDvqRhyNuvp3KOdI0TaYLxcWh92SPYp6StAC76O6q2mvz19oLrxATY3XSx0osD5nKxbJffW7ketO+CyrJtkYImcH3azKQkMgJ331G91HdKieciV0DO2b2fJiFj2PCQ91XJCnUJNeh18uS4pGQkIgbN2ei9Oa1UlQiJY/poxF1STlETsbUTrPGtTeXCxn6KVy5oK2DDqOx7FeaA9o5QWhOoFOzyNU802HrIqrqj4Fo1yCMGT0fZjHgmPCQ3zlN6E4mfdL6PG4JUpKT8a07N+P++7ZgY0YSimuP4AuPNOPguX7tQxbIRZQmgrdrFel2wFb3X3ssOQ67eERiV5/y01bEsl+/7BoyGsuFSsRdx4xmexxm1TsusV6DcGb2fJjFgGPCQ/bFF2enIScrBdsvXolP37gef/e+NWg624cnms7jxZZ2NJ/rxVsne9CjHp2wQs4TW1elInEKz05oCVhLPsbWWXS6oVBI7c9a6mbAejgK03MN5s75MPMPx4QnMzVB+p+vz0hGtmj5rFmWgNSEgAhZzuNXb53DWye6EY8x9I+MyXyQlUTRTFqXkYKrNqQjOTH8sLVQwWq6b8G/BxUyNSFujmmyS4llvzEd26Qxt8DM+MPH4UzDNZjZ82EWA44Jz4o0yuNkSAF65Wg3fvjccXz36aM4cn5AjmAejxWpibh4TSre51ouTf7CUKb7VXujJDZbmsTtEh4WNeydQnwQy35j2WbSuCB1wC4xrPJPJiZzDaw5mxk9H2Yx4JjwSPM+0VLZduEKrFyaiHYaqhwjlDu43r0ct25ZIURHhAlquRnNdF+OOTF1jTegTH+fkyduOXOvi3/P9inmJWLYr9hG6zUqDBtb01A29e5nrTepCoWmsThi/+5aiojMTOgauLCtSFTgbYK5cTOz58MsfBwTHiJeCMhFq9Ow4+KVQkQykZGSEHWqC0pEk0jdc+kq3CYEy52VEt1ZlMae+GrgCQ54o1KIRv3PO7lV6iKh1rubyqee4xlvvwLqwqb9eEvchm3iUIjpsB8W4qePxQnWXYE8Xx3KqTVkZILXwFVcjRoPjc+hbUOiMrPnwyx04gKUDZwmYp3zo71vRCaVXxYh159O98ppMroGR+XzXARZF1Notn55Ei5ZuxQ35mRI0UlPjpfrGYaZGHNtPp5ZER5iVA4GHMOLvk68I8TnRNdgsDeL8kCuFSm47IJlMqdDXfFT6MhimEUPC48B2jENZKZeLO0wNHURLXZZKA6MX+SKQ13fkXNQ1KVteIyBYSIw14TH0RyPFZKUeHEE1KKhnipKHFOh9zRWZ7GLDlFQqcbG2BYWHWZ+MqvCwzDM4oSFh2EYx2HhYRjGcVh4GIZxHBYehmEch4WHYRjHYeFhGMZxWHgYhnEcFh6GYRyHhYdhGMdh4WEYxnFYeBiGcRwWHoZhHMexaTFauobwf5vapQsoTdx+6cpUfGjzcrnuocOdeLu1X85gR/x13gpszkiSr8nE73/E5473DEu/rRXJ8fj4JSuxPGn+aiZNNequLYKP3RgYh1iU02L8/lgPfiPE5Rsvn8bXRfnmK2dQ/XYrnjvRg4GRMdQebJfL//mlU/LfXx9qx5HOIbQNjOJJfzd+8Ma54Gcr/ngWe1u6VM3zkxZphMUwixdHhOeDjxzBl58/iSHReqF5d6jV87gQj7/0+nFOTfpO8yuniXWpojX0lRdP4/532/DamT752f3nqDUEpMQvQbsQo5KnjsrPMAwzP3FEeAZHAzJkShHC8rPbNuKeLRlqTQha9vx9W2W5OjtVLQ3xuSuzg+upRMbikEnF5P5A2GxjcmhQ+Pdgu1gX9nH984bPSJM8+b4BZZHqVfXJGQUNE7Pr9QfrUNvJdWVlpm1MNERZxzBzGEeEh3IzF2Wl4Ac3r8O2Ten41OWr8YlLstRaDQqtHm7ulEVvBRnZsCwRV65ODRZb5A1rccgM+FCTp9YTkbYBCUFZuDfVhKjFzri92BGsVzk/6OJDDg9iuTR08NTAp7Yz++qJOtxNKNfXVUb2sJJeWKKeMAtzhpnjOJahpalMM1MS8PSxHpzsHUZ6ktkxglpFFEZRGaaJmC30jozhvFhHhXI/4YhWyM4SeOmGNt3JLhQX6++jbFOnvKmm0nzwepFfX4lQzcp/yluLfWHNqQjY1LFDUx6LKDZA6k7RNk5QM/MOx4SHeq0+9rgPn3vmBP6fp47iR2+eU2s0rhThVdlV2bK4lyeF+Wcd6RzECyd7ZXnxVJ9aakC5ZpaWR+kpUtvY36yRbvCJUIodRj0TTNzuN7yOgl018AhRNDV6GvaKJR4UbWPZYeYfjgkPEczxbM1US0I8dKgDN/zqoCyvndGSyUZ+caAdf7fvqCwlT4U3H/z7am2teU1I+14gP9f+Zs2JbEIeG548hO1eOndOALs6XNtAhp7GcEuGWaVsnsfMTxwTnktXpeLnd2zCdRcsxUdyM/HBzeYEc8/wGI51D8vyVxdnYdvGdFy6OlUI1SbZAuoeGsOZvhGZpP7i1WvUpxYLyko42BrTwqxSa9OIYeYJjgjPrstX4e8vXYl7RUuHBgBeuzYVxe/JwicuWYllSUtwh3u53EYvH794BS4TorM2LQEfy1uBnZeF1n1KvP5LscxKTCGNan00NtsnXOT4GrsWxxzAta0oFG7JMCs8JGOY+YIjwvOjwg34X0I0dNYtTRStngx84/1rpRBRDxdto5fr1y3FskTt0JLj41B+dXZw3TevvwBrhCCFURC59yeIClm8tftCXdxBbJK1rlyQnIXX2YIpjwH0NolaJoAh3NLCrB2GBDTDzC8czfHMLAWopH7qqkLLuJ0GlAXfu1BcXQMPdXGbtqFxOYWo8tSg2pQ0Ub1SVRXYE1Qqta16NxkKZBa7EREaXhEQx14uPtdYgYoqD2q4D52Zxywg4REUVCLgE8JC4qMG4MXFFaLRmHGWY2nqUWraRo3rsXl2ylVch/pSL0rcoW2byn0gPZo04jiNdcbcg0+tOq8XXk8RuDOLmc/Mqnc6M1FoVLQQ0hof6rg7i5kA7J3OTBr/ngqZVC5n0WHmOSw88wX/Huws8cJTs4uTysy8h4VnrqM/MOouATjEYhYILDxzHfVgKaXiWHSYhQILD8MwjsPCwzCM47DwMAzjOCw8DMM4DgsPwzCOw8LDMIzjsPAwDOM4LDwMwzgOCw/DMI7DwsMwjOM4JjyjYwH0jYzJQk6iOuS5RdY2+jp9PW1h/EzfsFb6R8Qy8S/DMPMXx+bjeeV0H/7h6WPydfk1a3DfhZkQGoKjXUP4/utn8eLJXrmO+PK1a1C4MR2HOwaDn4mLAxLE/8jqeGB0DK997CK5nGGY8VmU8/H8Y8Nx/Pv+ViTEx+GgEJNzfSNyeefgqBSd9MQl+OuLs2TxuJdjb0sX6o91g+Zm/uR7Vsryt6LQJO+3bUpHS9ew/DzDMPMTR4THL1o1QnPwV3lZyEoJn6j9dle6nAz+U6IU56/EISFOjecHsDE9EbuuWCXLP1y6EtuFKGWnJeDDm5erTzIMMx9xRHj+/ZaNqLhxHUrys7AqJWRdvFK83l24QYZVSUKZKOYbHBlDasISpMRrh0bLTvcO43jPMH5/vAf/IVpO37r+ArmOYZj5iSPCQ/5YWQbBiQTldD78WIts1ZClMTEghOiTTx3DHb89gkePdIqQKytofRMOzUmsT8quSpSZ1BvKzNtu3+PXlm3fY2t/Y657u8F5gmGYieCI8FBCOF7crJGgXq3HhKh84+XT2JqZjKKtmbhytSY8SaLl85krV8tWznVr0/BIcyceaGqX66w0lBUC9dqkWbIoxwkSFDNkUROHwqpSsbm+vQ9FtW6xTG1iRM4CWIiq0vpg3aJq6RIRs0MEwzBBHBGeSFCvetvAqBSdp4/1SG/1j1+ShRvWLZWtHoJyQ3e40oUYZeDOnOW4OCtFio8dBZUBVBonJHYVg6yorAZ+/j07UeL1oMZXaZi/2IXiunppCmhGiNTOEng9NfAZKncVV0uLm6oKu9YRwzDRmFXhoW7x50/24MGDHTKk+vQVq6TNcXZqghzf0zk0hrfO9cuxO8QVq9Pw+feuxrttA/J9LOTkkXWo0bXTj321ZFVs501VAOm1Z8S/D7R5abnVc0v5mU/UEZRhmNkVHmrtfOHZEzKf88Wrs/He7DSIqEwyJMKvZ4/34NaHDuNguyY03UOj8HUNY0SIUmTMuRh3idVrWNkP5+eGmffZ0tIE2ryq0JjfiVQ3wzCx4Ijw/Mf+8/j6y6fxoUeO4HDnIH68vxVffuGUEJEh9A6P4b/eOY9PPHkUnoebcftvtUKtoLVLE6QYlT13Ui67+7EW/H+vnUXpe7NVzUa0vI10Dq3xGXIxU7H8DFFqzB2ZijFcYxgmFhwRnpyMJORlpeCm9ctEqJQtRy1fkpUse7vo/V/mZeGWjem4/oKlweJangRXeiJ2XrYK7xPvV6ckyHE9Hlc6PpyboWo20LBb5W3Gc2PIAUVf9vjR3Khe6uTkgTZvnJjROcMw0RB/tacN/OCNYJkuxkRp7R8OvHKqN/DamT5toQ2iZSPir9JAvXqv4QuIBk/Y8vrS8GUSX01AiEwAnhrxSR1Vh2kZw8wvZuLenAqzmuOJBUr5rBStnWvXpomwS+tit8OVmy/+X4UKQ9d5Q5lbtILUGwMFldR7VYVC03idBpS5ayGbNyZcKJZdYyVwW/rO/Xu2c3c6w0yCOS88MVNQKfM53hJ3MPlbkeeLkOMpQGVAiA+JSTBZXIE8Xx3KSb+siLr1MUF63VTctUXYxQkehpkwjj2dPj+gBLVoJeXXI2AaEMQw85tF+XT6vEEfs7ODRYdhZpLFKTwNZTbPcFGOpwTe0nrz6GeGYaadxSk8BTtQasnXBMf/sOowzIyzSEMtSi6HDwaMPv6HYZjpgnM8DMM4DgsPwzCOw8LDMIzjsPAwDOM4LDwMwzgOCw/DMI7DwsMwjOOw8DAM4zgsPAzDOA4LD8MwjsPCwzCM47DwOERkh1KGWXw4JjzvnB/Ax584io/V+aSjxH82nldrgB+9eQ5/8bhPlo/V+fF2a79ao9ncfOOV0/gb8dm/FOs+/+xJnO8fUWsZhpmPOCI81fvPo0YIzS8OtOOXBzrkv//nT234uSg9w2N48WQvfnmwI1h+2tiGV0/34Vj3MH78Viv++9127bNi3f80teM/3g6JFsMw8w9HhOezzxyXAjIaCOCirBRkJMVLsfnqS6fQPjAqt1mdmiD90q9YlSIE6Twe93WhqW1AtHBO4HDHoLTCuVysW780Ab851CE/wzDM/MQR4RkU4dLwWADJ8XH42W0bcc/WTLUmBC17/r6tslyzJk0tDfG5964OrqcSEf8ebDdN8FWGBrXMzhGCnCJME4LZbBTKzzSYXEoj5Wzk9obtthucL8Kx1Bm3HWGbG44/WLfYN8PMVxzL8ZA1ze8+nIv8lan4zBWr8OVr16g1GvXHevD3Tx+X5d22QbU0RNKSJUhLCBVbaEpTdwlgcBIN1AOFNKWp2sQI3cTa5vpkYPXazIS2glKLnXF7sUOvV3epMG2ruZkWVpWiPridD0W1brFMbWJECkohqkrr1bbkfAqUuO1FsrFiu3TOkNvWFaulDDP/cEx4OgZH8eyJHnzv9bMyV3NAhFFGskUodZUQJyrLRShmhT5/vGcYJ1QJR7Qc6O4WN7FpJkFlexOGEClt8zqENi9AZb3mobXbeuN7vcivN9oVF2AX1eutxT6lPP49O5WbqXE7F4rryMfLihCpnUIQPTXwGaZbdRVXg6qtqggXPy+KUM2zJDILAMeE50jnEL716hl4fV342Tvn8dDhTrVGIyslHu/JSpFlWeISaeRn5K3WfvxWfOY3otC/YTTsBTUq7BwiXNuKwnz6GvaKrcVNH+aLRfMxi3/CLYtLYa1aMxH0oqmF3vmxjywqPEXYFqYNBdhhVR7d0aK8WEiTERe2FZGgNUFWa8BTtM2yLcPMTxwTnvglcchMWoKf3LoR92zJhDVaeqS5E7f/tlmWP4nWUFL8EvmZ1IQ4iH9Qe6gDn244js+IUvbcCfWpEH5peu5BXo72PjrKI91k6KcXEfpoG5nx5CGsauWrrtGCJorn8nNjE4eWJhn+VRVa90/hn11gSFWz7DALA8eE52oRQj19zxZcuCIFd23OwF9ctEKtCafsqjX48ObluHpNKp66Zyu2ZiarNRSSJeL/3ulW76YIhTnBXIy5ODXxe2m9/f4DAWO4xjALC0eE50cFG/Cla9bg8tWpsgVzmfj37y9dhW++/wKsECHW3+avlNvo5b6LMpGTkSxzPdeuScPXxXb6uu/eeAEKNixTNYfQwp4IqNZFCBe0KCk8nJk8OcizxnNBVAvLiGothYd0DLPwcUR4dl2xCh/OzVDvgJVCbG5YtxQfvyRL5nNu35Qut9HLJVnJUqAIsRr3XZgZXPcJ8ZkVyeHJZ+1G9qJWz/QakPkcCwUy6VKFvTa9R5NDiVnVXoRVqfI5JlzbIFM5tfvCksgMs9BxLNSacVzFqK4R0lPiNnVF0zidwkZPWHIZBbu03qNC67iZBpRFGJ8zHgWV1HtVhULT58mhtJbSTxZcKC7XetDclr5zOma77nSGWSgsHOERuIrrZNe5MWHrbipHoLpIbWGEurkDqC/1ynEzoeRuIRDW0xQrZBSoxvcE66tAnq8O5XaRYEElAr4aeCyupu7aovDeNoZZQMQFKJM5TcT98E31Cgh89gr1ag5AAwsLG1EjBICHwTCLkbl2by6oFk8ktDE7duNrGIaZDRaQ8NDjCuHPOckcT5UHNdWTDZ8YhpluFpDw0Ihf7TknU76kJB/1AQ6xGGYuseCSy+ZBeDwQj2HmIosix8MwzNyChYdhGMdh4WEYxnFYeBiGcRwWHoZhHIeFh2EYx2HhYRjGcVh4GIZxHBYehmEch4WHYRjHYeFhGMZxFofwRHESnS40h8+y8GlPGYYJwzHhefNcPz74yBHc8dtm3PVoC37wxjm1BvjOq2eC1jZUXj/br9aQ/fEYSp87hR3is57fHsHfPnkU5/pH1FqGYeYjjgjPt4Ww/OjNVjzh78ZTR7ulqd8D77bhB6+fQ+fgKN5u7cdTtE6VH75xFg3He6QJ4DdfOYPaQ+14Un32sZYu/Iuob65RUMlPwjNMrDgiPCQe/y2EhuZYJbuatUsTZKvmB0JguobG5DYb0xNxmytdlr1CXEh4mjsGpWj5u4awJTMZt25aJj3YGy32xwzDzC8cER4Kl0hedCfRe7euQBLZgxrYkbMcj3woR5YrVqeqpSH+12Wr8OTducESEZXPCU0GFj3vQjMUGicOizMlgmhWQ7HM1nVCrVPbyxxPJHcKmvPZuI+48JkStRxRqGy3bsAwCwjHcjxGJ9HPvXe1NOkz4vX34N7H/bLsb51ki4ZucHcJUOMLTQRWDxSKZXamwHSza5vrk4bVo5QcH4ICovuY1yLMrkv3PrfxajciBUVONK/vg47J6HqhCVhhVSnq9fW+GppK0SKCDLNwcEx4TvYOo+ad8/ji8ydQ8cczqD/WrdZobMlIwke3ZsqyJi1BLQ3RNjgKnwi5qFDoFU4DygqryBPYbD9cUCktb8IQIqVtbpwWtQCV9ZrX1W51z7u2FdkaBTbsJjErRVTdsd2HoKA4+N6/ZydKvB4hTIb8kPIIQ1VFWMuIYRYCjgnPse5h/MdbrTjUPognfN148qhZeOhAkuLjZImncENbHOTV0714oKldlQ611EDDXpBfqF0LRBMPM5rzRE24f1XBDiEnBmthW8fPBmgf3xU1mRxxH0H82CebTeVhc0Lrgtc0fR7LDDNncEx4UhKWIDczGd+7eT3uEa2a9CTzrkmI/uJxnyzUOqL1KQlx2LAsUYoRJZy/+uIp/PNLp/Djt0Jd8Tp+aU7uQV6O9j46ysvcZLynl0IpYCF0x09DuCVFzoOiqH45mjghPzeKu0ULmigGtBj6yRIhPGSYhYBjwnPNmjSZ49kqxOeuzcvxFxetUGvCKbsqG3dvWYGrxWee/LNc+Rmd7LRE/M/2aDf8BBCtEZ+eV7EUc7hGraBQuDXtPl0iPLQ7BiqV0ZpUDDNPcUR4fnGnG1+/bk2w9XJxVgr+4bJV2F24AStT4/GPV6yW2+jlni0ZWLc0AamilbR1RYpsJenr/uOWDbgqO7zXy5Vr5xGsaGmytB5ckJt7m0SbIxYKsEM2eijcUmFW0bYoLRkiB3kU3zU2G0I0K7FswzALD0eE588vzEThxnT1DshMjpdd5ndtzkCaEJfr1y2V2+iFQrJkIVCEiLZwhys9uO7DuRlYnhQv15nIybNNAhOyhWKhgJREBEx7Y+w4kttTuLWHwqxSlFuTMmFE6RELEss2DLPwcCzUmnFUT5C3xG16Jks6iTZ6wpLLKNgF2XFUaB1T04Ayu/E4erhV20gZ7JhGKLuKq8U+vChxm/fh31MWfO8qLpf1lrgt441oPBJ3pzMLlIUjPAIy9KOu86rCUJLW3VSOQLVx3IyOC8V1AdSX0k1vSOrGFUI0Z2zCKBVueb3jjt0JYb8PGjuUG9xBASoDPiFQVSgMHoMo7loURe4OY5h5TVyAMpjTRNwP31SvgMBnr1CvGIaZbebavbmgWjwMw8wPWHgYhnEcFh6GYRyHhYdhGMdh4WEYxnFYeBiGcRwWHoZhHIeFh2EYx2HhYRjGcVh4GIZxHBYehmEch4WHYRjHYeFhGMZxWHgYhnEcx6bFaBsYxWtn+uTrvKwU6RxKO+4bHsPBjkG09oX80C9emYLstAT0DI0FPxMXJ4r6d0x8cNum0IyGDMNEZ1FOi9E3MoaXTvXizkeO4I6Hm/FIc6dcPiwU5ED7gHSP+PBjR2S569Ejcv1ZIURvnuvHRx5r0cqjLbjndz7cK8odv22Wn58SynF0Lk/yF9WddFaJ5rDKMOPjiPDc+OAh6YF+uyvdNF/y+f4RlD53CoUbl0kHCio/v8OFx1u68PDhDulM8fx9W2V55t4t0nGi5rZNWJ2aqGpgZhopfjwFKzPNOCI8H9mSifsuzMSnLlslRCPkEpouROjjF6/AdtdyKTJXZafJid+7RfjVKkIz8ta6cnWqLDQ5/JiICp8+1o3yq7NVDczMovzHwtCmdA3U2U0RyzDj44jw/MNlK/GJ92TJlk16YmiXy8Trj1+ShUtWpiBhSZwQnFE8fbRbbpOtBGo0ADzh78ZDhzvlv0c6h/AXF2XKdQzDzE8cER5q5WTYWdIoKMlMrZzXzvSj7LmTyMlIwpXKO2todAz/+sY5/NNLp/Dq6T7cIsRr2DYdrvIOMixoQJk+abosFgeHqFg/K4pNqEHuFVq9ar/B7SeyrxAypDHsc7utabrxHM1ox2NwszDksIJ1B3My1mM2rlM0lInlbpSYnE71+iMfR0x1Swx1qGMNbm9bL7OQcER4xmNgJID/ebcNn3/2BHZszpCtoPeKsIsg6+Of3bYR++7Zgru3ZODf3jwnhSgijRXiR7wXO5QTZyDo4GC1sbGnoawQqA85eQZ8NfCIG89eCBpRsX0nUG3d10TER7sBC6tKxW5D9RTVusUytckUaKzYjoo8n1avCo38e3aitkgtk6UepWTnbLzhCyrlcZAFUMjptC7M492EFBAhVvlGZ1RRB8gqOsI1oe9LXkK1vbreLD4Lm1kVnpGxAI73DOP7r5/FK6I1Q7bGnxJhGXW364Z+9P+1SxOlC+ltm9LxlWvX4tnjPXKdLeIvdJGv0uB7RfkIcWORd9Xu8X/MBZUW22BXMTTrdHIRtUI7qzbcjMpnfQJGgSQCJV4PamyPeep4UYRqi1qQDZDJolnseZc0Gds7qdaahhDQnSXwki20+QKqcxGCbCcm8hIackXqek/tWJi5zqwKT48Irx4QLZ2WriG8Z2UKPnphprQnphwP5XYon1O9vxXn+rUxPiRA112QhpO9w/K9Lbae5pon1mStgnPIZ9jW7tiDIuvOpKMp7SqWPfmxr1bcedGOeYqMb7WsoVlANyKmw7bDvw/aqdjtT52LnZjYnLu83lM5FmbO44jwUKuGxOWtc/3oF4pC75uFqJztG8aP32pFWkIcLl2VKoXordYBvCG2O949JMf4fPPVM2gQLRxaRq0iKuuFAEUkPzfyjRazV7o5z+OWiQ478g3GfApXrlgaKy1ooqqjHfMUyQ87QB1LLmaqcZ3yp4+0P01MbLA596g++MyCwBHhobzMl184hVsfOoyDQkx+8MZZfOHZE/B1DWNExPXV+8/j7sda5HgfvTzQ1I6N6Um4ef0yfPaZE3KZ57fN+PYrZ/CV961RNU83+s1YiMaaUA6E3EkXElqy2ZKLqZ+OwI5hYsMR4Sl+Txb+99XZeORDm+H9SC5+d9dmfO26tbhqTRoevNONvR/eLNbl4GFDoXyPe3kivnzNGvzbB9bjy9euEZ9Zg//2bMIN65apmm2wDaf82ngUTx5ytAX2NOxW+ZaAJQcyU+QgUkMgeMzTjX8PKkTjppQS6KZczBQZJ8RsoabdeNefWTQ4IjwXrUjB5atTcZsrPVhoUODKlHjZojEu18vmjCQsS4xH/soUOeKZ8j/3bl0ht6fPRcRbi33W337U/EMIv7zTreGTysPMCC7IqMIu96GO2Uzk7eWNHQsyJPIgz6IADXujhFqx5MZc21AklMc+Cd8Aqj7WfBOz8JnV5HIsxMVpI5y3ZiZLMRofL0rcxq7bBpS5td4Wa++OFS23UIUKQ9d5Q5kayzJDFFSqHh/TWBc65lpxp6q3Bgp21YjF5mOkMTwxp2hky8Tcwxf58y5sk2oSS27MheJqcWzWbnlxVnu2F6IqhuvPLB7mvPBMGBpzUg8U6knTOPGjp2WxDO8vqJT5HG+JW302To6BmdkcTwEq9XE0wWOuQJ6vDuV2OVZXMerqS03H6G4qj/0Y1edDgwK1z0fK8biKq9XYJNp2nLFQVDedi6HuYC6JH69gDDg2LcbMQ39Z1Y98OnMXDLMAWJTTYjAMwxhh4ZlBrM9fmUtsj3AwzEKEhWcGoccvguNkwso4zz0xzAJmAQkPPRMkbmjO7zDMnIdbPAzDOA4LD8MwjsPCwzCM47DwMAzjOCw8DMM4DgsPwzCOw8LDMIzjsPAwDOM4LDwMwzgOCw/DMI7jmPCc7h3GLw92yHKoY1AuGwsAnYOjeOZEb3AdlcNi/cBowPSZXx5ox6/Ev79Wr2cPNS+zrUnd4kAzD9QedtX8xuyviXxIdhFfJyYyjgjPse5hKS4lTx3FX9b58ISvWy4fEspD7hH/+vpZlD17QpbPPXMcjzR3SpcJEqgvPndClv/9wil8SZT//cJJ/LXXmZ+yvHHYWM4EiY67BHJeanrY1Zm5qZmFhiPCc8OvDuJbr5zG7a7lWG6wMj7fPyLdJm7ZlI6n78mV5ee3u1Dn78bDQnyuWZOGFz56oSzPFG3BE3dvxn9u24jVaVHsbaaNSJOtq4dRF+mMetqk7VYvrMV9TZiJ44jwlF21BqVXZeMzV6xCdmqCWgqsSImXbhN3upcjNzMFORnJyF+VIv3SyWOL7Is3pifKskGUEz3D+D9/ase3rl+ramAYZj7iiPD8Zd4K/NnWTFyzNg1LE0O7TBPCctfmDDmJOzkWtw2M4MED7cgQrSLdtI9sjh882IGfvn0eT4iWUN/IGD4oPmOP2YhPlmihUkOZeVt9ci65XE3yHpw/WJ+4S+UzgvVGy/lYtyXUMsN+JxzNyePTjseYb6Fi5/EezLVIb3ObfYZdB5tjUtvISeGD80Prk+rbnWc0YrwGhuPVCk+etlBwRHiyRMuGbIkjQUnmM33DePZ4L77/+jlcvDIFV2anynUkPJTzeeDddhxoH8SlYh2FaHY0lBUC5BelT7blq4FHCEfEm7GwMZirkKW+SFtZUCne+yDnT6eJ4uX6SBN36U4MkW11SnfocwSRMApBQw18wX2WCm2zF4zxqN0Zh52oVsen1SUngbe9i2ux092EcrWtPm2R/XWwOSZ5TQKQc8KTP7rc1uj3HisxXgMSOncJ8g3fp6+GHUYXDOILnTbwgzeCxY7e4dHAlQ80BX70xjm1RIOWf/+1M4EN/9kY+Pt9xwJvn+sLjI6plYJ+sb5veCzw3++2BbL+Y39g59PH1JrxEb/pgLhRAuJHHqK+lCa4D5TWq/e2+AJCeALkfGfGZrmvJiCkJ+ARd68RuW+UBvQtre91Ii2PiDr+8GOjQ/GIdZ6A8VC0+m3ON8p1sKuHsL2eEa6V3baxXgP7/TCTZbx702kcafFEgloz/q4hfP3l03jtbD/Krs7Gp69chc2ZyVgiQi8dyvWkJsRh28Zl+PdbNuDlU71qzfhIz26LL5Q0rxN/tXdN12SFtmZ2ysSuZpdqFVjfhyjYQc2IRkQw4YxIqCUVwrWtSPpmNYUZYZXCurlm4he+nNDrqQ1rxk2F2K+B9r3ZtCKZBcGsCk/38Bh+8vZ5OZbnxvXLZL4nb0WyzP2QKDWJ0Orbr57Bqd5huX1mSgK2ZCTjXIRQS4Oa8qG8gDvMjU/78SM/dxp7YFwoLhc3jvFGadiLKnHrFundP/5mcVuJTQx+WMESsxufkXA3UCNhVsJh9sH+6LbOrlxMe2AzgWvgKi4XkkjmjLSeczsLDUeE50D7AN4614/fH+uRYnOgY1CO36EBgiJ8wohoZGckLcEhITRPH+3BU/5uHO4cwlHRGqppPI+9LV1yWZ34t+F4D/KyUlTNRvSEZSEaa3yGvID4y+kEBTvkjaK3ELRWlbXbmf7ah47NXBbP5O+xXQMyOhTLKE8XFCCjQywzn3FEePa804bv/vEs7tvrw8meYfxMiAmFV8fF68T4OPyiqR0lTx3DRx5rCZaHDnVgY3qSHOPztZdO40OPHsFf1Pnw4/2tKBchWRgNu1Hi9cgkafRBbTmgVnxMfuATogAULWjhlo1XuGpBeMNjoEliF04JpDc6NejGUzHlwx7Jnli1TsavZwJM5hpId1IhQPUUipmtm5n5iyPC8+krVuM7N1yA5+/bGizfu3k93rc2DY/etdm0XC+ffE8WcjKS8NVr1+C/PS5U3rQOP/jAerk9fc6KX8YN+TDfJ37so24lE1F6oeyYgEDJPAXVu4fCrFKUmwRQEyZU7Z22v9pVe8Nripa3saLlVapgUw38+2qFgMVWT+xM4RrIFuUERYuZu4gm7rQxE5nzsbGxQM/QaMDXNRg4KkpEVA+NsWdJ6ymx60VRvTCWXhtfTanlPfXsRPisXVeQ2FLcHAGPR3zOvqtI9n6JWMPcWyOO3dojFhW9V8tyvtrxhvdSResh0q6RpfcqSm+XfV2x92rFeg3qS2M/JmZ8ZuLenAqzmlyOBUo80qBDlwi7KPSKSEGlzOcYE5cVeb4IOR5tiH99qZ470Ao9g2RsMbmKq1HjqUKhXB9LglOFW17RVrDtKqKwoR6lwQF4qhTC0jqKBQorfSiqDZ2v/gzVRKzFyHTQVwPTddDH9cyIRVnM18D83czoMTGOE0fqo15PmblmDL9gocF18kZkN1ImNubavTnnWzwMwyw8WHjmGPIRBmMIYio8noVZGLDwzDEo50LRr33h0IpZGLDwzEfkA5ssQsz8hYWHYRjHYeFhGMZxWHgYhnEcFh6GYRyHhYdhGMdh4WEYxnFYeBiGcRwWHoZhHIeFh2EYx2HhYRjGcVh4GIZxHMeE51j3MHa/1SrL/tZ+uYyM/NoGRvHokc7gOiqN5wekY6jxMz8W5T/2n5euFPQ6nIm6Wc5hlIPm9J+K5sARs3ngjB3HzGF0VtXOU/0uLE6vQXdV9X5aUa6rs/79zWEcER5ylHjC3yUnbf/cMyekYygxMDqG50/24BcHOlAjBIXKj988J4XoSOcQTvZqE8PL8k6b/Pcn+1vxeVEHw1gh0dFnYaSn+aNP+s/MJo4Iz40PHpL+WLe70rE8KV4t1Vo7X3j2BAo3LMPTRbmy/PwOFx5v6cLDhztwdXZqcPL3Z+7dgif/LBc1t23C6rQEVQPDhGhp8pK1h8VSSJvmNlBXHHL8mGmU3TNP0xoZR4TnJ9s24ocfWI/Sq7KxxiAaq1Li8TMhJDtylmNFcoIUpU3piYgXzUny2opfEifN/aiQk+gfz/bhG6+cxr+KuhiGmb84IjwfFMJy66Z0XJyVjJT4kDcxWRPftH4Z1i9LlJbF5BD67/vPY4UQJPdybWL34bGAzOt89w9nUefrluJ0s2ghRUXlJoIz90WI5Y35AK3YzfAXOXekfd7yGRXfh4rVhE43HgyVaLkA6zHax/fhdU44f2G9ZpM1z5Pnr12TWI49mGsx7N90PcKup831UttIM9LgJPL68U809zex78cWwzUIYsiXWa+Lff1aPie03cKafdIR4clMjseyxMi7GhXNUn/3sHQK/cWBdly+KhVXrk6V6ygB/aZo6bxyug9neoexVrSYyG89Io0V2O5uQrk+ax85UdKP0fTtaj8ud0k+6vXtRNHdFib8Q1PIH5RyQ9DrrCczqCD0Y3KjBDXw6fsVG1QV2t+UjRXb4W4qNxyf5qJhPhX6QYs68+uD2wUCPrEHugFjFA+6UbTkSKiOeqBQLLO6ksVK7c447ES1ob5SzQHE9uLWYqfhO9NDFClKlutpe71UaCOvtUe/tpWYeKQzse9nMtB3arwu9J1S/eHfaSGqSg3fqa8ItW6xTG0y7xEnNW2M593TOzwauPKBpsCP3jinlgQCo2NjgbaBkcC/vHo6sOE/GwOfbTgeONg+oNaa+dXB9sDq6rcDn3jyqFpixN4rixC/HbE85I+l+U+Fb0dYt43kGUWY64nmt6URXrdG2PJI3lPKtyu0D7VPW88s67aE8v0ynbjddhra+U3Qy0r3/IpYn/m6a+dus48oPlqRvj9Z1xQ8v2L+fsZDHrvl+KbjO1XXZEIebIrx7k2ncaTFEwnK4/i6hvGVF07Jnq9vXH8BPnvlamyK4J+1TYRrD3hc+MNprVfMFhu/8hzNsxjN8o+Wche12Y6I5q4ZHWUJHNElU9ka1+wK+0us7VM/vhAmC2SJxX7Zvw/aqVi3I2J07Wwg11NxW9n4gLm2FcHOlSwWItdnZ70c7lgazRFVr0f3qZ8eJv79TIYpfafKTXUhMKvC0zk4iu+/fhaU9qE80O1CWDYtT0KyWEC5nf2tA/jCsyelxzqRvCROhm3tA6PyvS35uWFfmEsqgk4LqPPDbjtJTt6kb7aCXSKsE7exZgBoCXOUF7nRcDBYZHIinHDfciVuOuP4pGuCGx3N+tmDvBzt/fQQvb7GMIXNE7efET+0w7IuVygP9mllEt/PZJjqd7pQcER4Xj/bj+dP9uLXBzvQLsTmtbN9eOZEL071DuPh5k609o+ge3gMz4ltHhTb/FIUGkRIyebftXTiV2rZLw62o87XhWtsvNPnBNIlU8sLUKtJCpAlySuayaG43VR48va5AH8/zuCI8DzW0oX7/9SGr750SiaSnz7WjT2N56XgUPf6C6d68d0/nMEXnzsRLA3HerBxWSI87uX42Tvn8en64/jS86fk4EIKxyaPpWlrRf7FmWILQCU7fSJYp16W3dT0UX+lveFxxuRRrbOwFoRCG9cSodWgMLcGLai/vhPHLpwSxPzXXLUCvE2ifWqDap1Ma6tgJr6fyRCtxa3OeyHgiPB8+vKV+M4NF+CFj14YLN+7eR2uu2ApHr1rs2m5Xj75nizkZCThq9euwf13uFB50zr8sGC93J4+N3lc2FZEglALuxSBzC2Y8j+Rczfyxo6CniPRhCHGnMtEcG2Ddir7bERU5Sxs8z8G5A/dPl+i5VkmR5VNkixa3sZKtFybf1+tOOLY6omdGfh+JoMSQLvrp533wsAR4VmRkoBVqQnYmJ4YLKvFexrTQ2N4jMv1kpEcj8QlcfJzNP7ntk3puGWDNubHOBZoMriKq1Hj8aLEbc7DUHd4YZUHNdXmUa567qbC0KWqbaveSKiL3lKf/KF4UKRULJgDso6xaSibZHetC8XVkYYLFKLKU4Pq8eIDER5Wi5aZtZtenl+jRwrnpKgqNJ2Tfr1K62Ps5hatRopYqwrDx0m5S4TsxFrPBJj+72cyFKBSO3HzPum8a8UfEvV2vjOryeVYSU1YgnVCcNYuTVRLpoo2jL6+VE8Ea0Ub12MTy1PuRvwYjIlHGl8jQykT49Qnc0D1KA0OclOlECifbAJBr1P8UIP16eN6YnxMwFVcFxxPotchxw9VF6ktJooQb58PRbWG66WeoZrIYwTkqqqPrdLr0cf1zMjjCDPx/UwGCtUtv7e4ijz46sqnP6k+S8QFKBkxTcT98E31Cgh89gr1illU0GBEKQ6cjJ1LzLV7c160eBiGWViw8DAxIx9hMIYgprKwniWKBF+D6YGFh4kZyrmExrVYy+IIrfgaTA8sPMz0Iscw8Q3IRIeFh2EYx2HhYRjGcVh4GIZxHBYehmEch4WHYRjHYeFhGMZxWHgYhnEcFh6GYRyHhYdhGMdh4WEYxnFYeBiGcRzH5uM50jmE+99tk6/vdC/HtWvT5PzL5J/+hK8Lh8V6HXKcyMtKwdm+keBnaM5BsjQmpSQHiq9dt1Yun/OQOZsyy6vjB5jCoKe9Cxtr4HPC21x9F/n1i8/XfFHOx/OUv1tO0v7Tt8/jO6+ewaun++Ty/pEAnvB34amj3XjuRI8s9J4mh29qG0DH4ChePNUrywsne/G8WL9PbEsTwzNzB+mgOlHLZGZR44jwfPixFvzozVZ43OlYnhTaJQnLN185g1s2puN3H94sy09v3YQnhVD9TojPe7NT8eTdubJ4RXnogzmounmdnHd53iCn0wws6NbOeJPeM4wVR4Tn1zvc+NltG1F+9RrTvMnZqQn4jRCTD25eLk38aHL3tUsT5GsrAfFfw/EelD53Cj/ZtkktZRhmPuKI8Ny0fqk04SP3iCQhLjpJQmDeszIFK1MSsCQuDid7h/H1l08jKyUeWzOT5TZDowFU/PEMyp47ib2iFbQ1MwmXr0qR68yQs0Ic4sgqQZreh2aGC87WT/MB2y0Pg8z7Q9vJYnJxEKi6rIslcp2ajU4di+12luMMcx9VyFDGuF1MYY06B+uO1T7Dzt14zBJ1PaPtV9Ul3TYME6SHX6px6pFYr3mM18L2wgpivLbM7OCI8CxPikdaQuRdjYwF8G7bAB461ClbNe9buxRXijBLInSKQrK2/lEMjo4hQfyI3jk/oK2zg9wWdgLValY4ck+g2fq3bxc/WJqp37I87Hcrb8BCNJocJZWLg/GGUT7WEf2jInizB6H9qKSzvh/N9cI8fSbdtJpbhX4sPtTEZDWgfKKsxoXKVM/qxWU9Zv+enagtslwDq42OCiOlcaqnJnhtQ4lbTUxk8jhYj9g+zLyiFjvjKpDnM+zLxmZGuxaaW0VwO+v3QthcW7EpCsUyDgrnCOJLmTbwgzeCxY7e4dHAlQ80BX70xjn5fmwsEBgaHQv4u4YC33zldODin78b+MoLJwPNHYNyvZVHmjsCW//rT4GP1YmfcRi+gNCSAFAaEDepgfqAuC/Eck9A/GANqOWlxq3tlil8NQGPWOcxVCJuuPD9WbdT781VRtqPdbn23rjPCVFfGnbedMye0lJxTMbl2rUbbz9CrG2ur1anEB5Rixnb62NB28Z6ffR9GY5Rnkv4duHLI3+HWp02dSwCxrs3ncaRFk8kRsT1aOkcwldePIXXz/ThG+9fK+2JNy1PUluY2bYpHQ94XPiD6hWzJcyyV1kWh7VA1HIjDXvF31lxq9hZVNq4dtq5Xeoul1F9mOR+PKjZZd2PtZWiHaO9U2gMyFaZ0SWU3EU9KNq1A/liedCt178Ptd6Q8WAkNLvjRkRwTLagnExrdsVgvBfuCqrtK3SMWousBuGXTGt5Bm2co3yHurMrM/vMqvBQCPWtV89gdWo8/vriLNy8YRlWpiaIcEobq0MC84knj8LXpY3xETolx/70jozJ97bk59qPB4m03IC/mZypI/mmKytjIwW7IFoKhnDLj321ojFfuiPqzabth5xMjTkIrZjdSV0oLhe3lZ4/sc2NREMJV+juFTdlPnJdmsDpx62JJS2Xbw1Y8jzmg4uOEoCY/M3t/N1NHuJ+aJfMYrQnS6Hcj07075CZKzgiPM+d6MXjLV2o3t+Kc/0jePZEjxzXQ8nk3x/rRnPHEN5pG8CvDnbgx2+1YrcoNNanZ3gUr4mW0H+9c14u+/Fb5/Cbw50oFAI1N1A+7Lrftmw5RGgxhUFum3quwlKMg+nk5OlaTip440VKqIZhPj55UypRzCFFUi0r2R1uEUstIawcSfXjEnHRrGLII1kLD86cXzgiPK+c7sXvj/fggXfbpWf64Y5BOVand3gMF2el4Fj3EH5zqAM/azwfLI3nB2TI9eHcTDx9rAc/fOMc/rOxDW+e68enLl+lap5erM17M+qvrqXlpDXftXBLD7PG053o+7GHbIbpBpP3flVFzP5N2vFReKS1xnRRlMu9tdjn10Iik1j696CCltWLm3qyQ3xViyUYAk0J1dr0NmG8S6Zd2wioxDoz+zgiPJ++YjW+ff1aPH/f1mD53s3r8b61aXj0rhzTcr188j1ZyBHC89X3rcH9d7hQedM6/OAD6+T29LkZIUpPVcTWjMr9VO3dI2/smHIa0fYzDlpeaQKi5cqV+Zza3bvF8RtEUR63qGdfs5AlS2gib9DwcEXmWSJhFQWbnNhUsMun2SIFz5jXChH1+BlHcUR4aLxOcvwS2aWuFxokGC/ChlTDMmOhwYQ0toe2o5HKN61biusvWCa3p8/NDAWopCZFVaFlnEsDyqgrtrTe5hkfFc401saUoNUowC6ZHLLuh0IcY3e62K+1S1nePOO3qkJo+RxvVRW8plyK1oqoKhHnZU28q5u3ZHfoLqfxM5FSPJooWJPOLhRX14hWlQgPTefgx56yieaqBHo+rdDq1mm5Rq5iVIsNrUMl5PE3emQrjJl9ZjW5HCskPqtEiEYDC2ccyqn4agDxwzUmMOW4nghhhxa2eMNv4CjI0EmIHN0gxmRpIcrNZniWhKo2JqZy/FaVAU0YAE/RNlOYGGm5HJ+jBFjfr7upPHKOR1yz+tJQsjx4w8txPmr8j6pH5o0wfqI/HCFkdRRqWpPyhUC5+QFTuraUE6sqDG0nj786bAARM0vEBShxME3MtSdgGYbRWJRPpzMMwxhh4ZmvhD2LZCkxd7kzjPOw8MxX1HNS+jiWsLLYZrpi5hUsPAzDOA4LD8MwjsPCwzCM47DwMAzjOCw8DMM4DgsPwzCOw8LDMIzjsPAwDOM4LDwMwzgOCw/DMI7DwsMwjOOw8DAM4ziOzcfT1DaAH+9vla/v3boCN69filGx57N9w/jt4U682x4y6bvvwhW4bFUKTvYMBz8TJ/4jlYwX/xseA/6tYL1c7ij0RLgyiuPJxcOhCeLlRGXGyepnCvVd5NcbDQSZSCzK+Xh+ebADtUJcfnekCz/dfx77z/XL5b3Do1J0aAL3M70jshxuH8RjRzqxv3VAWty09o1opX9EOlQc6RzEnkZNjJjpR1oET9hGh2EmhiPC84VnT0gXiQ9tzkCmYfrSHtF0uf/dNty6KR33e1z4+R2bUHXzemmHs+9oNy5dlYpf3OmWhYz8dt+yAZ+5Iht5WXbe6Q6gpqJYyK0daXXDMDOMI8LzayEc/3X7JnzxqtVYm5aolgJrxOvffCgHH8xZLudVpgne1y5NkJPDWwmI/+qPdeMLz53AT27dqJYyDDMfcUR4Ll+diotEKyUrNQFGTaHX65YmYmniEtDiYz3D+Mf643Ji90tUq2ZIhFtfeuEkPvnkUfyupQs3r18mbW/ssThfimJ1cZCG/ob1dmGFNLOj5YZZ/uSEfuq97eR+YTMClmkmfxZkKGPcLqawpgFltK11x2qf9udodGMIvy5h+1V1SScJw+Ts1l1qRn9R6pGo4w2WGK9FpFkTY7y2zPzBEeEhYUmxacXokCPx62f7cP+f2nCwY0gmnq/MTtVWBoDM5HgpRqnxS9A+OIpXzth5p9OP3eJ86auB0d5N/tDFnSWN6uQ2PtSAbjK7H3ItdrqbUK7qiprApBtdJZ31fdeXVqHQdPNrN627JB/1ahu5/yj+cyGsnuoKZVBn9a7SfMZDjhf+PTtRWxQ6toDu/GC80VUYKY0kDI6dofPWxERzudDrEduHGTeI6xZXgbygS6rYF8S1sAiUdi3okhm2I1cLq5DZXFuxKQrFMg4K5zHii5w28IM3gsWO3uHRwJUPNAV+9MY5+X5MlP6RscDbrX2Bf3rpVODaXxwI/MsfzgR8XYNyvRWvr0tuc+/eFrXEQH2pkChPQPyQ7fHVBDzidD3WDWyWi5uPevoCQqDMqG3Ny+sD4l4NkJqZsS7X3oftP1Zszo+O01NaKo7JuNwXqPGMvx9fjUfUVyqOyow8d0+NqMWMdk3CtzcS6bpp+zIcozwXm+sbtjzStdXrtKmDsWW8e9NpHGnxREJoDlo6B/GVF07hddGK+cb7L8BnrliFTen2odS2Ten47ztc+MNpmxZPFAdJQrcXLrcmhnXHyzBrzhhN8xr2ir/nHtTssm5sbaXkgOzKJ+2sKd1HjedH1sMeFO3aIZ1Cg4cvHU/HNxbUrH6tJnyR0GyOY3JJtbluVstmrUVWg/BLpjmsBm2P5bUVNdp8EZo1MzNfmVXhaRsYxZeE6FAv1aevXI1r16aJkEzL9wyNBvDCyV586JEj0mudEK0jnO0fweCoiM2siFChXPxqdYM8a95D662h8MeYK6AiwjO7NrvJdTMyfmmobjWZ04rZedOFYu0AtfxJTLkdI0q4QnevOJt85Lo0gdPtkDWBpeXyrQFLnieSLagdSgDywysNx+66KR91DeVBbzEq1Eqh3I+Odm3DrZSZ+Y8jwuP1d+PBgx34zqtncLpvBHX+LjzwbhuOdw/hj6Kl8/rZfnh93fjXN87h66+cxj+/fBrPnujBqGghnhLb//itVrnsW2Idfe6uzRmqZjMFlZQD8EmrW12AzPnKUkN+xVKmNApNtHiCuQpLMQ6mI5dSsYxcLoM3XqSEahjKKrlqr8xHyZuydIdsgeSQIqmWlRRYtVxHSwhb8l8iLppVDHkka+HBmQsfR4SnpXNIjlx+VYhM/qoUOTDwT22DoHbLDeuWipsCePt8P1481Rssp3pH4FqejKItGTgkWjyPHunEU0e7ZXK5OH+lVrEtmtVtQCY1xX1aobUs5M0Zc2gRO9YwIhakfbG4weS9X1Vh8QKPjBZe0Dn4sa9WBI4qBNEslGuxz6+FRKbQxL8HFbSMEuqTFVfVYgmGQFNC82wXTTeMd8m0axsBlVhn5ieOCM8/XLYSX7tuLZ68OzdYvnPDBbhmTRoevNNtWq6Xv754BVzpiSi/Zg3+c9tG/MsN61B50zq5PX1ufFSORf3AtZs2cg5o0qi8hB7qTATNu3wCouXKlfmc2t27Ues15FJknkrUs69ZyJIlNJE3aHi4IvMskbCKgp4Hm2x+yoJ23lUY95JFydtFPX5mzjOrOZ5YoHwPdaW//4KlQnCWagvtaCiz5HW0v/7BsMOQAzJHN5T7mMq4kALsotCpqjAsr9RQZuxOb0CZtUtZO8DYktgSTUy9VVXwmnIpWiuiqqRELC8KdqNL1M1bsjt0hjSsIFKKRxMFa8tQtCKra0SrSoSHpnMQ165sorkqQcEuGQ5XFZqHG4RdI/GdVYsNrd+ZPP5GjzgvZt4imvzTxqx22amuWGOx61LWu2GjbRepS9m+O11hs39zN7DqGjYWu32Mh9pP2LlFWk5Yj42OSy6zH36gd4tTMZ+rzTkYNpjodTPuRy/WbYiw74w2ivZdMGHM6r1pQxz9T3yZ08JcewKWYRiNRfl0OsMwjBEWnrlA2LNIlhJzlzvDzA9YeOYC6jkpinptC890xSwwWHgYhnEcFh6GYRyHhYdhGMdh4WEYxnFYeBiGcRwWHoZhHIeFh2EYx2HhYRjGcVh4GIZxnFkTnrFAAIMjAfjaBvDGiR48d6QTTx/qkOX5lk7sP9WLE52D0uZ42p5iZRhmTjArT6fTlMm9Q6M42TWI+sMkMt041j6IzsFRuX5lWgI2r0zFe9eno2BLJrLE+5SEJVgS2SGHYZgo8NPpgtPdg3jiQBu+ve8oat86i/0ne3GudxgDQoyonOoawqs0L/Nrp/H1J3x4UbSA2vqG1acZhpnvOCo8FF4dF+HT4++24bdvt+LI+X50DYyIkGtMuoouT46X3up0UANiWVvfCA6e68MDr59BQ3MHzvY4KD5hbpyCSM6dkVDbT+bhcqPLZsz7Y5h5gmPCQ/GcaMzgRV+XzOeQoJDg6HHeaCAOaSlJuPvS1chWvlokVBSSNZ7qxTPNnXjjRLf04pq+4HBuQqJjdNlk1wVmoeGY8AwOj+GkaO3sO9iOlrYBtTREvxCl+IREfPK6C7AhI1ktDbH/ZA9eaOlCa++IFKRZQU1fMdNCIC1qrHMnM8wCwjHhOd83jCcPtOFYx4AMoyZK3/AoDp3rlyHXwMgCb/IwzALHMeHpHhzFWyJk6h0S4dUkWiz0kbb+YRF29YiQzSpcDSiLOFOfti6UJ7E4alKJ1dUzWs4mbBbBSThXyLySciANOm3q9ajjpp2r7aw5KGNeyG69jjT4k+esrpte9BOznstkklQMEwXHhKdfhFpH2wcwTANzJkmvEK8TnUMyz2NGeWgpl00Tyttc9xL379mJ2iKfNrOfLPUopZt8KjcXCYGWlAnVWw8UimUTMp1TTqPS6C/otFmp2fPoNFZge0WeWlcHLerTRMldkm9ySvXVQFor256aFLa92KFvTzsli57tQrzcTSi3LucENzONOCY8ZEdMrZ7RMXNrhcbmjCEO2cuScOnaVPE+8mAdciClOuiGsGJvEiduSLLRNORLyMXTnKPRfbFsRCsmRKuBmiil9eZ6hYhIq+LpRihZUbXBFllAYlriJRtls0jRuWq6Ydf6smyvvK68Xq84FZvl02TmxzCEY8JD3VckKdR016HXy5LikZCQiBs3Z6L05rVSVCIlj+mjEXXJztHTvw+1ZCVebr5RrWhWuZO0N5YtKvINDJ8XWXMvnWbCks6anXGkZHRk18585Jq2V9bCYQaD+nKGmT4cE56k+DisXpaIBNHEoTE7iFuClORkfOvOzbj/vi3YmJGE4toj+MIjzTh4rl/7kIXk+CVYtTQxQqsovOXi31crGgh2Tp2WPE8kW80Y8Dc3iv+HWwTPGPm5FhFtAXWChS9XSCdRG0xOpAYiLWeYacQx4VkqWjYXZ6chJysF2y9eiU/fuB5/9741aDrbhyeazuPFlnY0n+vFWyd70KMenbCSkRKPratSkRjh2QmthaH/dVctAd3CWCETq3FulOTXazkMKjKpwjCMUzgmPJnkf+7OwPqMZGSLls+aZQlITQjAK0TnV2+dw1snuhGPMfSPjMl8kJVE0Uxal5GCqzakIzkxwmG7tqFINnqE8uhhlrG5498DSvmU1guxmSbLGC1Mi0BL08SSy5MiB3nUpGlsts/ByGNwsEXGMDHgmPCsSKM8ToYUoFeOduOHzx3Hd58+iiPnB+QI5vFYkZqIi9ek4n2u5UhOiHTYLmzTlAd7KMzy1GCXUV8i3IQNeycfammhjBe1+8Jv+ynVGzPqnL21sDkE7Rh4MCIzx3BMeCg6ShMtlW0XrsDKpYlop6HKMUJ5mOvdy3HrlhVCdESopJbboYVbjagVzR1P0TZz3kOJRMnuUKaVxr5MIcUjdliM6hpRa4nb1G0t6230iP3NPK7iatR4xHm5zb1X2rl5UGPpBWOY2cYx4SHihYBctDoNOy5eKUQkExkpCVGnuqBENInUPZeuwm1CsNxZKVFFRyLDLS+83tDYnSD0yIMal6Inlt1N5VPO8VC3NXWdVxWqZLVeb3WR2mKmcaG4jsb/VKFQ7V8egxzXo4/1YZi5w6zMx9PeNyKTyi+LkOtPp3vlNBldg6PyeS4iVbSMKDRbvzwJl6xdihtzMqTopCfHy/UMw0yMuTYfz6wIDzEqBwOO4UVfJ94R4nOiazDYm0V5INeKFFx2wTKZ06Gu+GgtI4ZhosPCY4B2TAOZqRdLOwxNXUSUIAvFgfELSHGoKz9yPolGEnNYxMwMc014HM3xWCFJiRdHQC0a6qmixDEVek9jdRaS6BAFlWrckG1h0WEWD7MqPAzDLE5YeBiGcRwWHoZhHIeFh2EYx2HhYRjGcVh4GIZxHBYehmEch4WHYRjHYeFhGMZxZk14yCiCJv06cLYPz7V0Yu+75/Gbt1tlqXu3DS/5u6Txn3QOVZ9hGGZhMCvPapHFTUf/CPwdg3iuuQN/EuJzvGNAPjRKrJAPiSbjivXpuCFnOdamJ8kn02maDIZhJg4/qyWgaTCeONCGbz3lR+1+mva0B609wxgYHpXldNcgXj3ahf/+42l8/Qk/XvJ1yak0GIZZGDgqPGRb428fwG/f1sKqs0KAhkS4RcuT4pdgRUoCVorWTkJ8nBaKCRE63jmAn//hNJ482IZTQpAcQ7p1Wpw4lcNmzOZ20ZxHGWYR45jwkLgMjgTwTHMnXvZ3SVfRIRFy6XHesHiRkpyIv7p6DdYtT5bLSHwGhsfQfL4fzx3pxB+P9UhTv+kLDucm0gmD1YpZwDgmPANCdHxtA3hGCMjRjvCWy8AoEJ+QiHuvyJY5HSt/OtMnBetk55CtC4Uj0NSpYt9mJ9Lpxg9p1cUwCxjHhOd87zD2HWyXSWTK40yUvqFRHG7tx7PNHbIVxDDM/MUx4SHP87dO9aJ/aPKi0d4/gnfO9MoQzUwDyuIihSfaulBexuIiSmX7HntPKivRcjZqXaheO7/ycZB5JTdKyIwrOCG9Jc+kn6uxcFjGzDMcEx7yzjrROShEY/LC0ytaPae67EKtAmgW4SH74iDS2zzkOOHfsxO1RT7DzH/1KPWWwD2Vm5cEw10C1BjqrQcKxbIJGfoVVIrP+kBOzCjVnU4NMxNKYSpEo3E/dPwkUrGKJ8PMARwTHhILEg5KMhshH/QxxGFDRjKudy2L4IuuQYMJe0WLiW44KwWa8ij7Yh3RuiHrUIOhHVnRmHM04Z7rE0O0QGgiZSEUpnqFiJDlzfQRYT/i+Ct9NfAI8dwZa28bw8wyjgmPCAjUHMohYVki3l+wPAmr0lOkvfF9l2WhU4RTkVpFJEpyEKFdbrlgB7RGj0E+dBvj8uiGdpoNcSOaJ3PfyhaV2IfRKlmhmQtOE1H2o1s3e2v3cauHmRc4Jjw0gfvqpYlCODSjPsQtQUpyCr5152bcf99WbMxMRnHtEXzhkcM4dK5ffcoMTQS/cmkC4mmG+DDCWy5+sjEWchR+r1ryPFOwEvXLLqiZ9yaPvh8Xolm4M8xcwzHhWZoUj/y1S3Hh6jT82aWr8NVtm/D5my7AM4fb8dOXTuCppla09QyguW0AfRF6vch5lJxIEyMctdbC0MMtP/bJ5s4OIUkh5BgZSuDm6zkUysdMzUmUYZiJ4ZjwrEhLwA05GXKMTqJosQyLcKqtdxC/F8LzxIF2HDjbKw5mTCahaeCgFbK/2SBaRddsSpevbVEhhwy39DDL2Nzx7wGlfErrhdhU2oQsk0AL0yLQ0jSx5HIUtP140dSivTejxv7k57JHOjMvcEx4MlLica0QjTXLk7H/VA/+85VT+PcXTuBo+6AUm/HIXpaESy9YhvduSEdSJOERt902TXmwh8IsTw12GfVFCkF4uNKwd/KhFnLyRI1e1O4Lz65Mqd7GZnO+xi6HpWMnsgwzh3FMeCgxTOHWtq2ZWLk0SY7JiRXKw1znWo5bxWeT4ylNHRkt3GpErbgTPUXbzC0AJRIlu0M3r3/P9ijunjHgKkZ1jai1xG0a3yPrbfSI/U0UJZ7eJpgbNwWopJCwqtDyrFgDyqjbvrQe09SIY5gZxzHhIUgwNq9MxUfyV+JDl6yUHunUsxWJRCEy1NL5q6uyccdFK7A+I/xRijBkuOWF1xsauxOEHnlQN6+eWHY3lU85x0Nd9NR1XlWoktV6vdVFaouJ4SquRo2nCoWyLsMAQhrn46sBhMjp+wmO62HVYeYRszIfT+fACJpb+/Ha8R7sP9mDE51DogU0LJ/nItKSlmBVWiLcWSm4dN0yXLMxHRuE6FCLiWGYiTPX5uOZFeEhKIFMj1H88Vg3Dp7rkyOSewa18CtTiA4NKLx4zVK8d8My6aMepWHEMMw4sPAsYqgrP3I+yYMan+HxCIaZRubavelojmexU1CpP19lV1h0mMUDCw/DMI7DwsMwjOOw8DAM4zgsPAzDOA4LD8MwjsPCwzCM47DwMAzjOCw8DMM4DgsPwzCO48gjE6NjAZztGcbzLZ3y+ayRSThNXLNpOS5Zs1ROf8owzMRYlM9q9Q2N4e1TPfj2vqNYvSxRzr9sIi5OPjYQiTjx313vWYn3u5eDpltelpRAH2EYJkYWpfCQi+jrJ3rwz0+04N/vuVDOu2yFDsKoJfKwlLrQ/2mCeJo87GjHAC7OTuMpMhhmAsw14XEkx0OBlRQWISQ0bSnNmWwtKfSvaAnphd6niLCKCq33tw/g0Xda8a/PHsdv326V9ZpRzhFz2NiOZiUMcxiVJn0R3EltsK2DYeYZjiWX9YYVtV5obh3bIv5nKrLFE4eWtn48dbBdeq/THM2HWwdkXQzDzE8cEx6SkIlCk8Af7xzE7w914JnmDpzsGpIGgDQzYTguFNcFEKiLbt4355C2xQGeL5lZVDgjPLKxE5Ieeks9XeQYGinDRHbFZ7qHUX+oHY80tsqWztr0RNycm4m7L12ltmIYZj7iWIvHyPBoAOf7RtB8fgDDY/Zd6yQ0Tx5ow/1/PINzvcNwrUjGLVuzcOfFK+WczOGoHI9NskQz8TOUWBIq/j3YLrY1Ozoo1LpQNQ0oM9ZPJdakjczxGCZ0N6DlcyZRJ8PMcWZBeOLwsr8Le145hZ//4TT2n+yVY3uMHG7tx5MH20RpR49Yl7syBbdflIUb3Mtl71avZfvIaGJU2FgDn2haUUgTCNRLf6pxieJHbrVGbigrBMgkUN+HrwaeMBuaiUFi6S4BanyheutRKJZNl0Ugw8wejgsP3UAnOgfx5okeKUCPvXMeb5/qlc4TQyNjsvfq6UMdeLa5E6e6BuHKSsEdJDo5GVgijnafEKSOWD25dKO7cmPepwCVMSVUdH+rWpi9+hqwm25+gzUyTWlqqtJVjHKhbnaiFROiFURzM5fWm6dDLaj0gezhGWa+Myuh1sqliTJJLDRItmr2HWqX4qOJTju8TW3y9fqMZGnit12EV+TH5WsbxINvng1rIUXElQsy/rV134wBzRzQ4hLasBdVNDG7yaI0nJw8O1O+2NAcSEMtqhBKDBlmnuO48MTFAR/YnIl7r8jG1tWp8j0JzZ5XTuN/Xj+L//PqGdEiItFJEqKzAp+45gKsEkJFKiXT00Ks6DOxUYBd1ETQDfwmmiOxablIUfAUweoVSC0hY55n8iGR8kH35MHitMwwCwZHhIc6roydV+QQesmaNBS/bx2uXL8MqYlL0Hy+Dy+J0GtAhFtbV6fhg5eskonkpATlqSUKhWkThVw+ZX6EEjtKgCaSeynYIZVHhVsN0HTHaI2sktq6o6fYFxVyFmUYxp5ZCbVISMi++NK1abj70tW4Yt0yJMUvkYnkHJXTuTEnA+tEq8fUuBGioTFxAdKsZbQcibdkd+wjfwt2iKBHhVsqzDJZIzfsRomXPLECqJsWfxoXcik+jEBLEyeXmfnPrAgPNVxIQuh5q4LcTNx2YRau2pCOC0XoddtFK2SIlbMyxSQ69Bm9xUOtlsmh50ga0Rxzo6cAWqNnH/ZQc6e03JTw9cu4KB+5Js3xYx9ltSeJlh+yJrUJrcXFMPMdx4VHaofSDdKPBHEE2y6kXM5a3HdFNj5+9QXhLR0BfWxMCQ8CMQoPjbcx5XWUINjmaCKjh1u1QmNKLRlfl2yeVKHCEL41lLlFK0i9mQSu4mrRMvOixG18JotCOhHOeTiEY+Y/jggPyYQuFTQieXhkTHad08hlKqNjY1Js3itaPaNCXOhRCcr16IXet/eNoLNf9WbFKQGKBT2xLIsQhPz6iT9WocItr9emp6mgUuZzvCXu4H4q8nxTzPHQ4x8UFlah0HDsTeUBVBepTRhmHuPItBjU/f368W58ta5FjsfJSE3QmjACcU+pf8NbMbpgBcR/fcNjONYxiDYhQN/7UK4MxRiGiY1FOS0GzRp4QUYytl2UJYWks1+0XgZEEYLUMTAqXot/1bIuUUioutW/XYPav4MjAaxNT5I5IUpMMwwzf3GkxUPQTmhXwyJaCuZqbLBp+AShaTLokQnZvT5V6BkpGh4cAU+Nb5p6qRhm9lmULR6CtIKEg1o/NG4nUtEmALMvNGXqtIgOoaajiFRYdBhm5nC8V4thGIaFh2EYx2HhYRjGcVh4GIZxHBYehmEcZ8a60xmGmZssqu50hmEYHRYehmEcZ1pDLYZhmFjgFg/DMI7DwsMwjOOw8DAM4zgsPAzDOA4LD8MwjsPCwzCM47DwMAzjOCw8DMM4DgsPwzCOw8LDMIzjsPAwDOM4LDwMwzgOCw/DMI7DwsMwjOOw8DAM4zgsPAzDOA4LD8MwDgP8/zF+buLecjwFAAAAAElFTkSuQmCC;" vertex="1" parent="1">
          <mxGeometry x="671.12" y="280" width="137.77" height="316" as="geometry" />
        </mxCell>
        <mxCell id="uRrWmLtxYyDdxlRz5IdK-734" value="Gold Stage" style="rounded=1;absoluteArcSize=1;arcSize=2;html=1;strokeColor=none;gradientColor=none;shadow=0;dashed=0;strokeColor=none;fontSize=12;fontColor=#9E9E9E;align=left;verticalAlign=top;spacing=10;spacingTop=-4;fillColor=#E1F5FE;" vertex="1" parent="1">
          <mxGeometry x="850" y="240" width="560" height="470" as="geometry" />
        </mxCell>
        <mxCell id="uRrWmLtxYyDdxlRz5IdK-735" value="" style="shape=image;verticalLabelPosition=bottom;labelBackgroundColor=default;verticalAlign=top;aspect=fixed;imageAspect=0;image=data:image/png,iVBORw0KGgoAAAANSUhEUgAAA4oAAAKSCAYAAACUfyW6AAAAAXNSR0IArs4c6QAAAARnQU1BAACxjwv8YQUAAAAJcEhZcwAADsMAAA7DAcdvqGQAAKzTSURBVHhe7P0LdGTleeB7P0VzM3bjBoNN29ytaowQHXqFjHFpxoz9nTCWOs7I40R2TJK2WaQEx+FU+Xzpb+JZOh9mptdyMpwJVZNgrPI5BjkHbGslg5y4VYnnmxA8UZmMYZqLEKAq3BDaxjZXg900NKBvP+9+36q9t3ZdJFVJVdL/57Wt2vddhbq0n/0+7/MmFj0CAAAAAIB1jP0JAAAAAIBBoAgAAAAACCFQBAAAAACEECgCAAAAAEIIFAEAAAAAIQSKAAAAAIAQAkUAAAAAQAiBIgAAAAAghEARAAAAABBCoAgAAAAACCFQBAAAAACEECgCAAAAAEIIFAEAAAAAIQSKAAAAAIAQAkUAAAAAQAiBIgAAAAAghEARAAAAABBCoAgAAAAACCFQBAAAAACEECgCAAAAAEIIFAEAAAAAIQSKAAAAAIAQAkUAAAAAQAiBIgAAAAAghEARAAAAABBCoAgAAAAACCFQBAAAAACEECgCAAAAAEIIFAEAAAAAIQSKAAAAAIAQAkUAAAAAQAiBIgAAAAAghEARAAAAABBCoAgAAAAACCFQBAAAAACEECgCAAAAAEIIFAEAAAAAIQSKAAAAAIAQAkUAAAAAQAiBIgAAAAAghEARAAAAABBCoAgAAAAACCFQBAAAAACEECgCAAAAAEIIFAEAAAAAIQSKAAAAAIAQAkUAAAAAQAiBIgAAAAAghEARAAAAABBCoAgAAAAACCFQBAAAAACEECgCAAAAAEIIFAEAAAAAIQSKAAAAAIAQAkUAAAAAQAiBIgAAAAAghEARAAAAABBCoAgAAAAACCFQBAAAAACEECgCAAAAAEIIFAEAAAAAIQSKAAAAAIAQAkUAAAAAQAiBIgAAAAAghEARAAAAABBCoAgAAAAACCFQBAAAAACEECgCAAAAAEIIFAEAAAAAIQSKAAAAAIAQAkUAAAAAQAiBIgAAAAAghEARAAAAABBCoAgAAAAACCFQBAAAAACEECgCAAAAAEIIFAEAAAAAIQSKAAAAAIAQAkUAAAAAQAiBIgAAAAAghEARAAAAABBCoAgAAAAACCFQBAAAAACEECgCAAAAAEIIFAEAAAAAIQSKAAAAAIAQAkUAAAAAQAiBIgAAAAAghEARAAAAABBCoAgAAAAACCFQBAAAAACEECgCAAAAAEIIFAEAAAAAIQSKAAAAAIAQAkUAAAAAQEhi0WNfAwAAAFiBRO5++wpYH4vZS+yr9qBFEQAAAAAQQosiAAAAsEquRXExe6r5CayVRO5585MWRQAAAABARxEoAgAAAABCCBQBAAAAACEEigAAAACAEAJFAAAAAEAIgSIAAAAAIIThMdqEQVbhtLs0MQAA6H5rPTzGSX/2grzyeuu38XpdB196U847mXaijYbhMQAAAAAsO0hUGky0GiRW8v9GEmN32TmR4tg5kkh8Xop2vlvodQ3mn7BznRH9LDYTWhTbhEFW0amnOQAAoPut5b2gu+dYrlavTYOj5Px1sjjxIbukO2mguK//bpnNnGuXtF8vfBa0KAIAAAAwrr7szNip3jpguQgUAQAAgA3kF6+/YV+1xk8ttdPgV6VslzvRFE9//i7JD9b2G9O81MpXZdAdZxmpqia9s7qfPZZZETyeN3nXVrGr6gkf699IvrrDE+Z6x4r+z6Xrfc0+i8bX5M5xl4yZ9d2XrrscBIoAAADABvLWY7fYV81pYDQ8d72UF5+URZ3GyzKcvc+ura+U/VORSX+fcu6XpTDsBUZ7vEXmOHdLLnWHDLfQt8+kdmYvkBl3/vL10u/W7S/LaNku12PKDZJscExzrKlfq72XmQskmwwHa4Xh/7163TPp+yS7pxbotfJZtHJNc/u+I/1mmy/KkF3WiwgUAQAAgB7zf91zKHaqty7eXTJd+GXJTV4lfXaJDH3RC6Ds60bS10nG7tSXuU50l/S4O865khn/lBcxHWzSAniX3OgFYumZQEDVd5Vk7Exf5ovVczQ/ph5LIu9lzASs04FIMZX7k+oxh/ZeL6lS2bYatvZZtHRNo2OBbXoXgSIAAADQY7QwTdxUb12sykGZkwtkRySoSfb/sn1VX6r/PPvK+WXpT9qXrSp+RwryKRlp0OwWSiUdvsMujWGOdZ9kk3ZbM10u2ZJdbw3siBa+eUwWNMpbxmfR7JqWnqM3ESgCAAAAG8izR960r5oolyUSR3URv59fOJX0U3ZdPZ+qpbAGpolW8j9b+ixWck29i0CxS+h4OFrattVJ6aCpAAAA2FyOSSTsq3inndjiLX4yKSnXohZQnm/eR7Et6pzfMC18XuA3W0sFrSw8Zl/FaHSsVrTyWSz3mnocgWIXYNBUAAAAtOqNzClLGhHcpOKWx6af9l0l45GCLlL8vAwX7OtOc+cPFpypfFXy1ZlA4OYt39OoyE7csbQK6VjzSqlGy5/FMq6pxxEodoHlBomrNTShTeW9XYWpI7wvg1bKLgMAAKy3aB/EZlM9QxO2cqfrczd9haliulb0vnQmfYcMu/Mnvy2ifR29wG0yJ7U+h1pRtUma55JjJS6Xqf4P14rTNNH0s1jBNfWyxKLHvsYqJHL3m5+N/iHWo0956g2EqlWq4tbp8lbPZUoFz18nixMfsksQSwPFfUkpB9IJlkP/O6rF7CXmJwAA2DxWcy8IrEan7kFpUewBPTVoasNBSH2hSlHeVB1U1bOcdcF0Wr9zcWTQVHMt7robD7JqPjOtWlWyT5FaGPcHAAAAzbjB55dOwfs8dB8CxR7QU4OmNhmE1LRu1htUdTnr9Nhzn152QFdvkFWTjqupAyn72dH6CgAA0AYfkonq/Vt4aqkaKdYNgWKXCA6IGpzqrYu33oOm6r6NBiFtNKhqs3UiuXKwX6V37MnrJVX4zrKK8tQfZBUAAACAQ6DYJTSfPW6qty7Weg+aaoVSRIODkDYaVLXpuqXvS/rOk4FllkGuO8gqAAAAgCoCxR7QO4Ombq5BSAEAAICNikCxC2yYQVObDULaaCDUlayr04Jate6BMwAAANCbGB6jTVZbEtmVtW1VvfNUi9m4YE2HfND0z/Rt1QItus2+/rtlNuOnYUbn/ZbBP5X+8n+p9TdsZegIrTKa/LaMuv3M/A1S0gIxdj9zfQUvmHTjOHrb5Mt+X8RlrTNVTC+XqVF33f58dsC9T30PnzbprP4+/vr58UDH6ej1ms9KAudYHobHAABg83L3gsB6afc9KIFim3TP2Dk2YHJNaV6AWO7/09A4ih0LFD1+dVLbgqkB4nhZkpH9/KDPzsgvSy5wnkbrQsf2pHLBa1YuOFRegFhOyr5kWcZbDRSDn10gsG4VgSIAAJtX7V6Q+wCsrU797hEotkn3BIpYLwSKAABsXgSKWC+d+t2jjyKWyS9YExws1U0MmgoAAABsDASKWCYGTQUAAAA2OgJFAAAAAEAIgSIAAAAAIIRAEQAAAAAQQqAIAAAArIHDR9+Uie89LVfe/oh88Ob7zaSvdZmuA7oJw2O0iStLC1AWGwCAzafZEAX3PvWy3PCdJ+Xpl161S8K2n3yCXH/FOXLpWVvtEqA1nRoeg0CxTRg7B/wOAACweTW6D9Ag8dq/LEvwtvudbz1Ojj1G5EcvH7VLvGMkEnLLx5PxwWIlL4PJrJQkJbnyrGT67PKgVrbBhtOpe1BSTwEAAIAO0ZRSbUmMts1UXhL5q6t32jmfbqPbkoaKbkCgCAAAAHTIn9/7k7rppnF0W91nib6MzHqB5OIiLYVYGwSKAAAAQIfc/fiL9lXrvvuDmH00rTSRkERiUPIVu0wqkh/UZf40tt8uBtqAQBEAAADokEM/a7010XnqxVb20SAxKdmSnfUUsto/EWgPAkUAAABgjZx47DHy0hvHyQOZi+S8Wx+R+xJblkz//ajIeV+dt3vUUbyxGiSmZzQldVHKuZS/AGgDAkUAAACgQ87adoL5ecKWhAkQ/+G6XbLwBzvll/IPyxOB1katWBmsWvnES6/ZV/EqC3P+i1RO9g75L/sy45L2XwKrRqAIAAAAdMgHz98m7z97q3zrqotNgPibkw/LpTfdJydvqQ2LoQGiDnGg06qGOKgsiA0fgVUjUAQAAAA65HcufZccProov39n2QSIB58/YtesTt+OAf9FaUr22+I2lf1T9FFE2xAodph7OuTc/8wr1WU66bxy88fmH5CtNz9oXofEVrqKaGUbAAAArJmTjjtGPjv4bnn8ufoBot73udTTJfeA9QyN2DTTkmSTftXTZLCyDbBKBIodpP/Q9/Sfaud8u25/TF649mLzRXDgygvMvHJfDkeu2ymHrr7ILAMAAEDvu/SsrXLLx5Oy/WS/v2KclgPEqiGZKOekVr4mJbmZ4DywOgSKHXTwqn657Yqz7ZxPg8FtJ2wxr889+XjzM2jRm7bd8pDZLoRBVgEAAHqWBovf/N1++b3L3i07Tj9JTjrevx90ltz7RcXdC1aX2eVD3C+ifQgUOyguEAw6xQsIr7/sDDvnP0naXnhYbrr8PXZJAIOsAgAA9DRNQx37wHa547cvlO9+9pLQvaLeBwZbFZvdRwKdRqC4Dl589Q3zRZDZdbp8IRAo6pOkZ68ZkM/d/UPJelNjDLIKAADQyzT7TO//4iZdB6wnAsU1psVrtCXxzo+eJ996/GfVp0fBSeUPPGN+1sUgqwAAAAA6hEBxjWnxGi1iM/Let4cGUnVPj1rFIKsAAAAAOoVAsYM0fdS1EOpPNxSGBotuudIA0bUmLidYXIJBVgEAAAC0AYFiB+Uuf0+1pVCnS05/S2h+NRhkFQAAAECnJBa1cxtWzbUQLicAjLYqqrhlhlY9TWqxmpTkylryuChjiWEp2NVhbhs7izWxkt8BAACwMQTv4YD10O57UALFNlltoKh039YDxeAypYOsjsrUcGQbrBkCRQAANi/uA7BeOvW7R+ppl2j6H5ZBVgEAAACsEQLFdcQgqwAAAAC6EamnbUK6AfgdAABg8+I+AOulU797tCgCAAAAAEIIFAEAAAAAIQSKAAAAAIAQAkUAAAAAQAjFbNokWLEUmxud2AEA2HwoZoP10qnfPQLFNuHLAfwOAACwedW7D4guv/+ZV2TX7Y+Z1+rAlRfIJae/pbrdlkRC3nJsQn5+9M2W7ikq+UFJzo/L4sSQXYLNplP3oKSeAgAAAB2gN/B7+k+1cz4NEl+49mJzU69BogsadV6nI9ftlENXX2SWAeuJQBEAAADogINX9cttV5xt53waDG47YYt5fe7Jx5ufQZrqt+2Wh9reOgQsF4EiAAAA0AFxgWDQKV5AeP1lZ9g5vwVye+Fhueny99glSxXHEpJI2GkwL2W7vKqSl0G33m5TsavMvmNFO+fT1FXdBogiUAQAAADW0IuvvmGCwsyu0+ULgUBRWxGfvWZAPnf3DyXrTVEa6A3P5aS8uChaZmRxfF6GsyW71lfZPy+jZbt+sSw5yUrSBodDI2mRuYVq4OhtLfunSpIez9h5oIZAEQAAAFgjWsxGWxLv/Oh5kqvTcqgBY/7AM3bOKcp0ISW5yYz02SUyNCEzXuwX1JeZkEx1gz7JjAeCw6ERSZemZL+LFCv7ZaqUlhHq4CAGgSIAAACwRrR4jRaxGXnv2+2SWgujo8HkEpUFmZMB2VENAn3J/pR9VWPSSV3q6XDBLlVDMpIuyZSNFCv7p6SUHvGWAksRKK6hw0fflInvPS1X3v6IfPDm+82kr3WZrgMAAMDGoemjLgDUny4A1GBR592kxW20Oqqbd8FkSHlewkmmcYoy5gWHyanRWnpqpMlR009LU/ul4tJOaU5EHQSKa+Tep16WT3xtXr5yz4/ksZ8elsOvvWEmfa3LdJ1uAwAAgI1BU0s1jdRNOl5icN5NSqujapXUL334TLNMtw1J9ktK5mSh1sHQKM8HwkfT6piWmdlaemplYc6+slz6aZG0UzRGoLgGNAC89i/L8vRLr9olIu9863Hy7q3H2Tkx63SbRsGiX+VqTMK1qhpbyT6tMmkNkcpZAAAAWBmtknrtztPsXERfRsbTJcnuqVUx9W70JJRZagSCyUpe9kSK3VTTT/eRdorGCBQ7TFNKb/jOk6bpP6jykshfXb3Tzvl0G922Xhrq0ISmEEws6x/0SvbpGO/LLFiiGQAAAK0bmrBVTF3/w+kRKecCfRS9YHIyJ5JN2vV7RCaj1W48Q3u9jbz4MbeXMBH1ESh22J/f+5NQS2Izuq3uAwAAAIT1SWbW9j3UaWLIiw1nzU/HzLv1moI6NOH/tOsN7e+YGpXdkcI4QBCBYofd/fiL9lXrvvuD+H00jXQwH26PC1W10imSChrepyL5wYSMFf2f/j6DEjlkXX4aq51WMsCr5kaU7FOwwHWG30Pr1wMAAIDl8u4D9xUkNbo7HDwCEQSKHXboZ623JjpPvdjaPhpgJbMDMuOeGumgqnPDTfsNFoY1D8HfZyaa616HBnqrGuBVU2A19SFlj2GffJn3EKrMNSDZZGf6VAIAAGxm/kP/pGQHZmS2NtgiEItAcY2deOwx8tIbx8kDmYvskpUqyo1ZkVw52P+wTzKTOUkVphsGWqncZHUgVs1RT5Xml7YOhrRhgNdY9j2EjrtXcqmCTBMpAgAAtJVfu6L2wB5ohECxw87adoL5ecKWhAkQ/+G6XbLwBzvll/IPy3DhQbMuyu3TUHFaCjGDrkrfDm/p0tLJQQNLdmq8fXsGeI1h3kOp1uHaTElZUpwLAAAAwJoiUOywD56/Td5/9lb51lUXmwDxNycflktvuk9O3nJUfvqLo3arMN2nq7RpgNd46UDqbG3iQRcAAACwfggUO+x3Ln2XHD66KL9/Z9kEiAefP2LXxNt+8glmn6bqDLpar/VvVdo1wGtUvfcAAAAAYF0RKHbYSccdI58dfLc8/lzjAFFp6uX1V5xj9mnKDboaKvxSkfwe7fS3t73jJrZtgFdPsD9kvfcwxliLAAAAwHoiUFwDl561VW75eNK0Ftaj63Qb3bZV2iG5nJuT4UD/vqnRckeqWLVlgFdbqMZcb6Aa6kzaLjOT9x76KdcMAAAArKfEonYIw6olcvebn4vZS8zPOIePvmkG09exFd2wGVq4Rvskarpps5ZELWm8r78zgSBWr5XfAQAAsDFxH4D10qnfPVoU15AGgmMf2C53/PaF8t3PXmKm26+80Cxrmm5aycu+QkpGd3cqSPSL0fiteuGpybCMAAAAADYYAsUekUhmZWBmNjBOYbsNyUSk8qibqEAKAAAAbC4Eij2CgA0AAKD3aFqgSw1U9z/zSnWZTjqv3Pyx+Qdk680PmtfdqyL5QbLONjoCRQAAAKADNNjb03+qnfPtuv0xeeHai01/sgNXXmDmlc7rdOS6nXLo6ovMsq5RHJPEIFXpNxsCRQAAAKADDl7VL7ddcbad82kwuO2ELeb1uScfb34GaZXJbbc81PbCJMByESgCAAAAHRAXCAad4gWE1192hp3zWyC3Fx6Wmy5/j10SphXwB/NFk/YZKjpYyctgtRBhcHxqXyU/WN3eTKGcUZdG6v/0txmUvG0+1HMmdPDskh0mLWbf6D7YGAgUAQAAgDX04qtvmKAws+t0+UIgUNRWxGevGZDP3f1DyXpTnFJ2n8ikX3BQx7QuDHtBmo5fbYoQlv0xqwPBnAaJyeyAzNgihWabueFIwCfeccxBzDYz6ZJk9/ippjrm9aKOjZ3KSVn3DxTNqLcPNgYCRQAAAGCNaPEabUm886PnSa5Oy6EGjPkDz9i5iPR4tQp+X2ZcvBDOW5QRf1GfZMa9JXMLNmAryo1ZkVx5QmrhnbfNZE5ShelQy2MqN1k97tBeb31pXsr+bF0r2Qe9g0ARAAAAWCNavEaL2Iy89+12Sa2F0XGVUOOk+pP2lZOSJYuc4rQUZEB2RIdX69vhLZ2ThUDz38CSjcLr46xkH/QOAkUAAACgAzR91AWA+tMFgBos6rybtLiNVkd18y6YBNYTgSIAAADQAZpaqmmkbrrk9LeE5t2ktDqqVkn90ofPNMt021VL9ksqrpWvsuAtjWlpBAIIFDvMPRlyNsYgqwAAAGg3rZJ67c7T7Fwb9GVkXIvMJIOVUCuS36MdF/cG+i22gP6Hmw6BYgdpsLchBlkFAABAT9KqpeXcnAy7oTESSZkaLcusq0LTiqG9fjXVJcNjYCNLLGo9W6yaawF06QPqiZdeM0+GdF1wuaMdl7XqVXDd0TcX5fj//EDs9uhucb8DAABgc+A+AOulU797tCh2ULsHWQ0PpupNg0vHqjGDogbWF3WA1ciTn/CgqwyOCgAAACCMQHEdrHSQ1cr+eRkt+4OamsFSJSvJQBCoQeLwnB0MVafxeRnOluxanxl0dWq0ts3MQCRvHQAAAMBmR6C4xlYzyGpfZqI6qGncgKrThZTkJt2Aq56hCZnRUVir7KCroW38nPNpIkUAAAAAFoHiGlvtIKuhtNHhgl3qqVPmONmfsq88ZtBVrXzl0k51Skqk0REAAADAJkeg2EHtHWS1KGNeYBdOGw00F5bnvRCwFWmZcfsHpoll1UcGAAAAsJERKHZQWwdZNS2GXpA3W0sbrSzM2VeeOgOqlucD4WO9QVcBAAAAIIBAsYs0H2Q1EORV8rInmDPat1tGUyXJ7glUQi2OSTA7te6gq2NLq6cCAAAA2LwIFHuFF+RN5qTWv3CPyGSoUk2fZGZtJVTX/3B6RMq5QB9Fjw66OpO2A6aaKSlT/btrxW0AAAAAbHoEij2kLzNb61eoKahDE/5Pu94PFgN9DyeGTOppqj9p1/s0WKxu402ztVKqAAAAAECguKGZ1NO0jBMIAgAAAFgGAsUNRAfcrw174U3DIjOLE0JBUwAAAADLQaC4gURTShcJEgEAANB2FckPJmSsVh0RGxCBIgAAANAhJ/3Zg2ac7NMmasOaubGzj8k/YJf4Tv3ynFmu+3SV4pgkBqmSv9kQKAIAAAAdoAHfK6+/aV4/98rrJggM0gwwt0x/vnDkdfNa94luC6w1AkUAAACgA1yQuJi9xPwM0mWNlset03oUg/miSft0NSlM+mclL4PVOhXB8bJ9lfxgdXszhXJGXRqp/9PfZlDytvnQ1MDQgblLdgi2mH2j+9TX+FxG6L14U6Qlsz2fQSvXCgJFAAAAoENcwBcN/M679REzLVcpu09k0q9HoeNlF4a9wEfH1zb1KcqSSxVkOBDMaYCUzA7ITLWGhbfN3HAk4BPvOOYgZpuZdEmye/wAzdTA0LG7Uzkp6/4TtQoY9fZpptF+lf3zMlr215lr1THCI9e6os9gatS/fp1mBiSbXBpMIoxAEQAAAOgQTSF1U9DBz1xopqh//PFhM33/J6/YJRHpcXEjn/VlxsUL4bxFblztPsmMe0vmFmzgVZQbsyK5crDAobfNZE5ShelQoJTKTVaPO7TXW1+al7I/W9dK9lGN9uvLTFTXLX0/1ko+g8nA2ONDe00wOU2k2BCBIgAAANBBcWmkLng89piEXeK77BsLZvpnX3/MLglL9SftKyclSxY5xWkpyIDsqEZIVt8Ob+mcLASir4ElG4XXx1nJPqrZfqE0UU17jVj+Z1CSbNIez0xJyZbsetRFoAgAAAB0iAsSv/Xr55ufUfdf+T7z8/VMOJh8+bM77avNpChjXiAXThPV9sLVSgdSb2tTIIsWMQgUAQAAgA4ItiT++vknh/oruumid5xglm1JhJe/7bg23KYn+yUV18pXWfCWxrQ0rjdzXV5QN1tLE60s1IYVWZF6nwGaIlBEU6b5P9KJGAAAAF2uLyPjWiwmVLilIvk92mlvb6DfYgta7H+4eoGgrpKXPavNEa33GYwxLmQzBIodtiEGWQUAAEBP0qql5dycDAf6502NlmW2VjGmOVv8xRyjk40HXlA3mZNaf0KtZNqG1FP9DGbS9vrdZ9C/u1bcBrESi5qgi1XTAE9pqoATHGTV0fVuWydumQoeaz2ZksLz46FyyFgq7ncAAABsDtwHYL106nePFsUOavcgq8oMeuqehgzmpRiTFhqqFBUaULSFQU490XPEpRk0P4ffGVkHPAUAAMBm4e4Bl070ZOotBIod5gK+aOC3kkFWNYAbnrODneo0Pi/Dkbxt0/rXZEDRRoOctuscc/umpd8MljphlwAAAGDjG5IJd48YmUhO6y0Eih2mTcFuClr+IKtFmS6kIoOFTniBnn1ttDagaP1BTtt3DhndGxgsFQAAAEAvIVBcA3FppC54bHmQ1TpljJP9KfvK0+KAonUHOe3oOQAAAAD0CgLFDnNB4qoHWS3Pe+FZK1YxoOhanAMAAABA1yNQ7KBgS+KqB1mtM1hoeT4Q2q12QNG1OAcAAACArkeg2Cv6dstoKlx4RopjMlywr9VqBxR1+3fyHAAAAAC6HoFiz+iTzGxZcpKVpOsbOD0i5Vyg/6BntQOKDk10/hwAAAAAuhsD7reJq2qqaaNrSYez2NdflllKjK679fodAAAA64/7AKyXTv3uESi2ybp8ORTHJDEsMrM4IdSRWX/8gdh83H9zYCPguwtYHe4DsF469btH6mkP0dZDP9XTTgSJAAAAADqAFsU24SkS+B3YfGr/zU81P4FelMg9b37y3QWsTr37gOjy+595RXbdXhsv+8CVF8glp7+lut2WRELecmxCfn70Tf5doiWdugelRREAAADoAL2B39MffpioQeIL115sbuo1SHRBo87rdOS6nXLo6ovMMmA9ESgCAAAAHXDwqn657Yqz7ZxPg8FtJ2wxr889+XjzM0hT/bbd8lDbW4eA5SJQBAAAADogLhAMOsULCK+/7Aw757dAbi88LDdd/h67pMbUqhirjWKtKvlBSQzWxrI289V6FoOSDw5yXcnLYHWdNwX2M2NiDyZkrFiUMbN+zC7HZkagCAAAAKyhF199wwSFmV2nyxcCgaK2Ij57zYB87u4fStabgoZG0iJzC6Hgbv9USdLjGTOWtQaJyalRKS8uipYgWZwZkGxyTFxoWdk/L6Nlu27RjpsdCTzn9k1Lv9lmwi7BZkagCAAAAKwRLWajLYl3fvQ8ycW0HCoNGPMHnrFz1tCIpEtTsr/afLhfpkppGTHl74tyY1YkN+kHjcbQXsmlCjJtY8G+zITUht3uk8x4NPD0jO4NbIPNjkARAAAAWCNavEaL2Iy89+12Sa2F0dFgcqkhGUmXZMpGipX9U1JKj/jDpBWnpSAlySYDqaWJpGRLZtOqUGrqcMEurRnYQZSIGgJFAMASJ/3ZC95Ny/MtT+rgS2+anwAAn6aPugBQf7oAUINFnXeTFrfR6qhu3gWTUZp+WpraLxWXduo3J1ppmXFpp4FpwrY4at/DcGpq2uwF1EOgCAAI0SDxldeXN8SuBovnnRz/J6WS/zeSSJzjTZ+v9pVZT8Wxc2Qw/4SdA4DO0dRSTSN1k46XGJx3k9LqqFol9UsfPtMs022XcOmnxWDaqSfZLymZk4VQHmlAZcFb6wWSs7XU1MrCnH0FxCNQBACELDdIbKjyVdmj/WbKT8ri4hf9FKlGip+XxOBXw31mAGCT0Cqp1+48zc7Fsemn+wJpp6ovI+Pe8mDxGu8LWPJjwcqmgUCykve+myN5qUAEgWKHnfRnD5oUgtMmak9tXFrBMfkH7BLfqV+eM8t1n65UHIuUUgawUV192ZmxU711jV0gdHsBgPYY2psT8WK83N7wo7ehiUWZSRdkONBHcap/t9+C6AWSk95u1T6Me0QmST1FEwSKHaQB3yuv+312nnvldRMEBml+uFumP1848rp5rftEtwWAbvGL19+wrxozKafJG7z7mTu8G5dzJDF2l11j15l0VH/SCu2aEpoYvsO7AbpBkpHtY2nrY/UY/6Y2XljlqzJYXe5NLbRQhq8ncCxV7zwAsB7K81JKjcrumAdwGiwG+yfOBkqY9mVma+s0BXVowv/pr5XMrOvPCPgIFDvIBYku9zwomJMe5JbHrVPhgVR1YFS7whNdFx6UVTsxxw286lIU3ECr/k//GLXtzSCvWh2rlPVu4Nyxlw7OOtZgMFgAG8Nbj91iXzXWl/kvsli+XlLyKZlZfFIWJz5klmtQlsxe4C/Tydum31s+NOG9nvmUSOp6KQe2j6XB4PBjNqVV9/s1u8Jbtb8so2754t2SEy/wbBB0muuZ+jX/nOZYF0g2aftTNjgPAKw9795rX0FSo7alEOggAsUOcwFfNPA779ZHzLQcZiDV7ECtolU5Z26uYtfpQKpzw0uCtmYKw5qL4B9jRnPd9/ippuYJlaYopHJ+tazAI6fg4KwTDQaDBdA7/q97DsVO9da17i65MXufpGcC/RX7rpLMip5iB1Jah7xj2Nd9mS8GxgE7VzLjXvA5dzDwvRSk16Njj11Vu+kaGpNc6o7q2GP1zgMAa8k8tNchLwZmQi2FQKcQKHaYppC6KejgZy40U9Q//viwmb7/k+j4OTqQqhdwzUyEOi77N1d2kNVyYJ2mEEzmJFWYti2GrUnlJqs3QZoDnyrNS9mfrS84OGvDwWAB9IrF7KmxU711LSt+RwryqdV/J/R9WEa9YE5TWuOeh4VSSTWdtR5zPfdJNmm3NdPltbHHmpwHANZKNa2U/FCsEQLFNRCXRuqCx2OPSdglvsu+sWCmf/b1x+wSywykWifgMusGlhaL6NvhLW1QKjnG0oFWm+8f3qfBYLAANoRnj3TDeInnSmb2SZO2OjeswZ0beuMuGfOCunAq6afMmvpsamxk8u/F6p0HAICNjUCxw1yQ+K1fP9/8jLr/yveZn69nwsHky5/daV/1nsaDwQLodsckwg+wok47cRV/OpJJScljy3qA1VDfVTKr/RBTd8g+HRuxclDmNPCbraWSVhYiD96CWr2e6HkAANjgCBQ7KNiS+Ovnn1yd159uuugdJ5hlW7z7suDytx0X+U/TaCDVeuvM4KoxLY2OVs2yL9uq3mCwAHrCG5lTRAfQj5tU3PKW00+9gGs8ramegZa5ylclH2ymK5Wbp7wXP78kFXRgx7n2VSDwM+M43mdnYsRdjzwh+TFbKbXheQAA2LgIFHtF3ECqlbx/c1VvkFUzyvVem/aZlP6Ut82NbouijGkV0+Vqpc+iSz+NDgYLoGdE+yA2m5ZDq5vOpO2QGTolv61fUXalX0gmOpzGEsmkTQXV6XKZGr3bTxX1Aj9/rDC7zowV1jj1dMn16PH6P+y3SNY7DwAAG1xiUXvFYtVcsRptDewkrXhVi+9SkivPVgvJ+JVPa22EqVw5UhVLh7EYFn/3tMyU+2Vfcl7GF7UIjg51kZT58cAYOjp8RnJKRqvn8Lcxp0jPyOJEcuk+zpJ9N77o78D9z7wiL776hvz9oZ/Lz7yfOr/thC3y9aFz5MRjeUazEdT+my8vUAK6ibYIq07//QI2urW6FwSiOvW7R6DYJnw5RBTHJLGvX8rVgVw3Pvc7cNn2t8o9T/9CLjn9LSYwvPzMt5mfOn/t3x0ygaK+Ru8jUOw0LUzzaftwKyw944rNYLUIFIH24F4Q66VTv3s0a6ADNvdgsEdef1MOXHmBme76jT75wmVnSHbX6fIvvYDxfaecIE+89JrdEkBjH5KJmGqktYqkAACgUwgU0VYMBity7snH1w0G33fqifLo80fsHAAAANCdCBTRVgwG2zgYPGfrcfLky0ftHAAA6BWaMfSxvz4ot8376dqt0rRAlxqotGaBW6aTzis3f2z+Adl684PmNbCeCBSBNmsUDNKiCABAb/ql2x+TF197U2YOviTnfnW+pYBRg709/eF+7Lu847xw7cWmP5l2U9F5pfM6Hblupxy6+iKzrGto7YnBvD9sEDYNAkWgzRoFg9pH8dEXXrVzAACgF3zpgWflx4dflzt/7VyZ2n2u/P1v9MnXH3tBTv7SgyaArOfgVf1y2xVn2zmfBoNa5E5pd5UorTK57ZaH2l6YBFguqp62iUsP4B/15uV+B57+vYtk1x0L5mfcEBk66ZNEpevcHwv0HtKCsJHw9wuIpymnZ/3f81L48JnyseQ2u9SnNQk+WXxSHnn+iLzk/U1Xcf+W9O9FveXXX3aGKXzn5t9x4rEy/v53mUJ4cUJDpaVyMjM6JcPz47bbjw6Ftk/6g8OTmSHL3HBobj4r1QHVvGPUqtS74dJmRIZ1SLW0pNMFKQTLT5sh0vwuRuGh2YLDti09zqJ3fnSGux9p9/c4gWKbdOo/EHpH8HfglFseMkFg3BAZ+vTQFby58GuPmj8EXxzcbvZFb+HfPTYCfo+Bxq76r0/J3Ydelsc/02+XhOUOPCMHfnpYvvbIC2Y+7t+S/jsLLtd7BL1XyHj3ALnL32OX1uj2cetMkDgXCOw0JVSjxmrw1jxQrOTHZP/uifAY2QNuf39+ygvsRifdNp6YYc9MkDg1GrkWkZnA+NxLjoOO6NT3OKmnQAcE+x5Eh8hwaSbayqhPKf/o+z+RD3yzTN9FAAC6hGb/fO7uH8q7vzInk/PPy/5/fb5dE6Z/x/NeoPiBd7/NLmlOj61B4p0fPS82SFR6D6HHDSvKdCElucnAGNVDEzKTtq9b1JcJBm59khn3DjC34IV2AaN7mwR3Rbkx6wXJoWvZK7lUQaaLdl41PQ66GYEisE4+3X+qCSLPeOtxZoB+TVf9mydesmsBAMB6mX78Z6al8OlfvC6/csZJ5m91nC8/9Fx1nORWafEafZA88t632yV+C6NrFVIaTC5RWZA5GZAdkcAr2Z+yr1qnrYGJhA5p5k3VPNaagehJoorTUpCSZJP2GGZKSjUL1Wp6HHQ1AsU1dPjomzLxvaflytsfkQ/efL+Z9LUu03XYfPSPyyO/+z4TNGpq6mXb32rXAACATtLgTCuXxlUv/eSObSYT6OvD58ovvHu05G2PyGe+80+h7B/XmvjSa2+Yv+dxsnf/sBoA6k8XAGqwqPNu0nsArY7q5l0wGVKer/UrXDFNTU34KaM6nJlOy22SrErLjDtGYNrEI6RtOASKa+Tep16WT3xtXr5yz4/ksZ8elsPel4pO+lqX6TrdBpuP/nG49YqzTcCorwEAQGdocPjlB5+VD/1FxaR/avB3wz0/Nut+/IujZr3SCuY3Xf4eEzDe8uEzzQPd2acPy0emf2D2/cZjL5jWxKFzT5bjt9S/ndbUUk0jdZPWKgjOu0lpdVStkvol73y6TLcNSfZLSuZkITJGRXm+SfgYDDBNq6QX4AX7Gi7M2VfLUOdasLEQKK4BDQCv/cuyPP1SbViEd771OHn31loag67TbRoFi9qBOZEYk2Dqd68xqQ5jK3sHq9m3F8QFiZqKqn+4AABAe3zuuz8ydQKUtgT+zoWnSvr/95Scd+sj1aAx6J+/+61y4794tzx45Q5Tc0CHyfiTA8/IF7xt3/O2Y+VfnbPVbrl6Wsfg2p2n2bmIvoyMp0uS3RMYz7A4VquAaiSlP+Vtc6O7XyrK2JLU0kCAV8nLnmi+aD2leSnbl9VrSQbvSyuSH2OsxY2EQLHDNKX0hu88aZrigyovifzV1TvtnE+30W3rpaEOTWiTvi1tvNZ6caDVXrzmAA0Qf6v4pKmMSt9FAABa54rRuBZCRx/K/ttL32kyef7HJ3eYvof/4R9/LF+Ze86kkmoQWM+Jxx5jWhY1A+g//vN3m9bE//O+Z+QjbQwUmxmaKEtOspJ0/QKnR6ScC/ZR7JPM7IykC8O23+C0jJRzUt3CC/Amc1LrW7hHZLKV1FNbqGZY97EP7fW+dCZtl5kpKVP9u2vFbdDzCBQ77M/v/UmoJbEZ3Vb3AZT2WdQ/ckPTPzDpMdE/eAAAwKeF4a79u0Oy/SsPmz5+WoxGi9JEaaugBnxnbT2uul7nNe3z60PnmPlmtCVSt9Uq5/UK3XSGBoKBPoGxHQKHZMKt1wYGLzicDTQ09GVma/trCurQhP/TX2uOv/SwgfMGVvqNGLVptlritN5x0EsIFDvs7sdftK9a990fxO+jqaeD+WqugOQHEzJW9H/6T3IGpbpaaYta9SlPeF2o2lVonTuu39lZU13HNOVV0xZK9glWIP2z/nF8frqsnQbztZSFFjTdV8cFcuvtNu70Zt8VXnO30D88xZHzTd8IfYqpne3jUmIAAIDINxdeNP0PNSNH/4Zes/O0htVIdRsN9p7+vYtMC6MbvgqAj0Cxww79rPXWROepF1vfpzCsOQP+U5yZYN66BlHDc5Ir26c8M6Nme6WBUrja1UAkx1xkbt+09Jt9J2RCnxZpWkIq5+9jHw81O44Ga2ZQWLd+fF6GW8yDb2Xfyv55GXXvb9GmYgTSIVZyzd1I/9Ad+NQOU0b7+svOsEvRzVzVOkdToNwynVzVOzd/bP4B2Xrzg+Z1y6oPSrr3YQcAtJtm1uiDUy0mE/UJW6n0e59ImuBPH7RqZo5ur904tIUxSv+2rm2LINA7CBTXmLYMvfTGcfJA5iK7ZHVSucnqQKZDe3OSCnY0Do61M5Sx27VrgNRmx1nNoLCt7dvSgLEhLb73LqTV13RgXqqidj8N9rTEeZCmQGl6klax03LnOq9ctbsj1+2UQ1e35zsBADYabSHUYO9jf32wVqn0H5d209GgUCuV6k/tb6iB4Xlfna8Oa3G3LWCz0ZhUUnI80QEEih121jY/5eGELQkTIP7Ddbtk4Q92yi/lH5bhwoNmXZTbpxVLBzK1laz6dsuo7XQcKhTargFSmx1nNYPCLmPfUBppzICxIS2+916ifSv+6Pv0ae0m2sdFS5wHaTDogvy41CYtdbXNu/nR7QAAYUfeWDTBnutPqP0DM5fUqQxqPfrCq6aYzRMvvWYetmpqqT5wBdA6AsUO++D52+T9Z2+Vb111sQkQf3PyYbn0pvvk5C1H5ad1hj3QfVbPdjou52RuWAOiYHpluwZIbXCc1QwK29K+Kx0wduMMDqtPS7XT/udnn5YPfLMcGgQY66dZHxd9Gh5MIdYWyO2Fh81T8FjRvrj1Uk2D2w3m7UIA6B36d0wffurftyD9XtWUUg32NDvjrt/oM90yGtExCP/wV95lgkOtUqrFagAsD4Fih/3Ope+Sw0cX5ffvLJsA8WCTm/ntJ59g9mkbU+mqbNIr9+ndZbsGSG12nJUOCqta2XclA8ZusMFhNY35zl871/wB1Upvu+5YoHWxi2m/Gg0KM97Njlbcc7QV8dlrBsyT76w3hWjwl8y29NCleKPbzv93AQC9QMcz1O8/TRHVfoT68POeHx+2a2v0YZoGe9EuGNpiqK2Nru930BcHt5s+iABWhkCxw0467hj57OC75fHnmrf2aEvA9VecY/ZZteJYOOXUY9JJVzNA6nIGWnXrGw4KW0fL+waCPu+GOnbA2A0+OKz2w9A+b/rHU5/APvAsrYrdSG9gtCVRn2x/6/GfmYAxOql8tNBCtXU92BI+u7T/cDkv++y/j/TMOo21CgArMPHQc6YvoQZ8ruXwjJOOtWvr0+9VHWtYA0yqggOdQaC4Bi49a6vc8vGkaS2sR9fpNrptWyT7bcqpTkmZGi1X0ytXNEDqCgZabT4obH1N9/WCvqYDxm6SwWH16aqm4+hQGjd98N12KbqJFq/RgF6fbOvNkOOK2dRlWsGV+52NSzstSXbYtiamZxizCkDX0YwKrVKqrYdRey48xaTj63ek9vHWlkPtU9iIyaLxvlf1mG4Q/Lrp+wBWLLGoj6ixaq5FoNFN3+Gjb5rB9HVsRTdshhau0T6Jmm7alpZErJtWfgfWg7Y06h9StF/cf3NNHw22DAarnAbpPsH96//+6Nim4aJLqVxZZnfvt2mpKUmlSlLyI0WZCQyqDLSiW7+70Nu0UqkWn/nbJ18OFaHR/oXtoN+rerx/e+k7u2Z4C/4tYb106nePu8c1pIHg2Ae2yx2/faF897OXmOn2Ky80yzZfkOgG9F86RVNmsXJ/88RLct6tj5ifWBu5y99jvqjdpAUVgvPLZwtTLWpruL+kNF8bBEeNTs54IaIqyDD/gAB0gR8fft0UXHNBomZU6DiHy6VppRp0RulDOG1FZAxEoHMIFLFOhmSi2ucqPJE61z7fXHjR/IEdmv6B6eyv6T/oDvr0zwWP7kngEsWx0EMU1083PRL9RzIke11qdmEfA/ADWDPaVzCukJo+JNPKpF8fOsdUKtU+2s0qlTpuDMTtX3nY/O3643t/atcAWEsEisAGpn0X9Ymrpp7qU1mtKBf3ZBbro26A2EB6Jv5hSl9m3LYq+gWbAKBTNEtFWwu1kIymgJpKpU//wq6tueXDZ8onLzhlSaXSRvTYGiBqJVT9e6X9Fd9/xkl2bW/S7/rg970G126ZTq5iq5s/Nv+AbL35QfN6/Wi3h+VleZmxrclq2VAIFIENTivIHfjUDlMhVZ/wkqbTPZqmog5N1G9x79Ohb3SZq4IabKWfMJsAQCdoC9+XH3w2VKm02RiyrdK/UzrAvv7NcmMgarDZqzTY2xMZw1GDa21l1b8BwX7sLsvkyHU75dDVF5llwHoiUAQ2AX0i+71PJE0KENZX8GbKPT122nWjBQCrpV0VNBMlrqVw7OJ3mEqlGsS5SqUreQipLYbRwfX1OHpc/Zu1EcZA1M/ntivOtnM+DQZdK2vc975Wmdx2y0PNHyYCHUagCGwicek/Wl4ca0dvGtxT4+ik6wBgvWgLobYUfugvKmbsV+0fmL//Wbu2Rlv4vuAFis2GsajHDZKvKaau2E3QRnpo1uy96OesQbejDw+3Fx6OHe6jOJaIpHb6hQGDi6Lpn2a+2td96RBLzdbX+KmoiURtLGpzPW7fwXxt3GqnkpfB6rH9bdzhl74Xey3eNugeBIrAJqZ/oHXA4g98syyPPs9g/QCwmWkAp30P3XiH2qL3r88/2bxuB/0787G/PlgdJF8Fx5bdTLTFVoPCzK7TTdDt6EPDZ68ZMH00dbiloKGRtMjcQjXYkuK0aI2zwnQt4CrPl6oFzzTwSk6NStl1S5gZMH3Y3dbN1gcVx5KSlZy3rT8EkwZ6w3M6b/cdn5fh4DhOnsr+eRkt2/WLdnxsGxwueS/eq/1T3rWPZ+w8ugGBIrCJnbglYdJ8zODFdyxU/3ADADYu/c7XqqJRl51xkmkt1EJorlJpO/sHat9DfUCpBda0AqpmUfzhr7zLrt08tHiNtiTq56tDKsXRgDE4Jq+R7JdUaUr22+iqOF2QdC4nqWrAVZTpQkr6k/7rG7MiucmMVEeuHNoruVRB/Liy2fqaalA467b1zxPed6I6hJPTl5mwfehVn2TGA8Hh0IikA+/FiyplqpSWJUW9sa4IFIFN7CPnnmz6gny6/1TTT0RTgRhzEQA2Hg3QtLVQ0z01i0RbrKKteRrAaV92/ZuwnEqlrdJCNRqEHvzMhaYi6mbtl63Fa7SITbAPpmthdFwl1JC+3TKaKok/lK4Ga15gldkhAy7g0hbG1Kjs1uDMtDZqFexA6mciKdVGv2brrbl9gzLsnWemGiR6KgsyJwOyo7rAl+y3wzQFhFJb3RhPxpCMpEsyZSPFyv4pKaVHTGslugeB4ho6fPRNmfje03Ll7Y/IB2++30z6WpfpOmA96M2A/uHWSZ/wavAIANhYXKVSLSCjmSStjmm4XPrQUbNTNL00LtjRIHQzVd/W9FEXAOpP95losKjzbtK/xVod1c27YDKsT3aPpvxUUw3WUv2StAGXBo+VhTlJje6uBXTiBXguNTQw1YZYarbemZMF1/KnyvNeiNmM338ynNoabnLU9NPS1H6puLRTmhO7TsL7D6fFlbBK+o9aaapAnHufellu+M6T8vRLr9olYdtPPkGuv+IcufSsrXYJek2z3wFsPO6/ObAR8N3V+zQI/JsnXzYtdzoFafD2gBekaDASXdcOrkqqBqRuvF4NRrXlcLNox32AtvIWdZzKeoG8FojZIzI+OiX7ZFJmNbezOCaJ6X7JzWVlftwGerpdckpGy24IpYhm673gLT+YNMfbuzAoSU1TddvW2dekqMqMLOoFmG3mZdz2aVTVPpGBFNaxxD7pnxmVqeHwtliejt2DaqCI1ZObDpgpzvf/6aXFS2+6b/GX/+Te6jQ08cDiR7/yQGiZbqPbdoNyLrWoI3s7M2mt1pxerC2x23i/Qm553DbLFT3vcqxm33Zo9DvQy/7wH360WDz4MzuHoI363xybC7/Hve2R515ZvOl//nTxsm8sVP9bZv/+kF27dvQa3Pkv+X8eXfz6o8/bNZuHe/+dNbOYNvdeqcVc2S4q5xZTqdRiKnIPtvS+rLyYS+e8//c1Xu+9Tsmiu63y7/lq25p9U7VjeQu89d6y2g7e9USuUdcH9/HocfTa1/P+bSPo1O8eqacdpiml2pLofdZ2ia/ykshfXb3Tzvl0G922G9NQhyY0bSDwpKeSlz3m6VJt+ZJtup0+gQuUasZS2l/xj77/Exma/oHpv6hPjAEA3eOeHx82/Q3deIfafeD9Z5xkXq+lay5+hyl8Uxw536RM9vIg+d1NU029H64votK+i1Ja0sdP78tm0gUZDvRBnOqvpaY2Wx/Ul5mtbquFS4cmbBVTt+/0iHjBpN3a05eRyZzU+kDuEZn0osKoob3eRiXvfnIvbYndiECxw/783p/UTTeNo9vqPr1haUdmbCx6w/HFwe2mwIGmFGkBhLjBlwEAnaVDVmgfwygtiBKsVKqBWieDNB3iQh8cuvRSxxXCoZ9755kH88HiMt6rzKy3bGnnQvsQvzaZVNWA+uv9YwYP6bb1l9lzun29hRpMBq/BzLv1er1DE5Hr9mh/x2DQi65CoNhhdz/+on3Vuu/+IH4fzf0ezBftgKf+ZIaj0Txw90QnMBCqE6o4pVNkgFNlBj5162MGTfXPbStT6fGSWSmJfQpljxfcxgmfe+lArs3O20jTfUOfi7+NO73ZV6tvlezTsMBn0uyaNxstXX7gUztMnxa9QXj0hdYffAAAVkaLwmilUg3KdCgFHQT/c9/90ZLMDi2C0slKpY4+JNQxEC/82qPVvojA6lQkv68QKcCDbkKg2GGHfrb8m+qnXqy/Tym7T2TSfzqjTfyFYS+Y0eZ888SmbMa/GY4EPcnsQKCqlbfN3HAoMNKgqdmgqUHmCVE5JylXLSvmCZYy524wkOtyzxvUyr4NB3rVp2KaApGyx7Dvodk1b1bvO/VE+d4nkuaJtd6MAAA6S1voNKVUgzINDnUoCU3v1AByremYi5pREhwDUQeKB1bKf9iflOzAzJJWTnQPAsU1pl+wL71xnDyQucguWab0eLXCVF9m3AvVdJFrxo8MZuqFN2Yw1XKw36C3zaQX5BWmbfDT2qCpy9d8oNeVn7cNA73Gan3w2c1If3fjgsT1uGkBgI1EA8G479IxLzC8/rIzTJ8/HZz+psvfsy5DS3xyxzZzXr2WzT4GItqjmvJap7EB3YFAscPO2naC+XnCloQJEP/hul2y8Ac75ZfyD8tw4UGzLsrtEyfVn7SvnJQsWeSYwVRj+hH27fCW2jFxljFo6rI0G8h1Nedty0CvMVocfBZhOoCzPmmODtwMAGhOWww1nfOPYlI5NfX/C15w1onhLOK4MRCjNEh8+vcuMteymcZABDY7AsUO++D52+T9Z2+Vb111sQkQf3PyYbn0pvvk5C1H5aeRjuCO7rNmWho0daUaDOS6mvO2aaDXeK0OPgulT8F1zC7tu6KDA8fdYAAAltJiMK6itL7WMQ7Xi36Xa4Xr8259xFyPppgCAIFih/3Ope+Sw0cX5ffvLJsA8eDzR+yaeNtPPsHs0xbJfkm5lsOgYItcnW3K86sMH+ud21nNeVvZ17xHL+gLVNeqLMzZV3U0u2YsoYUTHvnd95mUVL3R0BsMLXYAAKhPvy933bFghiDS71Ht/33nR8+za9fWNx57Qc776rx8fvZpE7Bq62Uni+IA6B0Eih120nHHyGcH3y2PP9c4QFSa6nj9FeeYfdqiLyPjaU2lDBZjqUjeDIC41++36LbZExhPsDgmzbI0m6p37jF7ntWct+V9A0GfGfcxJggtzdeqpTa7ZsRyNzlakl1Tkv71e99u12xeidz9ZnLuf+aV6jKddF65+WPzD8jWmx80rzcrv7BB48JRJpU8UIgL6FX6vZm55DQzjIV72LZetFiZBq7/8sy3VcdA1NcAQKC4Bi49a6vc8vGkaS2sR9fpNrptO2ln4XJuLjyY6mg5VGGq6aCpK6Tnnmk40OvKz9uWgV5toZrgEB/Nrhn16dhZ633D0w002NsT+Qw0LVfHN1vMXmJuwnRe6bxOR67bKYeuXmGBq25WHAsNS9OIX9ggWHgL2Ni0/6EOa7GWff7i+pJrC6J+d9/1G32MgQggJLGoHbCwaq4lQG/66jl89E0zmL6OreiGzdDCNdonUdNN29aSiHXRyu/AZqTFEbQF7bLtb7VLNo64/+Z6I6bVAHVd3O+CPrnXMdGC646+uSjH/+cHNt7vjgaK+/qlHB1geYXM8DXz41TJazO+uzpLx5/VMQe1UqhWj14POlh//sAzpu+hPqxaq+I4mw3/lrBeOvW7R2SyhjQQHPvAdrnjty+U7372EjPdfuWFZhlBYpRfjMZv1QtPZJ71Fu33olVR9edmGEqjWcl4DRK1xLyjX+7bCw+bsvexKnkZDP4biGmhC1X39abgv5HlrAundeq/wUHJB09mrsWlh1YkP6jH83/6x6htb1JJNR+8ZFv+m/zD1e0HQyezx3DX5r3vapo40CO0QIz2RdRCXzoW4VrTPpA6UL9ObgxEl/oOAM0QnaBLDclEpPKom2hM6C3vOulYc3Pibpi0QupmpC2JGhTqINVaYt7Rp3/PXjNgBtbOelNUZf+8jJbd779NuQ4EXaaVLTtQq9Zbzkn/StbpseeGl90HsDCsed3+MWYCfYdNKqmme6dyfuXhZf7D1SBxeM7uq9P4vAwzVg16hAZjwQdkmmaqg9SvtUdfeNW0JmqfSH1ApUNcbPbuAQBaR6AIoKP0BunAp3aY1FNNwfrQXz5ugqbNRG8atSVRqxrm6rQcasCoqWFRfZkJqXUp7pPMuBd8zS3YVsWi3OgFT+mZQN++voxkzEyzdSK5crBPoHfsyZykCtO2xbA1qdxk9fqG9nr7BwtErVhRpgspyU0GUlaHJrxA1L4GeoD+u9dCMd/7RFK+OLh9XSqJXnPxO0zKqxsDcT2uAZ1nskOW+ZCvU2qZKo2Lk60dl/1iZ7EsBIoAOk5vlu76+HtN0HjTB9+96W5WtHiN9gsaCVSEdS2MTqN0sNofXm8KlvctTktB0jJSi/Zqmq6zQ+QE9e3wli5viJiBJQdpwxAzwSF8ApL9qy+yBawF7QN456+dW31I1knaYvnlB581LZjR9H7N5tCWzPXqGwnfSX/mV7U+baI2TJfO63RM/gG7xHfql+fMct2n55gK8/oQUjNBKE62EfDNAWBN6I2KPlVfj/SrtaTpoy4A1J8uANRg0d0Y6KTBslZHdfMumAzz++omp0ZrKZiboVmtPC8kmaJX6EOfuGqiWkG0kwGantcNkn/t3x0yaf3aFxLdRQO+V2wA/9wrr5vv+yD9XnfL9OcLR143r3Wf6La9IeYhJHoWgSKAdaVPwHWgfk1L3Qg0tVTTSN2kLQvBeTep2644Ww5e1S9f+vCZZtmSSoSmZS0tM4GqoZWF2hNpSfZLql4L3krW1WnJq1qrAK7O9ZXnCR/RXbRYzIVfe1R+q/ikXbJ2brjnx6FB8nWojY3+IK4XuSDRfe8HBf8eBLnlcetU00JfDYqgmX0jeZgma6WFoYxC2S06RfrLJ5JZ729EeNixOEuvwX8oGlxkjhc9fvXckUJrnmbra1wBtkapsY2LtRlNCs3pexzMFwP72/cX2m/pNbT+PtYGw2O0SW8+9UEn1PtiR7wveDc7esOjLWxa+bOXCi24f/cd+2+uf1CSUzJanvX7AZp57w+xFoixwaMp+lLwgkmX5uNtky/7fRGXtc78YQyOs+rPZwdmbCEa/UM+bNJZ/X389fPjgQJT0evV4TGGJXCO+vR69vXXxng116fFbFyQbI5VEEm760G7dPz3eAPS4Owz//UpEygqTS/VVNO1HBNRH65pS6IWqWGA/O4Q929Jl8XN689z3+6Pr/3Ez16tLlON/i228t1YyY/J/t2uf3vku3zJsEUx3+UxNIDxC6CF/2bU/kboIv0bMC/jzb7zo9cQ8x70fU6P+Ndkzq2ZNaHta39bGq8Pv78ln18s+95KKcnZv2fR/Rp+xh6zvfa1t/v7n1/JL/BmjrF0n2bvs5FWfndWghZFAOsqu+t0k6KlaVTasjg0/QNzEwZPX0Ymc95nlLRPF7XAaCT1VKuLzqTtE1ydvEBNkq2tK+fmausSwSBR9UlmdkbShWG7flpGyjlZVi/Bob2SSzV/uhxnaMJWeHXXNz3iXS99FNEdPvbtJ0yQ6FLqtWBNp4JETV/XqshRpu/3b/QRJPYAvYl3U9DBz1xopqh//PFhM33/J9G+660V+mpYBG1oRNKlKdnvWqoq+2WqVKc/e1X7CqAZmjUSuIbidEHSOe9YgUJt+j77zd8re+7Qe/b/tkybEzdbX9NakFjTqFhb40JzVnq8uk1fZlz0P1N63J07uk/r72NNaYsiAKy3Wx9+bnHblx5cPPFPH1h85LlX7NLuJjcdMBPQy/g9Xr7v/ejni5d9Y6Gj31V3PfXy4kfufLz63+fOyot2DbpV3L+l4LK41zodm79/yTI3hZRziylJL87YWaecSy1KOrzULPNu86tTKrdYtuu8wHIxlfPn4vZdYibtHWPpeb0Vi2lJLdpD1b2+pcqLuZQs+qfVY+g+gWPp+dz1mnMH3kdgMvs3W2/PlUrp59HKtang9VnmvQXeq6fVz9gX+azUct5nE7G/L21AiyKArqApp4/87vtM+pY+KcdG4/dB8Vsnw9MyGxuBdaepptqK2KnvKs2u0EHyXaulZl5cdsZJdi16jUsH/Navn29+Rt1/5fvMz9cz4bTBlz+7076yWuon3rwI2tBIWkpT+6Xi/W//VEnSjZsTO6BPdo+mpKBNZdo3PtUvSRmSkXRJ5su6aE5So7trLWumy4N9L4HJZmx6mq132lCV2+hUoblW38faIVAE0DU0dUvTUKOiJd/Ri4ZkIuYP4Hr/EQQaMWO/egHbWhfb+tfvfbv5PnSD5Gv/7bXs/4j2CfYZ+/XzT67O6083XfQOv6/ilkR4+duOi9ymt1Loq1kRNOXST4utpJ16VloArYG+3aMm1bS4f0rEBoUawBam8yZ4rQ69VO/cTrP11sD4rJRNV442FIhp5TNerhbfx1ojUATQ1TRI3HXHgumjQ8AIYK3o0BP63fP3h35uqot2gn6n6fGjdMxV7bvGIPkI6cvIeLok2T2BCpvFMQkOr+sLBBwVHdsw2g7pt95N7ZuSUnqkaaGU6nmTwSqdFcnv0U51e5vvH0fH7S1lZdg7xOjuQFA4NxUOXuude8x+Bs3WB/RlXLDYqOJpq5p9xsu0jPexlggUAXQ1vYnSMcpyB54xN206VhgAdIoW09LB6zU41EBO0+JvveJsu7Y9tHiXVnze/pWH6xbwYpB8xGla6MsLOJoVQVNanEXzWHN7WwvzmhdAWy4NVr0fqVFxcaL07ZZR76KiweuSwmx67v5aamqz9UEaLLptV9ztocXPeLmW8z7WCsNjAOh6GhxqKXqX/qU3bd0wjEanylEDa4nf4zCXxaDB3K2/elZsOvxqaID4x/f+tJohof0db/nwmUvHUUXP6al/Szr0QmiYDPSyTv3u8bgKQNfTG6kDn9phCjroU3bKwQPoFP2O0aJaWlyr3UGi0lRSDRL1e0yHt9CiOASJWFsVye8rRArGtLvgWLcXMKPAWitoUQTQUzRFq1uKOtASg41gM/8ea6uhZix0IiBUenwNDIM0SHz0hVcJDjegXvi35A8E770IDG6P3keLIgB44oJEHZCaQfoBLIcOPXHh1x41g+e3u6qp9q3Wvod6fJdi6miLJUEi1ov2g9M2IoJEtIJAEUBP05uw3yo+aW7Ibpt/3i4FgHjayqfjFLoiMu0M2r7x2Auy6/bHqmMg6veTPsgCgF5EoAigp+lN37knH1+9+dOgUV8DQBwtJKMPlbRl74uD29s6cP43F140gaFmPuixD17Vb/pYA0AvIlAE0NP0hqw4cr6phKp9gfSJvgaMABDn+ve/Sz55wSmmQNYf/sq77NL20AHydXB8HQNRjx3tnwgAvYRAEcCGoMNlaJVCHahan+SvJ+1U7jqWK21hcMt0cqlobv7Y/AOy9eYHzet20YIFg/m1GaZXz5VIrH4A43YdZ+Uqkh+k4t1Gpy2JXx86Z8WtiJqxoENcaHpplKaxuurMANDr+CYDsGFo6+KdHz2vbWlkK6HB3p7IGI/aZ+mFay821cgOXHmBmVc6r9OR63bKoasvMst6kV8cYSI0QHJTOobXYN4LzWpWdBygDu1/qP0Qv/zgs3bJ6ujxPnf3D80g+Td4gaIWrNEJADYqAkUAG56Wv//87NNLqg92gvZJuu2Ks+2cT4NBl4Km/SmjdIyibbc81Pay1sBmlTvwjClwpQVltE9iO2jQqcfV7xEdTkPHQGRMVwAbGYEigA3vM//1Kfmj7/9Edt2xYILGTooLBINO8QJC7cfkaAvk9sLDpl9TLG15qw4EPCh+NqkOFOxeW5W8DMakbVbyg7X9Iy148cf2hfbzJj8d06VmuoGK/fNF01zdfL1zmxRTHcirlJWkrrO5ntHjqOh1uG197nr8n/42kc+lngbvvcYdd8zOo9tpEPeBb5ZNy5+miGpKurbit4P+u3XH037RBIloxWtvLMro1+bl0pvua3n6ycuv2b2B9UWgCGDDu/VXzzLpqDpW2of+8nETNK41vWnVoDCz63T5QiBQ1FbEZ68ZMDe2WW8K0eBveE5yZTvu1cyoXdGaUjYpe2TS33exLDnxAjMXaDU4tgZnyeyAzJj9vKmck367Ts3tm5Z+s1/9NNFG5zYppjNpkVROyrq+znheS65DjzM3HAkWRQrDe0Qm/W1m0iXJ7okExFEtfq7FsaR31XqNE3YJup32DbzsjJOWFLlaDn2YFDfUjvZ/1uMxBiKW4+Ujr8sPnntF/vvv7wpN39Xps5dUp7vtpOvetfV4uffQy/YIwPohUASw4Wl5elfhUFsctIT9WqShOlq8RlsStf9krk7LoQaM+QPP2LmgAdnRZ18OZSTjXrciPSOz1R36JDOZk1RhX6D1LO7YRbkxW/J2DQSBfd66YCw3urf5dTQ9dzN6HeIFc8Fg1B1nOtRymspNVq9naK+3vjQvZX+2gcafq7ZuDs95QeJsxjsreokWs9LCVpoeuhza31AL1GiL5LV/d8j0SQRWy/2lOfG4Y+QtgekknY7fUp3eaidd9+355+R//YuyfOWep+3eNSYjY12LfrVq7YuDmQyUtTzhJkCgCGBTCI6ZphUP17IqoRav0XQ1bZFwXAujEzsod99uGU0VZDixsj+2qf6kfWX17fDCI6vesYvTUpC0jNRrKvQMVCOs+hqeuxXmOgLBnGOOMycLgYBz6fWE1y/R5HOd2zcow4W0zBAkdjV92BNXqEb/bS+3FVH7H2qQqMGitkb+20vfSeVSrAsNEv/9d56UNxcX5akXX7VLayj6hbXEtyCATUVbF+OqorarhVHTR10AqD9dAKjBos67SW9ktTqqm3fBZFifZGa9m4JyTuaG2/0UuZPH7natvPcmwSbWlaaHap9jbflrR1XT951yggkQ3RiImh7OGIhoC61W1qJgkPiR950qN3zkXLsGWB8EigA2PQ3mzrv1kdh+SculqaWaRuom7c8UnHeT0uqoWiX1Sx8+0yyr2/epLyOz2j8vVZB99XI3y/NSsi+d0nwkATOulS567GS/pNoQJLV07kbqXUdlwVu6jOM0UudzHRifFS+GlGyyxcI4WDPaEq/9eTU9VPsc60Of5fQZ1P3jClppoRoNEBkDEZ30i9ferNv3MBok/v4/P9OuCVtS9Kulwlw+k7YaTiExhcmCi6Lpm+GCYkuP32x9Ta04mDt6/X1bK1Tmp+HaaTDfQpcDLBffhgA2vUkvQNT+SJ/5zj/JbxWfNDeTa0WrpF678zQ7F+HdAERTI/00y6T0p0qSvdGt9P7YaxXRqMJwYH9/m1Rur5+yVO/YXvA0rgVhkoFWtkpe8pFtm2p0bqdRX8K469Cbhz3acTFynOWq+7nW9GVcsLiZWlq7nwaHOkSFBnPa51j7HmuWQDP671uHyDnvq/PysW8/sSSDQFsPCRDRSV78J//bnWW57r9U5L//4Gd2qS8YJA55QeLn/5dz5PBrb8izzfrJLrPg2dBIWmRuoVbsyzzA876up2vfcuX5kqRt3wMN5JJTo37RMXP8gdB3YrP1QcHiYHr0VvZtVKis2o/c7T8+L8PZ6ONSrBbfigA2PU03c9URv/HYC2b8Nb0hXXfJfpsaqVNSpkbL4hcI1dTJGUl7wZi/blpGvKgmZXaqSeVmpH+f239YCsECM3WP7feBmUn7ffjM+uSUxqbL0vDcamivackz54hGbZZeRzk3V7sOe52h46xEg/cepMGi+xzQHTQo1H+vGiBqn+NWgjttgdSMAa12rA+BNM30x4dft2uBtaPFao6+8ab8f779A/mHg36wuDTd9Dw57piEjH7tYXnjzVbyVhsX5grRTI3SlOy30VZxuiDpnPe3oxo8FmW6kBK/i7ktKDYZ6Kttv7f9uLLZ+ppqUFft993avvULlfnXGd5/wvu+tq/RNgkvCl9G9jQAbFxPvPRatUVRb0Sb3YRq30LlUknh05uCff1tCOiwJrr591hb/lbb0vexvz4o04//zBST0uFpGP8QnRL3b+mZnx+Voa88KN//3C97QeKi/L//6nH53hM/k+O2HCMf33maTN3/TDVI/PdekOjFiPLa64uS+tP/KfuvvtgMlREU/n7V1MykaENaemYx9oFXmL/9/Lhuq2mn0zKyOCLTiX3SX56VTHlMEvv6/YBOU1rjMlU85lzSZP2Qf64pSUmppMMcBQrwNDu23de/TrtCW0+TUzKq1yn6el7GI0V9TCvl/HjdIZc2sk59j9OiCACWpoFqVVQdfy14c5r/6v8j79p7q5wy/hdy0X/62+5obUQTft8bv9UwPNVpwEQX0VRRDfC0GulyxKWNa8ujForS4WkIErHWgq0xx29JyH/69ffKB859u2lZ/MaBny4JEtViyxVwlluUrE92j6b8VFPt753ql6QXao2kS6LdyisLc5Ia3V1rpZN0YBzb2lSLw5qtd+L6vbe6b4yYPvnoDAJFAIjQgNHRIDH7xKny0//2TXnxm38s85N/LB+69R8JFrvekEzE3IS0fCOCdaNVTDX9W1sBtdCUtvQ38zdPvGSGt9DgMmq5BW+ATgoGiyoaJCoXJiZazXpvpeCZ1bd71KSaFvdPidigUPsuFqbzsn+qVOuvXa+gmNNsvRVbHKzFfeuqs7/2r0R7ESgCQAM3PHhY5Nv/WeTA34pU7hV56C75+a2fl8/816fsFojSvoWknWIlNNDTIS+0ZVAHzNeB84MPbqK0UrEOLaMtjzoGogaWDJSPbrQYaCR0wWL2g2cuCRJVbdsmkWILhbmW0LFoS1kZzmqcGAgK56ZkqhQYQ7deQbExW1Cm2fqAJcXBlrFvLLd/oLiNfhZ1slmxCgSKANDAS+/c4QeIAUfK/zO2xD6A1Rm7+B1mPEMtLqUp4Pq6kfyBZ0xwWB0D8ar+pvsAa8mFeq+98aa8+vqbpt+tTppy+vGdp5tlh4/a6bU35BXv5xM2Y6Vpi6IX4LVSmCtMU029H6lRcXGi9O2WUSlJKT0S6vO3pLCZnqO/lprabH1QsDiYBrfL2TfO0ERZcpKVpNt/esQLRqMl3bBaFLMBgAbO+qO/kUP/9/8RDhb/xSfl1E/9O3n+iN8fimI26GXdVsxmOQVsNOVUK5h+cse2VRe9AVYr7t+S/j5/pPCg/OLVN7yARpdoYKP/7036U4Mcs9SfVxosbnvLsTJz9U45/li7EGigU9/jBIoA0MB3fvC8/PY3/oc880e/LfLyc7Lrf/moPDHy72XiV8+V0ZknzDYEiuhl6xEo6s3zDf/4E8lcclrTFkBNJc3f/6ycsCUhX7jsDLsU6D71/i1p6+Grr8ffbrvgMOr4LccsSUltjRbyGjbjI0a1VhkVvYhAEQDWibZaaJ9EvWHddsIWueXDZ8onLzhlXW6wgXZb699jTdvWf09aEEr7IWqKaRwtYqOppV9+6LlqK+PBz1xIaim6Fn8TsF469btHngYANKE3s0//3kXmC/iFay82QSKA5dFg7/OzT8sHvlk2QaJWI9UWxXq0SE3OCxR1Px0D8a6Pv5cgEQDWEIEiAADouCNvLJoqpeoPf+VdcuBTO8xDmHo+3X+qmbTyqY6BeNn2t9o1AIC1QKAIAAA6TtO27/y1c+V7n0iaQfBd8RkdL/Ebj71gXgdpFVOtfqotjwCAtUegCAAA2i5uPENtFXQtg9q6qAPr69iJn/vuj0yKKQCge1DMBgBWqF7n8ehyHedN+1s5B668QC45/S3V7bYkEvKWYxPy86NvttQRvZIflOT8uCy2oXxdcSwhw4W0zCxOhMbP6ryK5AeTMj9OFb711u4iCDpY/ufu/qFpKdS00Wi/Qg0INUDUYjVK1//bS98p11z8Doa4QE9z/5aA9dKu73GHb2QAaCO9UdjTf6qd82mQqEVw9Atcg0QXNOq8Tkeu2ymHrr7ILFtrOujx4poHidiotJXwvK/Om5/aJ/HvD/3crqnRYFAflJx78vEmtVQrmWZ3nU6QCABdhhZFAFihuJYYbSXRG2BdF/dkT1tbTrnlodC6o28uyvH/+YHY7eO0s0Vx/dCi2C3a1aL4R9//ialqqjS99NZfPcu0FmoLYrRVUdNSqWAKAN2Nx3cA0EYaJDaiQeL1gUHD9SZ9e+FhU7ijHk0PTSTsNJiXsl0epMFjdZvEoOQr/nKz71jRn7HMtt5xdBNdP+g2tsLHSkhw93rnaag41sI+Gjjq+jE7j16jFUr1918L1WjRmomHnjOti9f+3SG7RQ1BIgB0PwJFAFgD2pKoQWFm1+nyhUCgqK04z14zYPp0Zb0pyvQhnMtJeVFTRL1pfF6GsyW71mdaGKdGa9vMDEg2OSYa3w2NpEXmFkxQ6KvI/qmSpMcz0meXBJljZQdkxh2rnJP+4Lo656mrkpfB4TnJld0+o3ZFWHEsKVnR9zlhl6DXaPCnqdWPvfCqnHfrI2YMRP29VxSqAYDeQ6AIAB2mxWy0JVHHgsvVaTnUgDHv3ViHFWW6kJLcZCCoG5qQGS/2qynKjVmJbLNXcqmCTPuRoqRLU7LfRYqV/TJVSstIbLqnHssLImcCfRb7MpIxM03O09CA7HA7DXnHi0So1WB4Nj54RffRNNO4IS1O3JKQv3nyZRMYagujBo76e0//QwDoPXxzA0CHafEavWEeee/b7ZJaC6OjweQSlQWZCwZZVrI/ZV95itNSkJJkky61U6ek1Bodh2QkXZIpGylW9k9JKT0SX7zGHKtOENn0PHX07ZZRL5gc9raPZMAac/sG/aqrBIk94dHnj8gHvlk2fRF1SAvXYuhoQKh9Ew9e1W8K1WjRGgBAbyJQBIA20vRRFwDqTxcAarCo827Swce1Oqqbd8FkSHneC81aocNb2NTOwOSKxGj6aWlqv1Rc2ml8c2ILGp8nXp9kZr3tyjmZG9bgMi5VdU4WWunriHWjLYTairjrjgW55+lfyLYTj/V+h4+RG+75sd2i5iPnnty0ry4AoPsRKAJAG2lqqaaRuklbVILzblK36dAAV/XLlz58plm2pPUl2S+pmCCqPB8IH+tsE+LST4uN0k49jY7Vynka6cvI7GLZpKruC1SzGRifFS+GlGyyxcI4WBfaUvjAs0dMwPiOtxwrLx55XR59/tXY4S8AABsDgSIArCNtebl252l2LsILrsbTJcnu8SuUGsUxGS7Y18ptEyoqU5H8WGAfl366b8qLZPfWHzMx7liVvOR1pqXzxPCuN5pyOhDJpe3LuGCxSWEcdNzHx7Ky5dpb5Jg/+Lqc+O/+UmYO/syuEfn8pafL8VsS8twrr5vfW63U+71PJO1aAMBGQ6AIAF1saKIsOclK0vULnB7xgqpAH0WPDpo/k/b7Abq+g1P9u0N9/kz6aUlkdHfjnoBLjpX0gksbC7RyniWS/Tbl1G4/Wo5NVdVg0R0b60ODxP/yrivkzX/8lix+60/k1W/fLB/98/9RDRZ3nn6S3HDZGf4g+Vf1M0g+AGxwDLgPACukfQuVSyUFepH7PU7M/3dZvHe/yIG/NfMqcd4l8tY/+Jq8/L9ebJcAADYLHgUCAFapKGPVVsbwFFfpFN1p8ZwBkcq9ds63ePB++flr4cqmAIDNgUARALBKQzIRqYTqpsYVUdFVXvm5yLvOszO+M37pA3LsMaQDA8BmRKAIAABk6zu3i3zi/+u9eIeZP/Ws98prv3ez/MEvv9PMAwA2FwJFAAAgL/1vl8p/+OivyDH/4b+J3HRAXvjf/0Ku7D9dvjjoBZAAgE2HYjYAsEIUs8FGwO8xACAOLYoAAAAAgBACRQAAAABACIEiAAAAACCEQBEAAAAAEEKgCAAddPjomzLxvaflytsfkQ/efL+Z9LUu03UAAADdiEARADrk3qdelk98bV6+cs+P5LGfHpbDr71hJn2ty3SdbgMAANBtCBQBoAM0ALz2L8vy9Euv2iUi73zrcfLurcfZOTHrdJtGwWJxLCGD+Yqdw3qp5AclMVa0cwAAbHwEigDQZppSesN3npToMLWVl0T+6uqdds6n2+i2HU9DLY5JYjAvmzbkXOv3v9k/bwBAzyNQBIA2+/N7fxJqSWxGt9V9AAAAugWBIgC02d2Pv2hfte67P2hxn0peBhMJSbgp2mqlLVnV9YOiWauavpoYLoiUspLU5U1SKF26q0m3rHeeBtdhzhc5hzmW3cY/flHyg7X9zeahY45J9CpD12Pfm69ijjVW9H9G1y/3/SuzjzuXd91lu7yq2fuvc7767wEAgO5CoAgAbXboZ623JjpPvdjaPpX98zJaXjQpq4uLZcmJF4y4QESDl+E5ybn1M6Nm8dCEvk6LpHJS1uUTQ2Z5I6VsUvbIZPx5PI2uY2jEO9fcQiCwrMj+qZKkxzPSZ5eUsvtEJv39y7mUFIa9wGmPLrLHSxVkOBJgJadG/evXaWZAsslwMFkYNgcw62fSJcnu8YO35b5/DfSG5+y2Oo3Py3C2ZNf6Gr7/Oudr5T0AANAtCBQBoMNOPPYYeemN4+SBzEV2ycr1ZSYk46ItL+zKjEeDsgHZ4dYPZQLbLlN6RmarO3vnmcxJqrCv2gLW8DqGRiRdmpL97qIq+2WqlJaRYHyWHq/u35cZF2/vQCAZfV9FuTErkpusBZoytNcEk9OBKCuVm6wec2ivd72l+aUtgU0VZbqQipxrwgs87Wur+X+HqNbeAwAA3YJAEQDa7KxtJ5ifJ2xJmADxH67bJQt/sFN+Kf+wDBceNOui3D6tCKUvaoqj07dbRrUlzlseaIxbkVR/0r6y+nZ4IWhY3euQIRlJl2TKRoqV/VNSSo94S2uWHF9SsmSRU5yWgpQkm7TnMlNSIo18MlCNkJ05WagfucWrLHh7BYJtK9mfsq9q6r//GC2+BwAAugWBIgC02QfP3ybvP3urfOuqi02A+JuTD8ulN90nJ285Kj/9xVG7VZju01xRxrwAI5y+GGzq6pPMrLesnJM5TeWM6efXHs2uwwsVR9JSmtovFe9/Ju001Jy4EmmZcecKTC1k0S5Ped4L55pp/v7jrdF7AACgDQgUAaDNfufSd8nho4vy+3eWTYB48Pkjdk287SefYPZpyrR2ecHGbC19sbIwZ18F9GVk1vbz27fCaiml+UjSpmkRsy1trVyHSz8txqSdLleyX1IraR1ciTrnKs8HwsdW/zsEreV7AACgDQgUAaDNTjruGPns4Lvl8ecaB4hKUxCvv+Ics09rAsFGJS97grmLxbElKaehdMzl9NkrDAeOVZSx4YKkcnsD6aMNrsOw6af7lqadLpsX+I5rcZpQ4ZeK5McilVibaeX9u3PZQjiG97kuzSxt9v49wfO16z0AALBGCBQBoAMuPWur3PLxpGktrEfX6Ta6bUu8YGMyJ7V+blrkM5jymOy3Kad+/7ep0XItrdEWTtH+i60MD5HKzUj/PnesYSkEi9s0uw5LC8poHmdu7+pzK7WS6EzaXr97f/27a4VhmlnG+x+asFVM3bmmR0xl1qpW3n/M+Vb9HgAAWEOJRe0gAQBYtkTufvNzMXuJ+Rnn8NE3zWD6OraiGzZDC9don0RNN229JXHt6PAQ+/rLgaqnK6RjOu7rl3IgRRPdp5XfYwDA5kOLIgB0kAaCYx/YLnf89oXy3c9eYqbbr7zQLFu/INEvxuK3aoWnFhobW1SR/L6CpEa7scVsLd4/AAC9jUARADadIZmIVN50UzsqcGqLpBn6YSA4FmM36ez7BwBgIyD1FABWiJQ9bAT8HgMA4tCiCAAAAAAIIVAEAAAAAIQQKAIAAAAAQggUAQAAAAAhBIoAAAAAgBACRQAAAABACIEiAHTQ4aNvysT3npYrb39EPnjz/WbS17pM1wEAAHQjAkUA6JB7n3pZPvG1efnKPT+Sx356WA6/9oaZ9LUu03W6DQAAQLchUASADtAA8Nq/LMvTL71ql4i8863Hybu3HmfnxKzTbXoxWCyOJWQwX7Fzy1PJD0pirGjnAABANyJQBIA205TSG77zpCwuLtolvspLIn919U4759NtdFvSUBsojkliMC8rC0sBAMBKECgCQJv9+b0/CbUkNqPb6j4AAADdgkARANrs7sdftK9a990f1N/HpGomEtWpmrVZyctgYHm41a0i+UHd1v/pbzMo0WzRusf2hNct3bdVmqZaPY53jWW7vKrB+zD7DhdESllJ6rrABbbr+gAAwFIEigDQZod+1nprovPUi/H7aDCUzA7IzOKiSVNdLOek363bPy+jZbt8sSw58YKpSN+/wvAekUl/m5l0SbJ7akFYw2PruqlRKbt1MwOSTY7JcnsWaqA3PJerHWd8XoazJbvW1+h9DE3oudMiKXuMiSGzvF3XBwAA4hEoAkCHnXjsMfLSG8fJA5mL7JJWFeVGL6hKz0yIHx55+jKSsTN9mQnJ9PmvvTnJjHsB1dxCqC9fKjdZ3WZob05SpXnbotfo2LpOJDeZ8Y5qDe2VXKog08uKxIoyXUhFjjPhBaz2tdXK+whr1/UBAIB6CBQBoM3O2naC+XnCloQJEP/hul2y8Ac75ZfyD8tw4UGzLsrtE1KcloKkZaQayS0VSr/UFM2IgR3VUMqakwWNwBod26wrSTbp0jp1SkqkIbC5yoJ3tgGJXkKyP2Vf1TR7HyHtuj4AAFAXgSIAtNkHz98m7z97q3zrqotNgPibkw/LpTfdJydvOSo//cVRu1WY7rM8RRnzAqRw+mWkqW5V0rWU1MBkMz9bU573wrlmVvo+2nB9AACgLgJFAGiz37n0XXL46KL8/p1lEyAefP6IXRNv+8knmH2WSPZLyrUARpnWOi9Ymq2lX1YW5uyrFjQ6dqN1y1HnOOX5QPi4kvfRrusDAAB1ESgCQJuddNwx8tnBd8vjzzUOEJWmTV5/xTlmnyX6MjKuBWiCRVoqeclXZwLBkrd8z3JyLxsdO26dVlEdW+ZYhu44gQI6Oibi0szSFt5HtW+lp13XBwAA6iJQBIAOuPSsrXLLx5OmtbAeXafb6Lb1aNXPmXRBhl1fvOSUSNJb4QVLkznxgiW7XIubLjP1tO6x49YlkjLVv7tWPKZFQxO2iqk7zvSIlHOBPoqtvA9bqMZcS6AaajuuDwAAxEssaqcOAMCyJXL3m5+L2UvMzziHj75pBtPXsRXdsBlauEb7JGq6aWxLIrCGWvk9BgBsPgSKALBC3GArLUYzLHF1StMzFJfpBfweAwDi8CgbALAKQzIRqDoanAgSAQDoXQSKAAAAAIAQAkUAAAAAQAiBIgAAAAAghEARAAAAABBCoAgAAAAACCFQBAAAAACEECgCAAAAAEIIFAEAAAAAIQSKAAAAAIAQAkUAaLNE7n4zOfc/80p1mU46r9z8sfkHZOvND5rXnVYcS0giMSZFO9+LKvlB7z3U3kf0Pen8YL5i5wAAwEoQKAJAG2mwt6f/VDvn23X7Y/LCtRfLYvYSOXDlBWZe6bxOR67bKYeuvsgsa6vimCQG8xIMmYYmFmVxcUKG7HzPqeRlT1YkV669j55/TwAAdCECRQBoo4NX9cttV5xt53waDG47YYt5fe7Jx5ufQYvetO2Wh8x2aMWA7OizLwEAQEcQKAJAG8UFgkGneAHh9ZedYef8FsjthYflpsvfY5dEVPIyaNIs7RRpIVS1VEx/GivadMzhgkgpK0ldrgs9wbRMs41d7phjBc4RPvagtJLR6c4R2jd03RXJD+p1FmXMrK+ljUbfS/D6zLpkVkpSkOHAulZSTRu+D215rbcOAIBNikARANbAi6++YYLCzK7T5QuBQFFbEZ+9ZkA+d/cPJetNUZX98zJq0ix1KktOvMAvEjwlswMyY9Z7Uzkn/d5yk445kxZJ5aSsyyeWJmYOjXjr5xZCAdz+qZKkxzOiDXbm2FOj/v46zQxINtla/8ZSNil7ZLLudau5fdPSH0ghXfJedL+54WpA2JeZNe8vJWl/m5j3FKfh+9BAfHjOprLqulGzDwAAmx2BIgB0mBav0ZbEOz96nuTqtBxqwJg/8Iydq+nLTEimmmbZJ5nxYHBXlBuzXmA3E+if15eRTKud9YZGJF2akv0uUqzsl6lSWkbM/npskdykHzQaQ3sllyrIdCuRYnpGZqsX7l33pBfgFfaFW+tG9wbemz1fOdjX0O033VJwGq+V9xFIZR3yPr/qhgAAbF4EigDQYVq8RovYjLz37XZJrYXRcZVQ44TSJjWd1ClOS0FcYLcSQzKSLsmUjRQr+6eklB7xAzVz7JJkky4lU6ekeHFpS1L9SfvK6tvhhWNhA8GOhuZ8MX0PzX5zshAMMJej2fvo2y2jXtCoqayRBk8AADY1AkUAaCNNH3UBoP50AaAGizrvJi1uo9VR3bwLJsP8PnzhtMm0Xdcemn5amtovFZd2Goo6bYpnZGox47OLNHoffZKZ9ebLOZkb1iCytdRaAAA2OgJFAGgjTS3VNFI3XXL6W0LzblJaHVWrpH7pw2eaZbptSGVB5jTIma2lTVYW5uwrT7JfUqtpbVMu/bQYTDv1rPLYpfmyfWXVazF06p3PfAarqHLa6vvoy8is9olMFWQf1WwAACBQBID1pFVSr915mp2LEwhyzBiCgdxPL7gZT2taZaAVzNsmH2wSK81LJGSLsOmn+6a8KHdvqK/jkmNLRfJjS6uuxioMB1I5izI2XJBU8PhR9c5nBk1ssF8zzd5HcWxJymkoJRYAgE2KQBEAupUX5EzmpNa/bo/IZCT1VKubzqTtcBE6Jb2Az3UPtEVbgkNJxDHpp178Obo7HCAtOXYiKVP9u2tFYRpI5Wakf5/bb1gKoeI28fR85dxc+Hyj5ab7NdPwfST7bcpp7Xy9l1oLAED7JRa1owYAYNm0b6FyqaTw6biG+/pXH+BhbfB7DACIQ4siAGCZ3ED5SycqhwIAsDEQKAIAlmlIJiIVRN1E2iYAABsDgSIAoK20TyBppwAA9DYCRQAAAABACIEiAAAAACCEQBEAAAAAEEKgCAAAAAAIIVAEAAAAAIQQKAIAAAAAQggUAQAAAAAhBIoAAAAAgBACRQBos0TufjM59z/zSnWZTjqv3Pyx+Qdk680PmtdhFckPJmSsaGe7SnuurTiWkMF8xc7Fq+QHJdEFH4K5jkTCm8ZEr0av3b1WrbyXVkSPuxLd8pkBAHoXgSIAtJEGe3v6T7Vzvl23PyYvXHuxLGYvkQNXXmDmlc7rdOS6nXLo6ovMMnSpSl72ZEVy5UVZXJyQIW/R0ETtdTt16rgAACwHgSIAtNHBq/rltivOtnM+DQa3nbDFvD735OPNz6BFb9p2y0NmO3SzAdnRZ18CALDBESgCQBvFBYJBp3gB4fWXnWHn/BbI7YWH5abL32OXxPHTPP20x0GJZjfWUiLtFEo5LMpYdJ9KXgaDqY3FscD+4W3Dx1567tVdWzw/9dJOg3kp2+XNuNTP0Dm9/WuX5NJl9TPR9bXPoNF1mnXJrJSkIMOBda2kmjb//JYKH9ddc+PPeaWfGQAA9RAoAsAaePHVN0xQmNl1unwhEChqK+Kz1wzI5+7+oWS9KU5heI/IpKYjLspMuiTZPbXgRwORZHZAZrx1un5xsSy5ueHW+6dp0Dg8Z1MqvWlm1K6wx54albI79syAZJPhvnPtvjYNeIbncrVzjs/LcLZk1zZXyiZlj0zWzidZSUbON7dvWvoDKaTNrrMvMyuL5ZykJO1vM9FaUmgrn1+rGn3Oq/3MAACIQ6AIAB2mxWu0JfHOj54nuTothxow5g88Y+fCUrlJydiUx6G9XsBSmrctRkW50fSbC/Zn65PMpLdNYXoZAUkgpXIoY89ljz2Z8Y5oDe2VXKog04EDt/faijJdSEXOOeEFRvZ1K9IzMusuqHq+feEWuNG91Wtu32cY1drn16pGn/OqPzMAAGIQKAJAh2nxGi1iM/Let9sltRZGx1VCjTOwpGPcnCxo4FOclkJcv7m+Hd5Su00zfbtl1AteNKUy1PBmjl2SbDKQ0phISrShqq3XVlnw1izdJ9mfsq+aS/Un7SvLnC8sdM3t+AzjtPj5taru59yGzwwAgDgEigDQRpo+6gJA/ekCQA0Wdd5NWtxGq6O6eRdMrr0+ycwumtTKuWENZoKpkTbVMjK1mHm5fOV5L7TaSNbg89twnxkAoFsQKAJAG2lqqaaRuumS098SmneT0uqoWiX1Sx8+0yzTbZcl2S+puFavOq1MVXHBRV9GZrVvXqog+zRPs96xW7WSa6uzT3m+9VCoNB8p41KvxdBZ6WfYzGo/v1a14TMDACAOgSIArCOtknrtztPs3DJ5wd24FjYJFUipSN4M+LfX9rlLSn/K2+ZGt0VRxoYL9rWnOLZk0HyT5ljv2GPBKqINtHRtEW6fQKEWvb7g5TZVGA68H/+9puqdT63kOlux2s+vVe34zAAAiEGgCAA9TAdnL+fm/GEbbD+4qdFyuKDL7IykvQDKXz8tI6aCp5XstymntX1daqQeeyZth4Rw6/t314qmNNH82pYamrCVSt0+0yPeMZbRRzE3I/373PmGpRAqbhNvJdfZitV+fq1a7WfmfPnBZ+W6m74q79p7q5wy/hdy0X/6W3n0+SN2LQBgs0ksaocJAMCyad9C5VJJsb50mIh9/asP8DYb93t83APfkaNnDYh8+z+LvPycyFu2yhl7rpe7PvN+ed+pJ5ptAACbBy2KAIAe4QbKXzpF02e7W3e+jy1vPdkPEg/8rUjlXpGH7pKf3/p5+cx/fcpuAQDYTAgUAQA9YkgmIhVE3dSxSqwd0Z3v4+i73+cHiAGvP35A7nn6F3YOALCZECgCADYE7RNI2unKbT/miMi7zrNzvl/9xB5TcMnR8T8BAJsDgSIAAJD/e/Sfyemf+Q8iW99h5v9fvzYih3d/Tm66/D1m/sjrb8qFX3tUPvbXB6vjgwIANi4CRQAAIFecf6p87VMpOeM/3S1y0wG5b/jfy9U73ykj7327WX/Pjw+bFsXpx38mu25/jIARADY4qp4CwApR9RQbwXJ+j3/8i6Pyx/f+VL780HOmhVGDyDs/Gk5XBQBsDLQoAgCAlpzx1uNMKurBz1wo2V2ny/WXnWHXAAA2GgJFAGgi/9X/pzoI+QU3/o38u9kf2TXA5uQCxktOf4tdUpM78Iw88dJrdg4A0KsIFAGgAQ0Ss0+cKj/9b9+UF7/5x7Lw5/9Rvvjf5uXm+5+xWwBwtM/i5+7+oZz31Xn5zHf+iYARAHoYgSIANHDDg4eXDEJ+7Nf/D7n1kRfsFgCcM0461qSknnjsMXLb/PMmYPz87NN2LQCglxAoAkADL71zx5JByI994n657ydeAAkgJNqHUQPGC045wa4FAPQSAkUAaKCVQcijtIqkqySpNB3PLdPJDSng5o/NPyBbb37QvO4GxbGEJBJjUrTzG0dF8oMJGWvzG6vkByXR7oP2uGDA+On+U+3SGq2YCgDobgSKABDw6PNHzBAATrNByKM02NsTuTHWMedeuPZiM/zAgSsvMPNK53U6ct1OOXT1RWZZNxiaWJTFxQkZsvNdrTgmicG8FwKiG2nAGKX/vrZ/5WHTlzH4bw0A0F0IFAHAowOJa1+qC7/2qHzuu7Wqps0GIY86eFW/3HbF2XbOp8HgthO2mNdxLZE6mO22Wx5qaRw7oNf9/aGfm39vWh31vFsfIWAEgC5FoAhg05t+/GcmQPyj7//EzEeDuY+ce7I8/XsXmUBOWwY/ecEpds1SjVJS1SleQBgce05bILcXHq7bQqlpoIP5okmZTCT8yWQ5VvIyaOfj0kRNOmR1vTcFUiNNamkkVdJsb1vm/HOG2+jCxxuU0Gpt1au3LmLpuYsy5u0XXBRK5Qy9T28KtB6aYw0XREpZSeq6wEGi7z/8dv0UVH/d0utt+F495rxuvXc9ZbscrdF/P/pARVNSNQVVA0YdxB8A0F0IFAFsatqSce3fHTI/L9v+Vnnkd98nXxzcbte2j7agaFCY2XW6fCEQKGrw+ew1A6ZVJetNcUrZfSKTmg66KOVcSgrDXoCyRxfpsrLkUgUZjgRJyeyAzJj1dpu54WogNTSSFplbCKRrVmT/VEnS4xnps0uCzPGmRqXsjjczINmkDU41kBuek1zZrRs1+9Sz5NzFafFCPSlM166/PO9dy4if+FrZPy+j7tj6PsQLCt370BTZGe94qZx/bRN2n+j7L+ek36zxFYbNh2fWzaRLkt1TCz4bvlePBonDc/Z8Oo3Py3C2ZNeiVfpA5dYrzjap2Bo4/ttL32nXAAC6hveHDgA2ta8/+vzirQ8/Z+daJzcdMFOc4PIDPz1s5u+svGiXxIs7lhcHLUraC3mqZha90GgxvCi96AVLi17wojPe+tSiF7iFlXOLKUl7a1Vkm9A6/5yp6sq445UXvXjVv4bIvk2Z7WvH03Olc96yZtfvhN6rJzpv9o98PlX+ddfem6fR52IE3muda1v636i3NPo9Xk9f/B8/Xnz656/ZOQDAWqNFEcCmEtcXSls04ioztosWr9GWk2C/RtfC6LhKqHFS/Un7yknJkkWOaaEbkB3RpsG+Hd7SOVkwTWdDMpIuydR+vx2tsn9KSumR+OI15nglySYD6ZaJpFQb0fp2y6i2aHrLw+mddZjtSzJv8jWLMl1Iy0jGu7bSlJjL0fOlRmV34PpDqaCaatqIuV7vmA0q8Qws+XDs59LsvVYWvC2XfrbJ/pR9hXbRdHDtM0wfRgBYPwSKADYFvdEcmv6B7LpjoaM3nZo+6gJA/ekCQA0Wdd5NWtxGq6O6eRdMrhVNAS1N7ZeKSzttFFl5gdeMpllGJj/Ts08ys958OSdzmhLbdFiNPtk9mvJTTTXwSvVL0gauGjxWFuYkNbrbpsD6/RfDqaBps6ZzGrzX8rwXRmIt6L+Pf3nm26p9GDVg1AH8AQBrh0ARwIanRWr0RvNvnnjJtOQ1ar1brdzl7zH9Dt10yelvCc27SWl1VC3q8aUPn2mW6barluyXVLXlMCDaGjY0ImltxSvul6lSgxa4eseL6svIrO0vua9RNRtP3+5RSc0tSHH/lIgNCjVwLUznTdBabfEz1+wFbrO1vpMaSDbU6vXGabZvnfXapxLtpUHiXb/RZyYXMLbl3wcAoGUEigA2NE1b0xQ2vdHU1E8dAFyrmHYLLepx7c7T7FwbeAHbuBZoCRRg8cIrye/JelHs3kB6qU0/3ecFa6HlEfWON2YLwBTHlqScLk3tjNA02FJWhr1LGnU5phqEzU3FBK2BwKySlz1xhWNK87XKo3HX6+2Xj1xjrGbv1a0PFL/R998sGxYr5wJGLTIVFygycD8AdA6BIoANTasp6g2m3mze+dHzYgcA32i0Gmg5N2f6Dbp+dlOjZZnNhAM4k37qxV3VYK0OPd5M2u+HWD1ev00P9QI8P+W0dh5bfLQBDVK9H8G+iNp3UUrhvpJeYDaZk1qfQS1WGk09HdrrV33V9YFqqKHrTXrBcL0+nREN36tZbyuvuvXTI6YSLTrrfaeeaF/VaGaADtz/hXt+bDIFAADtlVjUzhcAgGXTvoXKpZICvahXf481U8CNfap9GnXomaw36WsAwOrRoghgQ7jn6V/IB75ZNv0Qsd78IjR+i1x4aqkyKtACHe/U9WHUFsUb7vkxBW8AoI1oUQTQ0/QGUVsWvvzgs2ZeB83/3idazDNcJVoUsRFshN/jvz/0c5l46Dm59VfPkhOP5Rk4ALQD36YAetYTL70m5311vhok/uGvvEuKI+eb1wA2D21V/PrQOUuCRB0KR4fXoOgNACwfgSKAnqUVQ/UGUVsRdQxCTUWjfxIA54/v/ampfKzD4xAwAsDyECgC6Gm3fPhMk2rKGGsAoi4/823mu0FbFl3AqGmqAIDmCBQB9AQtUqM3elGbYbgLACujY6dqtoEOjaMBo/Zpft8pJ9i1AIBGCBQBdDXthzg0/QMzaeqYVjcFgOVwAeOBT+3g4RIAtIhAEUDX0iI1F37tUdOaqH0Pb73ibNMfEQBWIm7g/unHf2aKYjG0BgCEESgC6GpafOLT/afKwav6zU8AaKdvLrxoMhc+851/ImAEgAACRQBd65qdp5lCNdqSSDVTAJ2gw2q4PowuYLz/mVfsWgDYvAgUAXQF7X+olQmjSDUF0GnBojc6HitVlAGAQBHAOtPiNNoPUSua3vCPP7FLe1sid7+ZHG2dcMt0cq0Vbv7Y/AOy9eYHzetOKo4lJJEYk6Kd3zgqkh9MyFib31glPyiJdh8UXU0DRh2PNerR54+YvowAsJkQKAJYF1qm/tq/OyQf+GbZ3IRpJcJ/dc5Wu7Z3abC3J9KXctftj8kL114si9lLTKuFziud1+nIdTvl0NUXmWWdNDSxKIuLEzJk57tacUwSg3kvBATW3+dnn5aP/fVB82+XgBHAZkGgCGBdaJEaLRpx4rHHyPWXnSEHP3OheZrf67Tozm1XnG3nfBoMuj6W5558vPkZtOhN2255yGwHoPv8a++7Sf/tajaACxj1ARcAbGQEigDWhbYg3vlr58ojv/s++YIXKGrAuBHEBYJBp3gBoQbGjrZAbi88LDdd/h67JEJb1hKaMqrToOQDTWwmNTJ2nUvFLMqYWeenm2rq6WDwAJ76x/A0OHeUSWsNpWn65w4uCqVyVvIyWD22NwVaD82xhgsipawkdV3gIOHrjaab+u/bX7f0ehu+V4+fmmsn73rKdjngKi/rv1P97vrx4deb/lsHgF5HoAig4zTNNO7p+0fOPXnT3GzpZ6BBYWbX6SYwdrQV8dlrBkwfzaw3hWgwNTwnubKmjHrTzKhd4Qc9yalRKetys25Asslw/8O5fdPSb/aNTzdteIwG544zNJL2TrhQSxUtTosX6klhunZF5fmSpEf8K6nsn5dRd+zFsuTECwpt1GdSZGe846Vy/rVN2H30erMDMuOut5yTfrPGVxjeIzLpr5tJlyS7pxZ8Nvu8NEgcnrPn02l8XoazJbsW8GW9f7+a/VAcOX/DPNwCgHr4lgPQUd947AVTrGZo+gcm3XQz0nQ1bUnUioq5Oi2HGjDmDzxj54IGZEeffTmUkYx5XZQbsyK5yYy4VTK0V3KpggTiMpHRvXb7OK0cI+7cdST7JVWakv02MitOFySdy0mqGjwWZbqQkv6kmZG+zETgeH2SGY8Emkvo9XqB5kwg6O3zrikQAadyk9VjDu31zl2at62Czd6rf23h9RNesGlfAwEaIMZVRdXKzfRhBLCRECgC6AhtQfzQX1Tkt4pPmmEvNF1LW9U2I7151CI2wT6YroXRiR23rW+3jHrBzHAikmJpWutKkk0GUiUTSYk2gA1Uo7wYzY5R79z1mO1LMm8iMw280jKS2SEDLnjU86VGZXfgkkKpoJpq2oi5Xu+YcU2j1tL3OycL7tyN3mtlwdsyEBRbyf6UfQU0N/HQc6E+jASMAHodgSKAjvjcd38kf3/o56aIyy0fPtMMnK/B4kan6aMuANSfLgDUG0edd5N+Llod1c27YDKsTzKziybFcm5Yg5tgamm6loIZmGyWZosaHaPRueP0ye7RlJ9qqoFXql+SMiQjaT94rCzMSWp0t22x8/svhlNBO9181+C9lue9MBJYHf2O0/7H+m/bBYwUvAHQywgUAXSEBofX7DzNFKvRn5uFppZqGqmbNEUtOO8mpdVRtUDGl7zPSpfVHeS7LyOz2o8vVZB9WoFF0zxda9lKtXqM6Lkb6Ns9alJNi/unRGxQqH0XC9N52T9VqrX4mRY8L3CbraV6aiDZ0Grec7N966zXPpVAqzRA1P7H+m9aA0YtgPO+U0+0awGg9xAoAli1uJRSLVKjweJmaEVcDf2crq0XSBfHlqR9mmDLC97GtVhLqHhNRfJjyxh3sNkx6p27kT5NNc3KcFbjRLutBmFzUzJViqaNBgKzSl72xBWOqfYx9MRdr7dfPnKNsZq9V7c+UPxG33+zbFggjgsYb40Mk6PuefoXJtMCAHoBgSKAVfmj7/9EzvvqvPzNEy/ZJWgbL8jy0z79PnVTo+VqaqlWBp1J+30Iq+v7XWpnaxoeo8G569NUU+9HsC+i9l2UkpTSI6EiNJM5qfUZ1GKl0dRTW2zGXFugGmroepNT3nWaVU01+7yGJmzlVbd+ekTKOfooor2u/btDpu+2TgSMALpdYlE7aQDAMumTcb3pcX3wtGx83bEANyjtW6hcKinQi/g9Xhta9fmP7v2pqW7ssjD+5Zlvk68PnUPmBYCuRIsigGXTIPED3yybIFH74OiYYpstSNyc3AD+S6eWKqMCm5gOqxHsw6gpqhowEiQC6Fa0KAJYEU2duvzMt8kfXvrOTTvwNC0x2Aj4PV4fGiTq0EEUvAHQrWhRBLAid/1Gn3k6vlmDRABYDW1RjAsSP3f3D+Uz3/kneeKl1+wSAFgf3OEBqEufeGs/RJ0AAJ2l/Rhvm3/eTFokjIARwHoiUAQQS29ULvzao/LlB581k6ZIAQA6RzM0dOxZLQ6mr933sAaQALDWCBQBLPGxvz5onmRrcHjZ9rfKgSsvoOACAKwB/a7V4mAHP3OhX036g+8mxR/AuuCbB8AS/+qcreZmRQeM/t4nknLJ6W+xawAAa8EFjNfsPM0uqdFxa0lJBdBpBIoAltAbE01/+nT/qXYJAKAbaBrqZ/7rU/RhBNBxBIrAJvbo80fMjUZc/xetyAcA6C5H3liUT+7YVu3D6AJGAGg3AkVgE9LA8Av3/Fh23bFgbjQ+P/u0XQMA6Gb6EC/Yh1EDRq1QDQDtRqAIbDL3PP0LU0XvBi9Q1IBR00v/7aXvtGsBAL0gWPRGfwJAuxEoApuM3lz8+PDrpkCNFqrRgjW6DO2TyN1vJuf+Z16pLtNJ55WbPzb/gGy9+UHzuntVJD+YkLGinY1RHEvIYL5i5wCsBf3+Pvfk4+1czW8VnzSD9zO0EYCVIlAENhm9objr4+81Q17o0BdoLw329kSKAO26/TF54dqLZTF7ifncdV7pvE5Hrtsph66+yCzrGsUxSQzmvfAQQK/RAjffeOwFyR14Rs679RECRgArQqAIbGCaZqpTFAFi5xy8ql9uu+JsO+fTYNAVB4p78r/oTdtuechsBwCrpd8z+lBq5L1vN10MNGD82LefsGsBoDUEisAGpIUNrv27Q/KBb5ZN+lFcVVN0RlwgGHSKFxBef9kZds5vgdxeeLhuHyM/nbNo0j4TCX8y6Z+VvAza+URiTKIZoZX8YHV7M4VyRl0aqf/T32ZQXNaonjMxXBApZSVZZ9/oPlHmGJE8VXNNDVsp3XUVZcwcv/a+wu8ncq1NzlNv39r56r0nvY7IezSfe/jzrn98YP1o94I7P3peNWCkLzqA5SJQBDaYLz/4rCmXrj+1Gt4nLzjFrsF60uBdg8LMrtPlC4FAUVsRn71mwKSGZb0pTim7T2RyURYXF6WcS0lh2AtI9ugiXVaWXKogw4FgSQOXZHZAZsx6u83c8JKAqjBsDmK2mUmXJLvHD66GJrxlM2mRVE7Kuv/EkL+Dp94+UUMj3v5zC4F1Fdk/VZL0eEb67JJ65vZNS39ZzzEhembzfqZG/WvRaWZAskk/WGt2nkb7Oq2+pzitHB9YTy5g1GAxavrxn5GSCqAuAkVgg/nmwosmKPnIuSfLgU/tkC8ObjcBI9aPFq/RlkS9WcvVaTnUgDF/4Bk7F5Eel4yNrvoy4+KFRoGAq08y48FgqSg3ZkVyZT/I8nnbTOYkVZgOBTCp3GT1uEN7vfWleSn7s3W1vM/QiKRLU7LfRVyV/TJVSstI7aLqG91bPUf1/UwGAsyhvSY4nvYjxQbnabKvtZLPwdfa8YFupAGiZpzQhxFAPdw9AhuMpjB+fegcKY6cL+879US7FOtJi9e49C/HtTA6rhJqnFR/0r5yUrJkkVOcloIMyI5q5GL17fCWzslCoKlsYMlG4fVxWt9nSEbSJZmyEVxl/5SU0iOB4LW+0DnM+ylJNulSO3VKSrZk1zc6T9N9fSv5HIwWjw90I/0OuuyMk6p9GDVgZExdAEEEikAPiytUo2lGpJuuH00fdQGg/nQBoAaLOu8mLW6j1VHdvAsmNxJNCy1N7ZeKSwdtqTkxTjqQRlubXEZs4/M03nf1On18oDP0QeJdv9Fnpn955ttMwEh/dgBBBIpAD3r0+SPyob+omGI1ccEi1o+mlmoaqZs0cA/Ou0lpdVStkvqlD59plum2q5bsl1Rci1hlwVsa09LYSS4ttLiMtNOoeu8nqN55Wtl3ucrzUm0w7MTxgTWmQaILGCl4AyCIQBHoIfq09wv3/Fh23bEgf3/o59XB89G7tErqtTtPs3Nt0JeRcS3IEiqoUpH8Hu1Mt7el1M+qlvvq1WPTQve1nna6RL33MxYsOFM7T+g9trRvI0npT3n73+j2LsqYVoN1Vn18oHtowKh/U4L0b86FX3vU/N3RVFUAmwuBItBDbpt/Xm7w/mDrH+9rvODikd99X2wlO2xuWrW0nJuT4UC/uanRsszWKsQ0Z4uymGNEqqUuhxaH0Sa43N4VhYmGvp+ZtL0W9376d9cKyHhM+ql3ntHd4ffYyr719UlmdkbShWG777SMlHOSsmvV6o4PdDetiqoZLPp3RwNG7ctIeiqweSQWtTMFgJ7xme/8k4xd/A4Gze8C2rdQuVRSxCiOSWJfv5RnA5VB0VX4PUYjmr2igaL+VJ/uP1VuveJs8xrAxkaLItCl9KltXKqP/oEmSERvqEh+X0FSo8EWNjeY/tJpFQ2XADok2IdRX+tYsAA2B1oUgS6kT26v/btD8pFztprhLtCdaImprziWENOdLz0TGrAf3YffY6zW3zzxkhm7d6253110J75Teh8tikAX0QGPNbVUK5pqvxDtH0J/EPQi7bunzyEJEoGNTYcAGpr+gZz31XnTjx7AxkGLItAlNCDUAY81WDzx2GNMmfI/9CZ9je5ESww2An6PsRo6RJNmwLgxY7WS8y0fPnNNWhhrv7unmp/oDomc/8CA75Texx0o0CVccKh/XLWa6RcuO4MgEQDQ1bTP/IErL5A7P3qeGQv2iZdekyNv0AYBbATchQJdJLvrdCmOnG+eyAIA0Ct0qCYNGPVvGMM2ARvDpk49pRM02q3VNItvPPaCTDz0nPmDSqth7yJlDxsBv8foNO1S8aG/fNxkzejwGu1C6ml3IvV04+AOFeiAj/31QdNnI1qMRgvUaKGa3yo+aSqb0vEfALDRffmh58zfPy3WRtEboHfQoujhSRRWK/j0TDv0ayCYueQ0+dsnX5a/8SYde+qUE7bI1x97wWy3zXutw16088kq1h4tMdgI+D3GWtDgUAfu1z6M6vrLzjB98VeD+7juRIvixkGLItBm2or4iR3b5Jqdp5nO/a/8/k4TNGpwuPX4LfKOE4+Vg1f1EyRuEoePvikT33tarrz9EfngzfebSV/rMl0HAJuB/s3Tv323XnG2vO/UE+Wai99h1wDoVrQoengShdUKPj3T1FJ9UqqtiFHa2qipN9rhH72vWUvMvU+9LDd850l5+qVX7ZKw7SefINdfcY5cetZWuwRYe7QoolvUG7hfu3Bodo5m6Wh/x68PnWP69ze6jzvpz16QV15v/RZXj3HwpTflvJNpQ1ktWhQ3Dv41AG304qtvyAEvGPyVd51kl4Rpa+O/phrcpqBB4rV/WQ4Fie9863Hy7q3H2Tkx63Qb3bae4lhCEokxKdr5XlTJD0pibGXvYDX7Augd+vdRB+7fdftj5rX2acwdeMYsO+XLczI5/7z80mknmr+zGjQ2stwgUWlw02qQWMn/G+976S47p9/T53jf059fs+/p6PlXY62vHb2FQBFooz/5nz816aVvPS7+n9bdh34e29KIjUVTSrUlMZqwUXlJ5K+u3mnnfLqNblsvDXVoYtHbZkKG7PyaKo5JYjAvFTvbE3rxmgGYVsMz3nqcybzRgnC77liQ//nTw6brhnbh0K4c2qVDu3Zoy2Ijyw0SV2toQr/vv7g+39Or1MvXjs4jUATa6D/840/k0ne+xc6F6VNQ/QNIoLjx/fm9P6mbbhpHt9V9AGCz+uQFp8jBz1xoCr2duOUY+T//xbvla//qnCWpqDqvKarNXH3ZmbFTvXUAliJQBNro5BO2iLYLRYfFUPX6XmDjufvxF+2r1n33B/H7aOrpYN61j1UkP5iQsaL/M5HQaVCqq5W2qJnlS9eZNM7Yde64RRkz68ZkTFNehwsipawkdVkg/bP+cXx+uqydBvNStstb0XTfSl4G3Xq7jTu92XeF1wxg/Wm/w+yu0+U//ovt8t9/9Au7NOzck48322lq6kr94vU37KvW+OmZdhr86pLvJV0/mH/Czrn5u7zv1dp+5uuo8lXv+8staz3ds9n5lUlHrR7731S/48y+kTRVs613HN0keu0qfCx77Va982BjIlBskea7a/56q5PSTtHYXB648gIZOmer6UuhfSq0b4X2sdA/aJoq86+8ddj4Dv2s9dZE56kXW9+nMLxHZFJTUhdlJl2S7B4bLGkQNTwnubK/bnFm1GyvNFBKTo1KWZebdQOSTYb7Ps7tm5Z+s++ETGjK60xaJJXz95nwE5OaHUeDteE5u49O4/MynC3ZtY21sm9l/7yMuve3WJaceEGhvYsxaboruGYA3eWj579d/vHp+EBRfcT7W9qsn2Ijbz12i33VnAZSw3PXe98fmqLpTeNl73vpPru2vlL2T73vaX+fcu6Xve9tL7AyX9267G7Jpe6Q4Rb6GbZyfg3eklO/Vttm5gLvO84PRIdGPuV9uR+sPlATeUL2T90n6fGrpM8uCTLHyl4gM+5Y5eulP7iuznmwMREotmCjd4puRdwTp05p1/tfj89Rn3RGh8V48qXX5GPffsK0MuofN2w++vT7pTeOkwcyF9klq5PKTUrG/oUf2puTVGk+8IR5QHa4v/5DGbtdUW7MiuQmM7Ubg6G93o1KQaaD/0BG91aPG6/ZcYoyXUhF1k94wax93VBr+/ZlJgLX2CeZcW+DuYXATVBUi+8dQNdo1mqoReG+Ycclruf/uudQ7FRvXby7vO+lX/a+PwJB1dAXW/tOS19X/a7qy1wnukstODvX++6KBnBxWjn/XfY7LrjNmAlEzXfc0BWSLn1b9rsTVf5OpkqfkpHYTol6LC+InAn0Wey7SjJmpsl5sCERKLaATtFra0Xvv/j5ahqF0w2fo6aaan+LR373ffLCtRebjvrY+M7adoL5ecKWhAkQ/+G6XbLwBzvll/IPy3DhQbMuyu3TioFqJOjMyYL+8vftllEvABpOaBqpv8YoTktBSpJNutRLnZISbehbetyIZsepLHhXEghUrWR/yr5qYBn7htJINdW0kRbfO4DuEtdqqF069KGrZu08+fJRuzSeDncRN9VbF6ty0PteuiDme+mX7av6Uv3n2VfOL0t/0r5sVSvnL37H+467z/uO04fjbro88B33IRlJ3ydT+/2H/ZX935ZS+or4eyNzrDpBZNPzYCMiUGxRXMdnneqtA7B5ffD8bfL+s7fKt6662ASIvzn5sFx6031y8paj8tNfxN/c6D6r1yeZ2UVZLOdkblgDomB6ZVpmXOplYLLZmcvQ4DjleS8kW6GW9vX7UIbTSFt6tN+m9w5grWir4bfqDJPx/jNOku99YrlRV82zR1rsGlQur/w7rR1aPv+naqmigcl9x2n6aWnq76Ti0k5HPuSvWLbG58HGQ6DYBj3VKVpb3qr7uE7Id3k3X5EOyebYS48Z6sQcacGLP7YvtJ83+a0dT5j3NFbU8+ty/3zx7/+Juuc2n+fwHSKlGySp62wab/Q4Knod4Q7e7nr8n/42dNTG8v3Ope+Sw0cX5ffvLJsA8WCTogs68L7u0zZ9GZnV/nupguzTX+Bkv6Rcq+NqNDtOnfXl+RZudVrZ17Q6ekHfbC2NtLIwZ1/V0a73DmBNXeYFg2aojG8/YbpwRIfJ0PTUeo5JJOyreKed2OLtbzLpfX88FvO91LyPYlu0cv4624S49NNio7RTT6NjtXIebDgEim3QM52iNfgbfkxyZXvumV+zK1pTyl4ue+RP/H31nOIFZu6cDY6twVmyTsdoNbfvO9Jv9qufJtro3CbFdOZTIin7uU7EPylbch16nLlPL6kGVhj+36uf9Uz6PsnuiQTEQBMnHXeMfHbw3fL4c82r8mkq5PVXnGP2WbXiWDjl1GPSSb3AcVyL3oQKuFQkP9bCeIPB/o/NjuPWu+I6yrumZtmhRsv7BoK+Sl72xOU9LeeaAXQl7aOoXTa064Z24VhO1fA3MqcsKTLoJhW3PDb9tO8q7/sjch9Q/Hxr32nt0Mr53TahojJPeN9xwXsXm36679siubH6XXLijuXd3+V1pqXzYKMhUGxRXMdnneqti7fenaJVINd96KomhSsi0rfJbOZcO+Odc/J6SRX+NNDiFnfsRh2jrdGx5tfR9NzN2E7Y5WAw6o7zncCXnhYK+ZPq9Qzt9daXyrGlqIFGLj1rq9zy8aRpLaxH1+k2um1bJPttyqnfD29qtFxLPZrQCql+/8Xq+v7dte+iOLboi9knUFm00XGGJmwlUrd+ekTKuRb6KHqa7usFfZM58W5U7Hp9WBb9Al3BNQPYeKJ9EJtN9QxN2IfTLhNp+grzwH6ttHJ+fWA+k77D+46z2yQu977jPhz6jjPppyXvlmu3u5eKt+RYSS+4tFm+rZwHG0tiUTtqbFKJ3P3mZ6MvCFX3SZOn3rrY5drqlizLeKTlzLR0zV8nriVMWx339d9dDYyi836q6J9Kf/m/1AIsTfvcl5TybCAIXUJTKv2Ox+mZYE55zPEi17r0GlRwvzrH1usaFpmJbS3095kfD+e3N3//KnLNMe8/tF/d61j6HkLXYz6Hb8to8LOJof+91WL2EvMTm0PtO6T+f/fDR980g+nr2Ipu2AwtXKN9EjXdtC0ticAqtPJ7DHSjVu/jsLa4J9o4uENpg57pFK0taLNPmtTPOU1dbevQEZ08NtC7NBAc+8B2ueO3L5TvfvYSM91+5YVm2eYLEt2A/kunaMosAGwO+sDatdCFJ74Xsd4IFFuwYTpFO31Xyazt17iv3tiIMUFtaf6gfWWZUsmRss3RY7ep83NL526k3nXUKT0NoBOGZCJSedRNwawCANg8PuR9L7raCeGJ70WsNwLFFmyYTtHeuZYWutB0zvOkP+Vd142uqMtdMqZVRKMKnw7s72+Tcp2i6x07rvOz6xi9HI3O7TTqSxh3HZr6uueGxh27AQAAgE2IQLFFGvgtZ6pnXTtFJ5M2LVSny2Vq9G77tErTRm+TtBeM+eu+IyPl6yVafiKVu03697n9Py2FYIGZusdu3DG6VQ3PrYbG/Mqvur5O9Ve9jnLusXAnbO86w30fAQAAAFDMxtMosMP6iy9m0120FVnRcXtzoQgINgJ+j9GruI/rTtwTbRy0KG44dIoGAAAAsDq0KHp4EtXdaFFEt6IlBhsBv8foVe53F92J75TeR6DoIVDEahEobk7cYGMj4PcYvYrf3e7Ef5eNg9RTAAAAAEAIgSIAdNDho2/KxPeelitvf0Q+ePP9ZtLXukzXAQAAdCMCRQDokHufelk+8bV5+co9P5LHfnpYDr/2hpn0tS7TdboNAABAt6GPItBG5ONvLo36YWgAeO1fliX4FfvOtx4nxx4j8qOXj9ol3jESCbnl40m59Kytdsn6qeQHJTk/Lot2ENTiWEKGC2mZWZwQOyyqv0225L3yl0vMNssVPe9yrGZf+OhPhF7F72534r/LxkGg6OEXGavF79LmVO+/u6aUamvh0y+9apf4XnrjOFn4g51y6U332SW+7SefIN/83X456bj1TfJoGnRV8jKYnJLR8qxk+uyyNljTQLE4Jol9/VKezUgb30JP4/sLvYrf3e7Ef5eNg9RTAGizP7/3J0uCxEZ0W92nNwzIDiIsAAA2PAJFAGizux9/0b5q3Xd/EL+Ppn8O5ouSH0yYNFWdxoreCm3ds/OJxJjooiBtaXPbm8nsFKbHrq4fzEvZLnf8c1fMa3O8ZFZKUpDhwPGC2zjhcw9KZHXT8zbSdN/Q5+Jv405v9h0uiJSyktR1gc+k2TUDALDZECgCQJsd+lnrrYnOUy/W36eU3ScyuWj6O5ZzKSkMe8HMHl2ky8qSS3nBWyToSWYHZMast9vMDYcCIw2ahudyUnbbjM/LsOl7GK8vMyuL5ZykTN9Eb/s6qZ7m3FOjtePODEg2WQtkl3veoFb2reyfl9GyXa/vW7yg0L7voQlv2UxaJGWPYd9Ds2sGAGAzIlAEgA478dhjTP/EBzIX2SXLlB6v9gnsy4x7oZoucn3s+iQz7i2ZW7AtZ0W5MSuSKweLy3jbTHpBXmHaBj9FmS6kJDcZ6Kc3NCEaQ62OPXfouHtNIDttTrya87a2b19mItB/MvrZxGl2zQB6jfaRc/3k1P3PvFJdppPOKzd/bP4B2Xrzg+Z1y6rZC2QgYOMiUASANjtr2wnm5wlbEiZA/IfrdpkiNr+Uf1iGCw+adVFunzip/qR95aRkySKnOC2FuH6EfTu8pXOyoDc0lQXv1dJtkv0p+2qFzLlLkk26FE6dklJt9FvNeZexbyiNVFNNG2l2zQB6igZ7e/pPtXO+Xbc/Ji9ce7EprnLgygvMvNJ5nY5ct1MOXb3CB3nABkagCABt9sHzt8n7z94q37rqYhMg/ubkw6bS6clbjspPf1EbGiNI91kz5XkvNOoUm5oamUyW52rO29K+RRnzAr1wGmkrzZUNrhlATzl4Vb/cdsXZds6nweC2E7aY1+eefLz5GaTl/7fd8hBVOoEIAkUAaLPfufRdcvjoovz+nWUTIB58/ohdE0+Hx9B92iLZLynXchgUbJGrs015fpXhY71zO6s5byv7mvfoBX2BoS8qC3P2VR3NrhlAT4kLBINO8QLC6y87w875LZDbCw/LTZe/xy6JiBbIqpdqGtxuMG8XAr2NQBEA2kzHQ/zs4Lvl8ecaB4hKbyquv+Kc9o2h2JeR8bSmUgaLsVQkv0c74u31+y26bfbUKoJKcUyaZWk2Ve/cY/Y8qzlvy/sGgj7vxm1PXA5pab5WLbXZNQPYEF589Q0TFGZ2nS5fCASK2or47DUD8rm7fyhZbwrR4M9Ue26ueKPbzn9YBWwEBIox9Isk2KGZTtAAluvSs7bKLR9PmtbCenSdbqPbtpNW9yzn5vxhLMyUlKnRsswGRskfmrAVQd020yOmoupq6bln0nYIDXfu/t3VFr7VnLfpvl7QN5kTL+iz67UybDT11BaqCQ7x0eyaAfQ2vW/TlsQ7P3qefOvxn1Xv34KTyh94xvysqqa8B9PTZwMFs6xyXvbZh1bpmWAhMaC3Jbxfek3N3pTcF0MwJ12XaSfoyfnnq8t1mXaC1vx2/bLRTtDBfV5/c1F+cfTN5eW3V59SpSRXjvnSQU+J+13CxtfKf/fD3neDDqavYyu6YTO0cI32SdR007a1JAIrxPcXelWj311d55bray1ic8npb6nuo4LrndCxlrQoBu7Z4lob0zN1hw7aTBr9d0Fv4Q4lgk7QANpJA8GxD2yXO377QvnuZy8x0+1XXmiWESRG+cVo/Fa98BQYAhIA6tL0UReo6E+XBaYP+aMBoc7rVPf+rS8js2asWjvvhYWasTAYSgVLScqtrw5BBGwM3KVE0AkaANbLkExU07vCEw/pAbQi592PaeDnJm1FDM4vX59kZv3vIZfJXpqv9nI2RidnxF9VkGGeamEDIVBsEZ2gAQAANgbXkqiTvo5VHAs86E9Ui2elR6JProZkr2t2LOyj9gQ2DALFFtAJGgAAYGNx92/LkZ6Jz3Doy4zbVkW/ijKwERAotkDz2rUT9Mh73y5PvPSaXeq3JjZMYzDjcylXTS8u7dT7Qhm2rYnpGdKrAAAA1kDDezg1NFFNf3dT9T7N9F8MNgAEU+cnzCZAryNQjKATNAAAwMYUrEXh7uOcZnUqgM2G4TE8TZ8oBQT3qfe6nuKYzW/X8sl7FwLDY4zLfHJYTPYppZV70kp+l9D73H93YCPg+wu9hr+93Yn/LhsHLYorpP8I9B+ATnVvFukEDQAAAKAH0aLoWc4Tj2hQGA0UQ8fSQNFFh1a1E3S1IqobvFXHD7OtipImv73HrOR3CQAArBx/e7sT/102DloUV6HpPwA6QQMAAADoQQSKy0QnaAAAAAAbHamnHprGsVr8LgEAsLaCD+vRfbgn6n0Eih5+kbFa/C4BALC2+NvbnfjvsnGQegoAAAAACCFQBAAAAACEECgCAAAAAELoowi0Efn4AACsDfrCdSf+u2wcBIoefpGxWvwuAQCwtvjb253477JxkHoKAAAAAAghUAQAAAAAhBAoAgAAAABCCBQBAACAFlXyg5IYK9q51SmOJSSRGJP2HA1oLwJFAAAAbBgn/dmDpqDKaRNzdolfYEWnY/IP2CW+U788Z5brPuthaGJRFhcnZMjOA92EQBEAAAAbggZ8r7z+pnn93CuvVytwOlrs3y3Tny8ced281n2i2wKbHYEiAAAANgQXJMYNzaDLGi2PW6f89FA7DealbJcHmXRUt01iUPIVf7nZN5Kmarb1jqOb6PpBt7EVPlZCgrvXOw/QCQSKAAAA2DBcwBcN/M679REzLYcGcsNzOSkvaoqoN43Py3C2ZNf6NHhLTo3WtpkZkGzS73c4NJIWmVswQaGvIvunSpIez0ifXRJkjpUdkBl3rHJO+oPr6pwH6AQCxS4V94SpU/wnZav/omnXcQAAAFZKU0jdFHTwMxeaKeoff3zYTN//ySt2iVOU6UJKcpOBoG5oQma82K+mKDdmJbLNXsmlCjLtR4qSLk3JfndLV9kvU6W0jMR2StRjeUHkTKDPYl9GMmamyXmADiBQjNFLnaDbYUUdqYtj1bQJZ007ZMecHwAAQMWlkbp7uWOPSdglvsu+sWCmf/b1x+wSq7IgczIgOyJNf8n+lH3lKU5LQUqSTbp0UJ2SUmt0HJKRdEmmbKRY2T8lpfRI/L2SOVadILLpeYD2I1CMoBM0AABA73JB4rd+/XzzM+r+K99nfr6eCQeTL392p31llee90KwV6VqqaGCasAGfpp+WpvZLxaWdxjcntqDxeYB2I1CMaHsnaG35qj75cZ2OizIW7YBcyctgTNpmqNNytAUt9ti+cGdn1xG6IvlBfa3n1+X++aJprm6+3rlNiulwQaSUlaSus72so8dR0esId+h21+P/9Ldp3jE77vxmWejY9tyRzuINP09P+HrpJA4AQC8J3ov9+vknV+eD92oXveMEs2xLIrz8bcdFbouT/ZKSOVmI3AuU5wPhY51tQlz6abFR2qmn0bFaOQ/QZgSKMfTLIvjTWXYnaA3+huckV7ZPfWZG7YrWlLJJ2SOT9olRWXLiBUYuGGpwbA126nWEVnP7pqXf7Fc/TbTRuU2KqSbop2zn7jqPspZchx5nbnhJQFcY3iMy6W8zky5Jdk/jlNK487fSWbzh5+kx10sncQAAoPoyMh69LymOiT6rrnLbhO4XKpIfC97L2PTTfVMiub31u+jEHcu738vrTEvnAdqLQDGGppC6KWj5naBVILd9KCOZSJ57Q+kZma3u0CeZyZykCvsCrVxxx27UEdoa3dv8Opqeuxnb6bocDEbdcaYDX3Ia701Wr2dor7e+NB9berqhVjqLN3xPdBIHAABhQxP2wbLLNpoekXIu0EfRow+wZ9IFGa5mJCVlqn937X7CY9JPS94t2O7g0qWWHCvpBZfJOutizgO0E4FiHdHWROWCx5Y7QfftllEv0NB/0JFGtJak+u03g9O3wwsNrXrHbtQR2hqI9sqO0fDcrTDXsbQDuH+ccOrE0utZSWpF887iDd8TncQBAMASfZKZtZlGNoupLzO7JJvKZDu5bbyp9mDaGprwls8ueVCv+0W3DR8rvE/T8wBtRKAYwwWJq+4E7b5cyjmZG9bAo51pjJ08dm9afWdxOokDAAAAikAxItiSuOpO0E5fRma1T1yqIPvq5W7GVNYqzUcSMONa6aLHblNn55bO3Ui966hTarotmnQWb/ie6CQOAAAAVBEodlJxbEnKqZ9mmZT+VEmyN7qVRRkL9Yy2CsOB/f1tUq4TdL1jN+oIvRyNzu006ktYr9P1Hu0I2KAj93IsOX+ts3jsGEWN3lO966WTOAAAADYhAsVOSvbbtFC/v9vUaNmmMWra6IykvcDFXzctI+WchLtGa5GXGenf5/YflkKwGEvdY/v56/U6Qreq4bmVLfRizhGNWC29jnJuLtzp2rvOtuTT1zm/FsPRptnc3qWhaLP3tORzo5M4AAAANqnEonbC2qRcVVNNG0WNjjm4r79NAd1a07El9/VLeTZQvdTT6ffE7xIAAGuLv73dif8uGwctiuhSRRmrtuyFpzoNmJ6K5PcVJDVKKyAAAACwGrQoenjiEdaLLYp6zaabZ3pmSclqRYsiAAAbi/vbi+7EPVHvI1D08IuM1eJ3CQCAtUWg2N24J+p9BIoefpGxWvwuAQAAYCOhjyIAAAAAIIRAEQAAAAAQQqAIAAAAAAghUAQAAAAAhBAoAgAAAABCCBQBAAAAACEEigAAAACAEALFGDomXnAQ1/ufeaW6TCedV27+2PwDsvXmB83rlSiOJWQwX7Fza6uSH5TEWNHOrR19z4nEmKz9mQEAAAA0Q6AYocHenv5T7Zxv1+2PyQvXXmwGUz9w5QVmXum8Tkeu2ymHrr7ILEOM4pgkBvMSDIWHJhZlcXFChuw8AAAAgO5BoBhx8Kp+ue2Ks+2cT4PBbSdsMa/PPfl48zNo0Zu23fKQ2Q4AAAAAeh2BYkRcIBh0ihcQXn/ZGXbOb4HcXnhYbrr8PXZJmEsrNSmeCU239KZI69oSlbwMum2XbF+R/GBCxor+T3+bQWk1c9VP+awdt2yX+4oyFj2WuRaXIurOrdvpMezyBtdrzjdcECllJanrbJprXLpt6DMKbOtb3fsGAAAA0DoCxRa9+OobJijM7DpdvhAIFLUV8dlrBuRzd/9Qst4Up5RNyh6ZlMVFTbcsS068oKlBv8DK/nkZLeu29bcvDO8RmfS3mUmXJLunSfDp0eBseC4nZXNcbxqfl+Fsya5t3dy+aek31+enjja6XpNiOpMWSdnzTsQnm2qQmMwOyIy7Nj3O3PCS/pMred8AAAAAlodAsQVavEZbEu/86HmSq9NyqAFj/sAzdi4iPSOzmT470yeZyZykCvvqtob1ZSakurluP+4FWnMLoYAolZusbjO01zteaT7SOhhVlOlCSnKTGe+I1tCEF2zZ18sxujdwfa1db2NFuTErkisH+yy6z2natmb6lv++AQAAACwXgWILtHiNFrEZee/b7ZJaC6PjKqHGSfUn7Surb4cM2Jf1hNIwNXUzYmBHIFIz5mShUWRWWfC2GJDobsn+lH3VuqXnbn69DRWnpRBzbf7nFH5fy37fAAAAAJaNQDFC00ddAKg/XQCowaLOu0mL22h1VDfvgsnV8/v/JadGaymiK2r2iyjPy/KTTFvRoesFAAAAsG4IFCM0tVTTSN10yelvCc27SWl1VK2S+qUPn2mW6bZxSvOR5Mh6LWjKtPylZWa2liJaWZizr1Yh2S+pmNa38nyT8LFZgNmO661zbfVaQQEAAAB0FoHiKmmV1Gt3nmbn6igMS60mS1HGhguSyu1tMIZgIGiq5GXPCgrOLNGXkfFo8ZfimISzRJPSn/K2udFdrH+tzbVwvY36ErprSwYH4K9Ifo92XGz0OQEAAADoBALFNZDKzUj/Ptt/LzEshVBxmwgvaJrMiRc02e21yGebUjmHJmxFUnMd3jQ9IuVcsI9in2RmZ+T/394d2zQMhGEYPoZJkxGyQVJRMQIbZAMGcAsjpGIYOg8TcliW+DgZUcSWsJ9HuioprCjNq/Pd/3wL2+FZ38tj35VfTzH+5XmP59Id3sqpfj5x22u9HbXvPobvfK1duTz1078TAAAwm4drPVS2UfVsYTW+SjqHOpLiZS941m6J/xIAACzFjuKqjIPw2zWxkQcAANAQiqtyLK/jzaM/1sScewAAgIZQnFk9e+e1UwAA4D8RigAAAAShCAAAQBCKAAAABOMx4I6MxwAAYA3sKAIAABA2vaMIAABAy44iAAAAQSgCAAAQhCIAAABBKAIAABCEIgAAAEEoAgAAEIQiAAAAQSgCAAAQhCIAAABBKAIAABCEIgAAAEEoAgAAEIQiAAAAQSgCAAAQhCIAAABBKAIAABCEIgAAAEEoAgAAEIQiAAAAQSgCAAAQhCIAAABBKAIAABCEIgAAAEEoAgAAEIQiAAAAQSgCAAAQhCIAAABBKAIAAPBNKZ+9lrTD/wuzrQAAAABJRU5ErkJggg==;" vertex="1" parent="1">
          <mxGeometry x="860" y="292.09" width="534.1" height="387.91" as="geometry" />
        </mxCell>
        <mxCell id="uRrWmLtxYyDdxlRz5IdK-737" style="edgeStyle=orthogonalEdgeStyle;rounded=0;html=1;labelBackgroundColor=none;startFill=1;startSize=4;endArrow=blockThin;endFill=1;endSize=4;jettySize=auto;orthogonalLoop=1;strokeColor=#4284F3;strokeWidth=2;fontSize=12;fontColor=#000000;align=center;dashed=0;entryX=-0.002;entryY=0.394;entryDx=0;entryDy=0;exitX=1;exitY=0.5;exitDx=0;exitDy=0;entryPerimeter=0;" edge="1" parent="1" source="705" target="14">
          <mxGeometry relative="1" as="geometry">
            <mxPoint x="370" y="460" as="sourcePoint" />
            <mxPoint x="370" y="330" as="targetPoint" />
          </mxGeometry>
        </mxCell>
        <mxCell id="uRrWmLtxYyDdxlRz5IdK-738" style="edgeStyle=orthogonalEdgeStyle;rounded=0;html=1;labelBackgroundColor=none;startFill=1;startSize=4;endArrow=blockThin;endFill=1;endSize=4;jettySize=auto;orthogonalLoop=1;strokeColor=#4284F3;strokeWidth=2;fontSize=12;fontColor=#000000;align=center;dashed=0;entryX=-0.002;entryY=0.527;entryDx=0;entryDy=0;exitX=1.013;exitY=0.526;exitDx=0;exitDy=0;entryPerimeter=0;exitPerimeter=0;" edge="1" parent="1" source="711" target="uRrWmLtxYyDdxlRz5IdK-732">
          <mxGeometry relative="1" as="geometry">
            <mxPoint x="610" y="434.63" as="sourcePoint" />
            <mxPoint x="708" y="434.63" as="targetPoint" />
          </mxGeometry>
        </mxCell>
        <mxCell id="uRrWmLtxYyDdxlRz5IdK-739" style="edgeStyle=orthogonalEdgeStyle;rounded=0;html=1;labelBackgroundColor=none;startFill=1;startSize=4;endArrow=blockThin;endFill=1;endSize=4;jettySize=auto;orthogonalLoop=1;strokeColor=#4284F3;strokeWidth=2;fontSize=12;fontColor=#000000;align=center;dashed=0;entryX=-0.001;entryY=0.373;entryDx=0;entryDy=0;exitX=0.999;exitY=0.534;exitDx=0;exitDy=0;entryPerimeter=0;exitPerimeter=0;" edge="1" parent="1" source="uRrWmLtxYyDdxlRz5IdK-732" target="uRrWmLtxYyDdxlRz5IdK-735">
          <mxGeometry relative="1" as="geometry">
            <mxPoint x="830" y="437.88" as="sourcePoint" />
            <mxPoint x="888" y="437.88" as="targetPoint" />
          </mxGeometry>
        </mxCell>
        <mxCell id="uRrWmLtxYyDdxlRz5IdK-744" value="" style="rounded=0;whiteSpace=wrap;html=1;fillColor=none;strokeColor=#d3d3d3;strokeWidth=2;" vertex="1" parent="1">
          <mxGeometry x="150" y="230" width="230" height="480" as="geometry" />
        </mxCell>
        <mxCell id="uRrWmLtxYyDdxlRz5IdK-745" value="" style="shape=image;verticalLabelPosition=bottom;labelBackgroundColor=default;verticalAlign=top;aspect=fixed;imageAspect=0;image=https://miro.medium.com/v2/resize:fit:1400/1*nOChrz2ZOWDcElFHCJ4Yyg.png;" vertex="1" parent="1">
          <mxGeometry x="157" y="230.00000000000003" width="216.01" height="73.08" as="geometry" />
        </mxCell>
        <mxCell id="uRrWmLtxYyDdxlRz5IdK-746" value="" style="strokeColor=#dddddd;shadow=1;strokeWidth=1;rounded=1;absoluteArcSize=1;arcSize=2;" vertex="1" parent="1">
          <mxGeometry x="1270" y="102.18" width="180" height="80" as="geometry" />
        </mxCell>
        <mxCell id="uRrWmLtxYyDdxlRz5IdK-740" value="" style="shape=image;verticalLabelPosition=bottom;labelBackgroundColor=default;verticalAlign=top;aspect=fixed;imageAspect=0;image=https://miro.medium.com/v2/resize:fit:1400/1*nOChrz2ZOWDcElFHCJ4Yyg.png;" vertex="1" parent="1">
          <mxGeometry x="1250" y="103.27000000000001" width="230" height="77.82" as="geometry" />
        </mxCell>
      </root>
    </mxGraphModel>
  </diagram>
</mxfile>
